<?xml version="1.0" encoding="utf-8"?>
<!-- Generator: Adobe Illustrator 23.0.4, SVG Export Plug-In . SVG Version: 6.00 Build 0)  -->
<svg version="1.1" id="Layer_1" xmlns="http://www.w3.org/2000/svg" xmlns:xlink="http://www.w3.org/1999/xlink" x="0px" y="0px"
	 viewBox="0 0 484 484" style="enable-background:new 0 0 484 484;" xml:space="preserve">
<style type="text/css">
	.st0{fill:#47B5E3;}
</style>
<path class="st0" d="M478.7,348.4L433.7,332c-4.2-1.5-8.7,0.6-10.2,4.8l-2.7,7.5l-52.2-19c-1.3-0.5-2.7-0.6-4.1-0.4l-108.6,19.2
	c-9.8,1.8-18.3,8-22.9,16.9l-49.8-18.2c-8-2.9-16.8-2.5-24.4,1.1c-9.7,4.5-16.6,13.7-18.1,24.3c-2,15.4,7.1,30.1,21.8,35.1
	L326.4,463c0.9,0.3,1.8,0.5,2.7,0.5c0.9,0,1.7-0.1,2.6-0.4l45.8-15.5l4.9,1.8l-2.7,7.5c-1.5,4.2,0.6,8.7,4.8,10.2l45.1,16.4
	c0.9,0.3,1.8,0.5,2.7,0.5c3.4,0,6.4-2.1,7.5-5.3l43.7-120.2C485,354.5,482.8,349.9,478.7,348.4z M375.1,431.6L329.3,447l-161.5-58.8
	c-7.5-2.5-12.2-9.8-11.5-17.6c0.7-4.8,3.5-9,7.6-11.5c4.1-2.5,9.2-3,13.7-1.3l51.8,18.9c0,1.5,0.1,2.9,0.4,4.4
	c3.1,17.3,19.6,28.9,37,25.9l90-15.9l-2.8-15.7l-89.9,15.9c-8.7,1.5-16.9-4.3-18.5-12.9c-0.3-1.8-0.3-3.7,0-5.5
	c0.1-0.3,0.1-0.5,0.1-0.8c0.1-0.7,0.3-1.4,0.6-2c2-5.4,6.6-9.3,12.3-10.3L365,341l50.2,18.3l-27.3,75.1l-7.5-2.7
	C378.7,431.1,376.8,431,375.1,431.6z M427.5,465.8l-30-10.9l38.3-105.1l30,10.9L427.5,465.8z"/>
<path class="st0" d="M187.7,128.9c2.6,9.4,7.3,18.2,13.9,25.4c-0.1,0.6-0.2,1.3-0.2,1.9v43.5c0,13.2,10.7,24,24,24v79.9
	c0,3,1.7,5.8,4.4,7.2l16,8c2.3,1.1,4.9,1.1,7.1,0l16-8c2.7-1.4,4.4-4.1,4.4-7.2v-79.9c13.2,0,24-10.7,24-24v-43.5
	c0-0.7-0.1-1.4-0.3-2.1c5.3-5.9,9.5-12.7,12.3-20.2c11.8,2,23.6-3.4,29.8-13.7c7.6-12.6,5.5-28.7-5-38.9l-65-65
	C258.5,5.9,244.3,0,229.4,0h-84c-1.1,0-2.2,0.2-3.1,0.6L87.9,24h-6.4V8c0-4.4-3.6-8-8-8H9.5c-4.4,0-8,3.6-8,8v127.9c0,4.4,3.6,8,8,8
	h63.9c4.4,0,8-3.6,8-8v-16h1.2c5.7,19.2,31.4,32,54.8,32C156.8,152.2,175.3,143.8,187.7,128.9z M65.5,127.9H17.5V16h47.9V127.9z
	 M257.3,298.7l-8,4l-8-4v-75h16V298.7z M281.2,199.8c0,4.4-3.6,8-8,8h-47.9c-4.4,0-8-3.6-8-8v-32.6c5.4,3.1,11.2,5.4,17.2,6.9
	c2.8,6.7,9.7,10.8,16.9,9.8c7.2-0.9,12.9-6.5,13.9-13.7c1-7.2-2.9-14.2-9.6-17c-6.7-2.8-14.5-0.9-18.9,4.9c-4.5-1.2-8.8-3-12.8-5.5
	c7.7-4.7,16.3-7.6,25.3-8.7c11.5,1.6,22.4,5.9,32,12.4V199.8z M287.2,141.2c-11.4-7.3-24.4-11.9-37.9-13.4
	c-13.5,1.4-26.4,6-37.9,13.3c-4.9-6.2-8.1-13.5-9.4-21.3h39.2c11.7,0.1,22.5-6.3,27.9-16.7l22.4,22.4c0.9,0.8,1.8,1.6,2.8,2.3
	C292.8,132.7,290.3,137.2,287.2,141.2z M272.9,84.2c-0.7-6.5-3.5-12.7-7.9-17.6c18.1,6.3,30.7,22.7,32.1,41.8L272.9,84.2z
	 M177.4,111.9c0,12.1-19.8,24-40,24s-40-11.9-40-24c0-4.4-3.6-8-8-8h-8V40h8c1.1,0,2.2-0.2,3.1-0.6L147,16h82.4
	c10.6,0,20.8,4.2,28.3,11.7l65,65c5.3,4.9,6.4,12.8,2.9,19c-2.7,4.2-7.3,6.8-12.3,6.7c-0.1,0-0.2,0-0.4,0c0.2-2.2,0.4-4.4,0.4-6.6
	c0-35.3-28.6-63.9-63.9-63.9c-10.7,0-21.3,2.8-30.7,8h-65.2v16h87.9c8.8,0,16,7.2,16,16s-7.2,16-16,16h-55.9
	C180.9,103.9,177.4,107.5,177.4,111.9z"/>
</svg>
