<?xml version="1.0"?>
<svg xmlns="http://www.w3.org/2000/svg" height="512px" viewBox="-1 0 493 493.952" width="512px"><g><path d="m459.972656 285.953125h-427.089844l-30 80h43.546876v128h400v-128h43.542968zm-11.089844 16 18 48h-207.511718l-24-48zm-404.910156 0h149.511719l-24 48h-143.511719zm18.457032 64h116.941406l27.058594-54.113281v166.113281h-144zm368 112h-208v-166.113281l27.054687 54.113281h180.945313zm0 0" data-original="#000000" class="active-path" data-old_color="#41b6e6" fill="#41b6e6"/><path d="m318.429688 445.953125h64v16h-64zm0 0" data-original="#000000" class="active-path" data-old_color="#41b6e6" fill="#41b6e6"/><path d="m398.429688 445.953125h16v16h-16zm0 0" data-original="#000000" class="active-path" data-old_color="#41b6e6" fill="#41b6e6"/><path d="m318.429688 413.953125h96v16h-96zm0 0" data-original="#000000" class="active-path" data-old_color="#41b6e6" fill="#41b6e6"/><path d="m102.429688 197.953125h64v72h160v-72h64v39.367187l101.949218-71.367187-101.949218-71.367187v39.367187h-88c-9.042969 0-17.296876 3.125-24 8.207031v-40.207031h39.367187l-71.367187-101.953125-71.371094 101.953125h39.371094v40.207031c-6.707032-5.082031-14.960938-8.207031-24-8.207031h-88v-39.367187l-101.953126 71.367187 101.953126 71.367187zm200-48h104v-24.632813l58.046874 40.632813-58.046874 40.632813v-24.632813h-80c-8.824219 0-16 7.175781-16 16v56h-32v-80c0-13.234375 10.765624-24 24-24zm-96.640626-64 40.640626-58.050781 40.636718 58.050781h-24.636718v168h-32v-168zm-119.359374 120.632813-58.050782-40.632813 58.050782-40.632813v24.632813h104c13.230468 0 24 10.765625 24 24v80h-32v-56c0-8.824219-7.175782-16-16-16h-80zm0 0" data-original="#000000" class="active-path" data-old_color="#41b6e6" fill="#41b6e6"/></g> </svg>
