<?xml version="1.0"?>
<svg xmlns="http://www.w3.org/2000/svg" xmlns:xlink="http://www.w3.org/1999/xlink" version="1.1" id="Capa_1" x="0px" y="0px" viewBox="0 0 512 512" style="enable-background:new 0 0 512 512;" xml:space="preserve" width="512px" height="512px"><g><g>
	<g>
		<path d="M507.978,184.939l-38.294-38.294c-2.929-2.929-7.679-2.929-10.607,0c-2.929,2.929-2.929,7.679,0,10.607l37.412,37.412    l-53.609,53.609c-3.263-3.263-95.581-95.581-99.063-99.064L397.426,95.6l36.866,36.866c2.929,2.929,7.679,2.929,10.607,0    c2.929-2.929,2.929-7.679,0-10.607l-37.748-37.748c-5.362-5.362-14.088-5.362-19.451,0l-55.373,55.373    c-5.362,5.362-5.362,14.088,0,19.451l6.508,6.508l-4.465,4.534c-0.018,0.018-0.036,0.037-0.054,0.055    c-6.072,5.954-12.407,11.425-17.719,11.425c-0.012,0-0.025,0-0.037,0c-31.922-0.153-28.462,0.151-60.404,12.666    c-31.49-12.338-28.436-12.82-60.404-12.666c-0.013,0-0.025,0-0.038,0c-5.311,0-11.648-5.471-17.719-11.426    c-0.018-0.018-0.035-0.036-0.053-0.054l-4.619-4.69l6.352-6.352c5.362-5.362,5.362-14.088,0-19.451l-17.565-17.565    c-2.929-2.929-7.679-2.929-10.607,0c-2.929,2.929-2.929,7.679,0,10.607l16.683,16.683L69.12,248.272l-53.609-53.609    c9.591-9.59,89.487-89.487,99.063-99.064l12.14,12.14c2.929,2.93,7.679,2.929,10.607,0c2.929-2.929,2.929-7.679,0-10.607    L124.3,84.111c-5.362-5.363-14.088-5.363-19.452,0c-2.666,2.666-98.133,98.134-100.827,100.827    c-5.362,5.362-5.362,14.088,0,19.451l55.373,55.373c5.363,5.363,14.088,5.362,19.451,0l5.935-5.935l10.648,10.639    c13.718,13.702-3.339,30.719,20.017,54.032l106.306,106.307c9.483,9.482,24.902,9.471,34.372,0.001    c2.33-2.33,4.087-5.02,5.272-7.893l5.758,5.758c12.746,12.745,34.694,7.704,40.333-9.652c8.573,3.704,19.363,2.339,26.844-5.142    c7.247-7.248,8.956-17.966,5.127-26.851c4.698-1.521,9.209-5.007,9.671-5.933c4.42-4.427,6.738-10.157,7.012-15.968    c0.118-0.104,0.238-0.204,0.351-0.317l40.365-40.306c23.363-23.319,6.302-40.334,20.023-54.037    c0.003-0.003,0.006-0.006,0.009-0.009c0.118-0.118,4.037-4.033,7.939-7.933c0.957-0.956,1.792-1.791,2.543-2.542    c3.556,3.556,5.677,5.677,5.779,5.779c5.374,5.376,14.075,5.376,19.451,0l55.373-55.373    C513.341,199.027,513.341,190.301,507.978,184.939z M338.516,364.496c-3.544,3.548-9.261,3.618-12.902,0.23l-75.15-76.178    c-2.91-2.95-7.66-2.981-10.607-0.072c-2.949,2.909-2.981,7.659-0.072,10.607c18.508,18.761,74.084,75.145,83.943,85.004    c3.634,3.634,3.633,9.548,0,13.183c-3.639,3.638-9.539,3.642-13.181-0.001c-13.404-13.404,1.54,1.734-85.043-86.325    c-2.903-2.953-7.653-2.993-10.607-0.09c-2.954,2.904-2.994,7.654-0.09,10.607c0.989,1.006,74.632,75.914,76.141,77.423    c3.642,3.642,3.645,9.538,0,13.182c-3.641,3.642-9.537,3.643-13.181-0.001l-10.209-10.209l-65.27-67.201    c-2.886-2.971-7.634-3.04-10.606-0.154c-2.971,2.886-3.041,7.635-0.154,10.606c56.982,58.668,53.997,55.93,53.997,55.93    c3.627,3.627,3.625,9.532-0.003,13.162c-3.626,3.626-9.529,3.626-13.157-0.002L126.048,307.886    c-9.144-9.126-9.261-16.053-9.411-24.823c-0.144-8.438-0.323-18.939-10.605-29.208l-10.644-10.636l67.325-67.325l4.395,4.463    c0.075,0.08,0.15,0.158,0.229,0.234c27.711,27.23,33.792,9.333,61.808,19.06l6.449,2.527    c-38.901,15.242-36.197,14.07-38.593,15.447c-10.207,5.859-13.978,17.862-10.724,28.344c3.369,10.853,13.818,19.14,29.146,16.637    l30.189-4.082l92.86,92.86C342.097,355.007,342.117,360.888,338.516,364.496z M406.282,253.852    c-10.287,10.272-10.465,20.773-10.609,29.211c-0.149,8.77-0.267,15.696-9.412,24.823l-35.063,35.011l-97.606-97.606    c-1.596-1.597-3.923-2.446-6.309-2.129c-0.16,0.022-34.046,4.602-34.206,4.629c-9.613,1.602-12.065-4.699-12.588-6.668    c-1.074-4.047,0.258-9.305,5.69-11.309c0.047-0.018,0.093-0.035,0.14-0.054l76.837-30.106c11.957-4.147,20.109-3.26,33.331-3.196    c0.038,0,0.075,0,0.113,0c11.278,0,20.558-8.188,28.372-15.866c0.078-0.077,0.154-0.155,0.229-0.235l4.24-4.306    c10.524,10.524,59.772,59.773,67.325,67.325C416.334,243.807,406.698,253.434,406.282,253.852z" data-original="#000000" class="active-path" data-old_color="#41b6e6" fill="#41b6e6"/>
	</g>
</g></g> </svg>
