<?xml version="1.0" encoding="utf-8"?>
<svg xmlns="http://www.w3.org/2000/svg" width="68.62" height="74.121" viewBox="0 0 68.62 74.121"><g transform="translate(-59 -25)"><path d="M77,434.331a3.031,3.031,0,1,0,3.031-3.031A3.039,3.039,0,0,0,77,434.331Zm3.031-1.106a1.106,1.106,0,1,1-1.107,1.106,1.109,1.109,0,0,1,1.107-1.106Z" transform="translate(-15.113 -341.144)" fill="#41b6e6"/><path d="M217.9,25a7.3,7.3,0,0,0-7.3,7.3v3.175a7.3,7.3,0,0,0,14.609,0V32.3A7.327,7.327,0,0,0,217.9,25Zm5.372,10.472a5.38,5.38,0,0,1-10.76,0V32.3a5.38,5.38,0,0,1,10.76,0Z" transform="translate(-127.289 0)" fill="#41b6e6"/><path d="M331.1,56.811v2.774a6.511,6.511,0,0,0,13.022,0V56.811a6.511,6.511,0,0,0-13.022,0Zm11.113,0v2.774a4.586,4.586,0,1,1-9.173,0h0V56.811a4.586,4.586,0,1,1,9.173,0Z" transform="translate(-228.465 -21.243)" fill="#41b6e6"/><path d="M122.9,140.49a1.162,1.162,0,0,0-.994.545,4.42,4.42,0,0,1-6.96-.16.932.932,0,0,0-.8-.385,7.272,7.272,0,0,0-3.544,1.026,8.176,8.176,0,0,0-5.645-2.806,1.2,1.2,0,0,0-.994.577,5.189,5.189,0,0,1-7.3.722,4.853,4.853,0,0,1-.882-.93.932.932,0,0,0-.8-.385,8.024,8.024,0,0,0-5.581,2.438c-.128.128-.241.257-.353.385a7.007,7.007,0,0,0-3.287-1.026,1.162,1.162,0,0,0-.994.545,4.42,4.42,0,0,1-6.96-.16.932.932,0,0,0-.8-.385A7.168,7.168,0,0,0,70,147.674v6.238a.965.965,0,0,0,.962.962H87.111v2.213a.965.965,0,0,0,.962.962h23.542a.965.965,0,0,0,.962-.962h0v-2.213h16.117a.965.965,0,0,0,.962-.962v-6.238A7.2,7.2,0,0,0,122.9,140.49Zm-50.98,12.476V147.69a5.3,5.3,0,0,1,4.7-5.244,6.327,6.327,0,0,0,8.948.561c.192-.176.369-.353.545-.545a5.244,5.244,0,0,1,1.876.657,8.1,8.1,0,0,0-.882,3.672v6.174Zm38.728,3.159H89.035v-9.349a6.211,6.211,0,0,1,5.549-6.142,7.109,7.109,0,0,0,10.023.738,5.863,5.863,0,0,0,.706-.706,6.2,6.2,0,0,1,5.34,6.11Zm17.079-3.159H112.577v-6.174a8.168,8.168,0,0,0-.882-3.688,5.17,5.17,0,0,1,2.053-.674,6.327,6.327,0,0,0,8.948.561c.192-.176.369-.353.545-.545a5.3,5.3,0,0,1,4.506,5.228v5.292Z" transform="translate(-9.236 -95.46)" fill="#41b6e6"/><path d="M106.127,66.1a6.515,6.515,0,0,0,6.511-6.511V56.811a6.519,6.519,0,0,0-13.038,0v2.774A6.529,6.529,0,0,0,106.127,66.1Zm-4.6-9.285a4.586,4.586,0,0,1,9.173,0h0v2.774a4.586,4.586,0,1,1-9.173,0h0Z" transform="translate(-34.089 -21.243)" fill="#41b6e6"/><path d="M127.476,287.535a6.112,6.112,0,0,0-8.163-2.229l-.385.208a5.245,5.245,0,0,0-6.222-1.556.016.016,0,0,0-.016.016l-.9.481a6.83,6.83,0,0,0-7.81-.706l-4.843,2.63H92.709a9.416,9.416,0,0,1-4.025-.914l-.882-.433a15.2,15.2,0,0,0-15.812,1.54c-.016.016-.048.032-.064.048l-2.133,1.908A7.274,7.274,0,0,1,67,290.084l-1.219-3.977a.963.963,0,0,0-.914-.674H59v1.924h5.148l8.018,26.332H59v1.924H73.481a.965.965,0,0,0,.962-.962.749.749,0,0,0-.048-.273l-2.037-6.687,6.35-4.009a3.837,3.837,0,0,1,2.79-.353c.016,0,.032.016.064.016l12.909,2.373a16.7,16.7,0,0,0,10.311-1.459.7.7,0,0,0,.112-.064l22.323-15.331A1.025,1.025,0,0,0,127.476,287.535Zm-13.888-1.876a3.254,3.254,0,0,1,3.592.8l-8.467,4.57-.5.257a7.457,7.457,0,0,0-1.155-2.1Zm-8.676-.241.016-.016a4.849,4.849,0,0,1,4.971.048l-4.3,2.309a7.311,7.311,0,0,0-2.742-1.235Zm-1.058,17.111a14.712,14.712,0,0,1-9.061,1.251l-12.877-2.373a5.765,5.765,0,0,0-4.186.561c-.016.016-.032.016-.048.032l-5.917,3.737L67.547,291.9a9.086,9.086,0,0,0,3.512-1.972l2.1-1.876a13.245,13.245,0,0,1,13.775-1.331l.882.433a11.108,11.108,0,0,0,4.859,1.107h8.58a5.429,5.429,0,0,1,5.324,4.41l-6.222-.289a36.75,36.75,0,0,0-6.767.321.963.963,0,0,0,.257,1.908,34.39,34.39,0,0,1,6.415-.289l7.329.337h.048a.965.965,0,0,0,.962-.962,4.509,4.509,0,0,0-.016-.465l1.01-.529,10.6-5.725a4.171,4.171,0,0,1,5.051.818Z" transform="translate(0 -216.494)" fill="#41b6e6"/></g></svg>