<?xml version="1.0" encoding="utf-8"?>
<svg xmlns="http://www.w3.org/2000/svg" width="66.436" height="66.423" viewBox="0 0 66.436 66.423"><g transform="translate(0 -0.046)"><path d="M305.763,352.051a8.865,8.865,0,0,0-8.78,7.749h-5.611a1.107,1.107,0,0,1-1.107-1.107v-6.642h-2.214v6.642a3.321,3.321,0,0,0,3.321,3.321h5.611a8.856,8.856,0,1,0,8.78-9.963Zm0,15.5a6.642,6.642,0,1,1,6.642-6.642A6.642,6.642,0,0,1,305.763,367.549Zm0,0" transform="translate(-248.191 -303.295)" fill="#41b6e6"/><path d="M8.863,17.759a8.865,8.865,0,0,0,8.779-7.749h5.612a1.107,1.107,0,0,1,1.107,1.107v5.535h2.214V11.117A3.321,3.321,0,0,0,23.255,7.8H17.643a8.856,8.856,0,1,0-8.779,9.963Zm0-15.5A6.642,6.642,0,1,1,2.221,8.9,6.642,6.642,0,0,1,8.863,2.261Zm0,0" transform="translate(0)" fill="#41b6e6"/><path d="M290.265,11.119a1.107,1.107,0,0,1,1.107-1.107h5.611a8.856,8.856,0,1,0,0-2.214h-5.611a3.321,3.321,0,0,0-3.321,3.321v5.535h2.214Zm15.5-8.856A6.642,6.642,0,1,1,299.121,8.9,6.642,6.642,0,0,1,305.763,2.263Zm0,0" transform="translate(-248.191 -0.002)" fill="#41b6e6"/><path d="M24.362,358.691a1.107,1.107,0,0,1-1.107,1.107H17.643a8.856,8.856,0,1,0,0,2.214h5.612a3.321,3.321,0,0,0,3.321-3.321v-6.577H24.362Zm-15.5,8.856a6.642,6.642,0,1,1,6.642-6.642A6.642,6.642,0,0,1,8.863,367.547Zm0,0" transform="translate(0 -303.293)" fill="#41b6e6"/><path d="M170.619,146.1v-16.4a1.107,1.107,0,0,0-.577-.972l-11.117-6.063a3.307,3.307,0,0,0-3.182,0l-11.117,6.063a1.107,1.107,0,0,0-.577.972v16.4a3.32,3.32,0,0,0,1.73,2.916l9.963,5.435a3.309,3.309,0,0,0,3.182,0l9.963-5.435A3.322,3.322,0,0,0,170.619,146.1ZM156.8,124.614a1.106,1.106,0,0,1,1.061,0l9.336,5.092-9.336,5.092a1.109,1.109,0,0,1-1.061,0l-9.336-5.092Zm-9.963,22.462a1.107,1.107,0,0,1-.577-.972V131.571l9.479,5.171a3.233,3.233,0,0,0,.484.19V152.2Zm20.987,0-9.386,5.121V136.932a3.257,3.257,0,0,0,.484-.19l9.479-5.171V146.1A1.107,1.107,0,0,1,167.829,147.076Zm0,0" transform="translate(-124.117 -105.306)" fill="#41b6e6"/><path d="M49.158,48.051h2.214a1.107,1.107,0,0,1,1.107,1.107v2.214a1.107,1.107,0,0,1-1.107,1.107H49.158a1.107,1.107,0,0,1-1.107-1.107V49.158A1.107,1.107,0,0,1,49.158,48.051Zm0,0" transform="translate(-41.402 -41.362)" fill="#41b6e6"/><path d="M49.158,400.051h2.214a1.107,1.107,0,0,1,1.107,1.107v2.214a1.107,1.107,0,0,1-1.107,1.107H49.158a1.107,1.107,0,0,1-1.107-1.107v-2.214A1.107,1.107,0,0,1,49.158,400.051Zm0,0" transform="translate(-41.402 -344.653)" fill="#41b6e6"/><path d="M401.158,400.051h2.214a1.107,1.107,0,0,1,1.107,1.107v2.214a1.107,1.107,0,0,1-1.107,1.107h-2.214a1.107,1.107,0,0,1-1.107-1.107v-2.214A1.107,1.107,0,0,1,401.158,400.051Zm0,0" transform="translate(-344.692 -344.653)" fill="#41b6e6"/><path d="M401.158,48.051h2.214a1.107,1.107,0,0,1,1.107,1.107v2.214a1.107,1.107,0,0,1-1.107,1.107h-2.214a1.107,1.107,0,0,1-1.107-1.107V49.158A1.107,1.107,0,0,1,401.158,48.051Zm0,0" transform="translate(-344.692 -41.362)" fill="#41b6e6"/></g></svg>