<svg xmlns="http://www.w3.org/2000/svg" width="73" height="73" viewBox="0 0 73 73">
  <g id="Group_419" data-name="Group 419" transform="translate(-331 -5855)">
    <circle id="Ellipse_39" data-name="Ellipse 39" cx="36.5" cy="36.5" r="36.5" transform="translate(331 5855)" fill="#004b87"/>
    <g id="check" transform="translate(344.589 5873.643)">
      <path id="Path_607" data-name="Path 607" d="M19.77,39.133a2.341,2.341,0,0,1-3.311,0L3.237,25.909a3.511,3.511,0,0,1,0-4.967l1.656-1.656a3.511,3.511,0,0,1,4.967,0l8.255,8.255L40.42,5.236a3.511,3.511,0,0,1,4.967,0l1.656,1.656a3.511,3.511,0,0,1,0,4.967Z" transform="translate(-2.207 -4.207)" fill="#ff9015"/>
    </g>
  </g>
</svg>
