<svg xmlns="http://www.w3.org/2000/svg" width="94.801" height="81.658" viewBox="0 0 94.801 81.658">
  <g id="paper-plane" transform="translate(0 -33.985)">
    <path id="Path_358" data-name="Path 358" d="M.008,74.825A4.593,4.593,0,0,0,3.3,78.982l34.728,10.5L39.3,113.42a2.374,2.374,0,0,0,1.6,2.088,2.175,2.175,0,0,0,.773.135,2.35,2.35,0,0,0,1.779-.793l12.278-13.593,17.4,12.046a4.565,4.565,0,0,0,2.63.831,4.668,4.668,0,0,0,4.544-3.713L94.755,36.81a2.363,2.363,0,0,0-3.21-2.649L2.793,70.281A4.666,4.666,0,0,0,.008,74.825Zm43.7,32.659-.793-15.1,8.895,6.149Zm31.982,1.837L44.017,87.393,88.432,44.429Zm7.87-66.787L39.647,85.015,4.958,74.535Z" transform="translate(0 0)" fill="#fff"/>
  </g>
</svg>
