<svg xmlns="http://www.w3.org/2000/svg" width="89.345" height="89.34" viewBox="0 0 89.345 89.34">
  <g id="package_1_" data-name="package (1)" transform="translate(0 -0.015)">
    <g id="Group_120" data-name="Group 120" transform="translate(0 0.015)">
      <path id="Path_355" data-name="Path 355" d="M85.946,20.656,46.493.665,46.477.657A6.168,6.168,0,0,0,40.892.71L23.971,9.69a2.634,2.634,0,0,0-.4.21L3.3,20.662A6.131,6.131,0,0,0,0,26.111V63.259a6.131,6.131,0,0,0,3.3,5.448L40.875,88.651l.017.009a6.167,6.167,0,0,0,5.584.052l39.469-20a6.115,6.115,0,0,0,3.4-5.5V26.156A6.115,6.115,0,0,0,85.946,20.656ZM43.318,5.347a.918.918,0,0,1,.821-.007l36.93,18.712L66.7,31.207,30.591,12.1ZM41.082,82.836,5.743,64.08l-.017-.009a.914.914,0,0,1-.493-.812V28.472L41.082,47.165Zm2.644-40.194L8.075,24.052l16.931-8.986L60.931,34.077ZM84.111,63.213a.911.911,0,0,1-.508.821L46.315,82.927V47.2l17.168-8.547v8.962a2.617,2.617,0,0,0,5.233,0V36.046l15.394-7.664Z" transform="translate(0 -0.015)" fill="#fff"/>
    </g>
  </g>
</svg>
