<svg xmlns="http://www.w3.org/2000/svg" width="70.959" height="89.494" viewBox="0 0 70.959 89.494">
  <g id="shopping-bag" transform="translate(-53.02)">
    <g id="Group_124" data-name="Group 124" transform="translate(53.02)">
      <g id="Group_123" data-name="Group 123" transform="translate(0)">
        <path id="Path_359" data-name="Path 359" d="M123.937,73.8l-4-50.361a6.294,6.294,0,0,0-6.247-5.786H105.8V17.3a17.3,17.3,0,0,0-34.6,0v.355H63.307a6.292,6.292,0,0,0-6.246,5.779l-4,50.375A14.572,14.572,0,0,0,67.592,89.494h41.816A14.572,14.572,0,0,0,123.937,73.8ZM76.443,17.3a12.057,12.057,0,0,1,24.114,0v.355H76.443Zm39.81,63.963a9.234,9.234,0,0,1-6.845,2.99H67.592a9.33,9.33,0,0,1-9.3-10.037l4-50.375a1.028,1.028,0,0,1,1.02-.945H71.2v6.456a2.621,2.621,0,1,0,5.242,0V22.9h24.114v6.456a2.621,2.621,0,1,0,5.242,0V22.9h7.894a1.03,1.03,0,0,1,1.021.952l4,50.361A9.234,9.234,0,0,1,116.253,81.263Z" transform="translate(-53.02)" fill="#fff"/>
      </g>
    </g>
    <g id="Group_126" data-name="Group 126" transform="translate(75.924 43.68)">
      <g id="Group_125" data-name="Group 125" transform="translate(0)">
        <path id="Path_360" data-name="Path 360" d="M208.436,250.661a2.621,2.621,0,0,0-3.706,0l-11.7,11.7-4.5-4.5a2.621,2.621,0,1,0-3.707,3.707l6.354,6.354a2.62,2.62,0,0,0,3.706,0l13.557-13.557A2.621,2.621,0,0,0,208.436,250.661Z" transform="translate(-184.052 -249.893)" fill="#fff"/>
      </g>
    </g>
  </g>
</svg>
