<svg xmlns="http://www.w3.org/2000/svg" width="86.038" height="86.98" viewBox="0 0 86.038 86.98">
  <path id="target" d="M85.871,11.612A2.952,2.952,0,0,0,83.41,9.619L77.235,8.9l-.713-6.242A2.969,2.969,0,0,0,74.552.169,2.921,2.921,0,0,0,71.478.88L59.272,13.22a3,3,0,0,0-.849,2.464l.883,7.736L56.587,26.17a34.014,34.014,0,0,0-46.574,1.737,34.922,34.922,0,0,0,0,48.951,34.015,34.015,0,0,0,48.421,0,34.937,34.937,0,0,0,1.718-47.083l2.72-2.749,7.653.893a2.93,2.93,0,0,0,2.437-.859l12.206-12.34A3,3,0,0,0,85.871,11.612Zm-31,61.641a29.006,29.006,0,0,1-41.29,0,29.78,29.78,0,0,1,0-41.743A29.006,29.006,0,0,1,53.01,29.786L48.4,34.446a22.56,22.56,0,0,0-30.233,1.7,23.161,23.161,0,0,0,0,32.466,22.56,22.56,0,0,0,32.114,0A23.177,23.177,0,0,0,51.965,38.05l4.61-4.661A29.8,29.8,0,0,1,54.868,73.254ZM32.892,53.728a2.5,2.5,0,0,0,3.566,0l3.352-3.389a6.05,6.05,0,0,1-1.384,6.274,5.891,5.891,0,0,1-8.386,0,6.048,6.048,0,0,1,0-8.478,5.89,5.89,0,0,1,6.205-1.4l-3.352,3.389A2.568,2.568,0,0,0,32.892,53.728ZM40,42.937a10.9,10.9,0,0,0-13.528,1.593,11.192,11.192,0,0,0,0,15.687,10.9,10.9,0,0,0,15.517,0,11.2,11.2,0,0,0,1.576-13.676l4.805-4.858a18.034,18.034,0,0,1-1.656,23.327,17.551,17.551,0,0,1-24.983,0,18.019,18.019,0,0,1,0-25.257A17.55,17.55,0,0,1,44.805,38.08Zm30.1-20.2-5.88-.686-.679-5.944,8.459-8.552.427,3.734a2.78,2.78,0,0,0,2.438,2.465l3.694.431Zm0,0" transform="translate(-0.001 0.001)" fill="#fff"/>
</svg>
