<svg xmlns="http://www.w3.org/2000/svg" width="70.033" height="86.98" viewBox="0 0 70.033 86.98">
  <g id="parachute" transform="translate(-49.88)">
    <g id="Group_122" data-name="Group 122" transform="translate(49.88)">
      <g id="Group_121" data-name="Group 121" transform="translate(0)">
        <path id="Path_356" data-name="Path 356" d="M119.791,29.091A35.475,35.475,0,0,0,84.947,0H84.8A35.475,35.475,0,0,0,50,29.091a7.594,7.594,0,0,0,7.489,8.923h.274L71.98,61.133a6.512,6.512,0,0,0-3.456,5.745v13.6a6.514,6.514,0,0,0,6.506,6.506H94.763a6.514,6.514,0,0,0,6.506-6.506v-13.6a6.514,6.514,0,0,0-3.8-5.915l14.11-22.949h.723a7.593,7.593,0,0,0,7.489-8.923ZM87.445,6.542c6.839,4.467,11.09,15.651,12.162,26.377H87.445Zm-5.1.037v26.34H70.142C71.39,19.676,76.688,10.4,82.349,6.579ZM57.491,32.919a2.521,2.521,0,0,1-1.94-.908A2.423,2.423,0,0,1,55.016,30,30.312,30.312,0,0,1,74.523,6.913a33.43,33.43,0,0,0-3.546,5.208,52.345,52.345,0,0,0-5.953,20.8H57.491ZM96.173,80.474a1.412,1.412,0,0,1-1.411,1.411H75.031a1.412,1.412,0,0,1-1.411-1.411v-13.6a1.412,1.412,0,0,1,1.411-1.411H94.762a1.412,1.412,0,0,1,1.411,1.411Zm-4.323-20.1H77.494L63.747,38.015H105.6ZM114.242,32.01a2.521,2.521,0,0,1-1.94.908h-7.57a52.354,52.354,0,0,0-5.953-20.8,33.41,33.41,0,0,0-3.561-5.227A30.313,30.313,0,0,1,114.777,30,2.423,2.423,0,0,1,114.242,32.01Z" transform="translate(-49.88)" fill="#fff"/>
        <path id="Path_357" data-name="Path 357" d="M200.981,385.364h0Z" transform="translate(-175.311 -319.897)" fill="#fff"/>
      </g>
    </g>
  </g>
</svg>
