<svg id="Group_163" data-name="Group 163" xmlns="http://www.w3.org/2000/svg" width="71.768" height="71.768" viewBox="0 0 71.768 71.768">
  <path id="Path_338" data-name="Path 338" d="M67.087,116.048H4.681A4.68,4.68,0,0,0,0,120.728v62.407a4.68,4.68,0,0,0,4.681,4.681H67.087a4.68,4.68,0,0,0,4.68-4.681V120.728A4.68,4.68,0,0,0,67.087,116.048Zm2.124,69.211H2.557V118.6H69.211Z" transform="translate(0 -116.048)" fill="#004b87"/>
  <path id="Path_339" data-name="Path 339" d="M44.263,154.986a.418.418,0,0,0,.713-.295v-2.283h24.57v2.283a.417.417,0,0,0,.713.295l3.686-3.686a.418.418,0,0,0,0-.591l-3.686-3.686a.417.417,0,0,0-.713.295V149.6H44.976v-2.284a.418.418,0,0,0-.713-.295l-3.686,3.686a.418.418,0,0,0,0,.591Z" transform="translate(-32.709 -140.993)" fill="#41b6e6"/>
  <path id="Path_340" data-name="Path 340" d="M310.98,308.7a.418.418,0,0,0-.295-.713H308.4v-24.57h2.283a.417.417,0,0,0,.295-.713l-3.686-3.686a.418.418,0,0,0-.591,0l-3.686,3.686a.417.417,0,0,0,.295.713H305.6v24.57h-2.284a.418.418,0,0,0-.295.713l3.686,3.686a.418.418,0,0,0,.591,0Z" transform="translate(-244.898 -247.716)" fill="#41b6e6"/>
  <path id="Path_341" data-name="Path 341" d="M59.506,230.209a.866.866,0,0,0,.646-1.463l-3.271-3.421,36.814-35.2,3.271,3.421a.866.866,0,0,0,1.49-.579l.242-10.8a.866.866,0,0,0-.847-.885l-10.8-.242A.865.865,0,0,0,86.4,182.5l3.272,3.421-36.814,35.2L49.588,217.7a.865.865,0,0,0-1.49.58l-.242,10.8a.866.866,0,0,0,.846.885Z" transform="translate(-38.693 -168.592)" fill="#41b6e6"/>
</svg>
