<svg id="Group_85" data-name="Group 85" xmlns="http://www.w3.org/2000/svg" xmlns:xlink="http://www.w3.org/1999/xlink" width="77.061" height="77.061" viewBox="0 0 77.061 77.061">
  <defs>
    <clipPath id="clip-path">
      <path id="Path_320" data-name="Path 320" d="M0-480H77.061v77.061H0Z" transform="translate(0 480)" fill="none"/>
    </clipPath>
  </defs>
  <g id="Group_84" data-name="Group 84" transform="translate(0 0)" clip-path="url(#clip-path)">
    <g id="Group_76" data-name="Group 76" transform="translate(29.54)">
      <path id="Path_309" data-name="Path 309" d="M-47.01-80.588a6.42,6.42,0,0,1-6.422-6.422,6.42,6.42,0,0,1,6.422-6.422,6.42,6.42,0,0,1,6.422,6.422,6.42,6.42,0,0,1-6.422,6.422m0-15.412A9,9,0,0,0-56-87.01a9,9,0,0,0,8.99,8.99,9,9,0,0,0,8.99-8.99A9,9,0,0,0-47.01-96" transform="translate(56 96)" fill="#41b6e6"/>
    </g>
    <g id="Group_77" data-name="Group 77" transform="translate(23.118 19.265)">
      <path id="Path_310" data-name="Path 310" d="M-100.735,0h-7.706A11.559,11.559,0,0,0-120,11.559V31.17a2.223,2.223,0,0,0,2.223,2.223h2.914V57.8h2.569V28.256h-2.569v2.569h-2.569V11.559a8.99,8.99,0,0,1,8.99-8.99h7.706a8.99,8.99,0,0,1,8.99,8.99V30.824h-2.569V28.256h-2.569V57.8h2.569v-24.4h3.018a2.119,2.119,0,0,0,2.119-2.119V11.559A11.559,11.559,0,0,0-100.735,0" transform="translate(120)" fill="#41b6e6"/>
    </g>
    <path id="Path_311" data-name="Path 311" d="M232-152h2.569v24.4H232Z" transform="translate(-194.754 204.658)" fill="#41b6e6"/>
    <g id="Group_78" data-name="Group 78" transform="translate(56.511 12.843)">
      <path id="Path_312" data-name="Path 312" d="M-40.294-67.157a5.132,5.132,0,0,1-5.137-5.137,5.132,5.132,0,0,1,5.137-5.137,5.132,5.132,0,0,1,5.137,5.137,5.132,5.132,0,0,1-5.137,5.137m0-12.843A7.708,7.708,0,0,0-48-72.294a7.708,7.708,0,0,0,7.706,7.706,7.708,7.708,0,0,0,7.706-7.706A7.708,7.708,0,0,0-40.294-80" transform="translate(48 80)" fill="#004a86"/>
    </g>
    <g id="Group_79" data-name="Group 79" transform="translate(56.511 29.54)">
      <path id="Path_313" data-name="Path 313" d="M-60.441,0H-72V2.569h11.559A6.422,6.422,0,0,1-54.019,8.99v16.7h-2.569V23.118h-2.569v24.4h2.569V28.256h2.942a2.2,2.2,0,0,0,2.2-2.2V8.99A8.99,8.99,0,0,0-60.441,0" transform="translate(72)" fill="#004a86"/>
    </g>
    <g id="Group_80" data-name="Group 80" transform="translate(51.374 52.658)">
      <path id="Path_314" data-name="Path 314" d="M-26.863,0V2.569H-32V3.591a1.546,1.546,0,0,0,1.546,1.546h3.591V24.4h2.569V0Z" transform="translate(32)" fill="#004a86"/>
    </g>
    <path id="Path_315" data-name="Path 315" d="M392-120h2.569v19.265H392Z" transform="translate(-329.067 177.796)" fill="#004a86"/>
    <g id="Group_81" data-name="Group 81" transform="translate(5.137 12.843)">
      <path id="Path_316" data-name="Path 316" d="M-40.294-67.157a5.132,5.132,0,0,1-5.137-5.137,5.132,5.132,0,0,1,5.137-5.137,5.132,5.132,0,0,1,5.137,5.137,5.132,5.132,0,0,1-5.137,5.137m0-12.843A7.708,7.708,0,0,0-48-72.294a7.708,7.708,0,0,0,7.706,7.706,7.708,7.708,0,0,0,7.706-7.706A7.708,7.708,0,0,0-40.294-80" transform="translate(48 80)" fill="#004a86"/>
    </g>
    <g id="Group_82" data-name="Group 82" transform="translate(0 29.54)">
      <path id="Path_317" data-name="Path 317" d="M-47.01,0A8.99,8.99,0,0,0-56,8.99V26.4a1.856,1.856,0,0,0,1.856,1.856h3.282V47.521h2.569v-24.4h-2.569v2.569h-2.569V8.99A6.422,6.422,0,0,1-47.01,2.569H-35.45V0Z" transform="translate(56)" fill="#004a86"/>
    </g>
    <g id="Group_83" data-name="Group 83" transform="translate(17.981 52.658)">
      <path id="Path_318" data-name="Path 318" d="M-13.431-13.431V-16H-16V8.4h2.569V-10.863h3.483a1.654,1.654,0,0,0,1.654-1.654v-.915Z" transform="translate(16 16)" fill="#004a86"/>
    </g>
    <path id="Path_319" data-name="Path 319" d="M72-120h2.569v19.265H72Z" transform="translate(-60.441 177.796)" fill="#004a86"/>
  </g>
</svg>
