<svg xmlns="http://www.w3.org/2000/svg" width="29.1" height="29.1" viewBox="0 0 29.1 29.1">
  <g id="Group_319" data-name="Group 319" transform="translate(-610.935 -3554.042)">
    <circle id="Ellipse_30" data-name="Ellipse 30" cx="14.55" cy="14.55" r="14.55" transform="translate(610.935 3554.042)"/>
    <g id="Group_66" data-name="Group 66" transform="translate(615.841 3560.545)">
      <path id="Path_300" data-name="Path 300" d="M42.186,503.514c.059-.094.152-.1.28-.018A18.682,18.682,0,0,0,52,506.038a18.891,18.891,0,0,0,6.786-1.279l.254-.1c.111-.047.189-.083.236-.1a.31.31,0,0,1,.412.1q.149.209-.1.385c-.211.152-.479.327-.807.526a13.178,13.178,0,0,1-3.367,1.384,14.132,14.132,0,0,1-13.168-3.155.24.24,0,0,1-.1-.175A.183.183,0,0,1,42.186,503.514Zm15.658.3a.578.578,0,0,1,.106-.139,2.739,2.739,0,0,1,.841-.4,5.717,5.717,0,0,1,1.3-.193,1.06,1.06,0,0,1,.333.018c.526.047.841.134.948.263a.587.587,0,0,1,.069.316v.123a3.99,3.99,0,0,1-.333,1.446,3.372,3.372,0,0,1-.93,1.341.262.262,0,0,1-.157.07.167.167,0,0,1-.07-.018c-.069-.036-.087-.1-.052-.193a6.7,6.7,0,0,0,.649-2.121.451.451,0,0,0-.07-.282q-.174-.209-.982-.21c-.2,0-.432.012-.7.036-.293.035-.561.069-.807.105a.2.2,0,0,1-.141-.036.056.056,0,0,1-.017-.069A.142.142,0,0,1,57.843,503.811Z" transform="translate(-42.151 -490.76)" fill="#ff9a01"/>
      <path id="Path_301" data-name="Path 301" d="M45.546,502.768a3.535,3.535,0,0,1,.6-2.069,3.665,3.665,0,0,1,1.63-1.3,8.774,8.774,0,0,1,2.332-.579c.316-.036.83-.081,1.543-.141v-.3a3.112,3.112,0,0,0-.246-1.508,1.312,1.312,0,0,0-1.156-.526H50.1a1.917,1.917,0,0,0-1,.369,1.437,1.437,0,0,0-.544.876.443.443,0,0,1-.351.4l-2.016-.245c-.2-.047-.3-.152-.3-.316a.488.488,0,0,1,.018-.123A3.363,3.363,0,0,1,47.378,495a5.492,5.492,0,0,1,2.727-.841h.438a4.429,4.429,0,0,1,3.122,1.035,3.347,3.347,0,0,1,.323.376,3.539,3.539,0,0,1,.238.361,1.861,1.861,0,0,1,.157.456c.047.2.082.336.1.412a2.438,2.438,0,0,1,.052.49c.012.251.018.4.018.448v4.242a2.532,2.532,0,0,0,.131.833,2.23,2.23,0,0,0,.254.544c.082.111.217.289.4.535a.522.522,0,0,1,.1.28.306.306,0,0,1-.14.246q-1.457,1.262-1.579,1.368a.489.489,0,0,1-.508.035c-.163-.141-.307-.275-.43-.4s-.21-.222-.262-.28a3.97,3.97,0,0,1-.254-.343c-.117-.169-.2-.283-.246-.341a4.31,4.31,0,0,1-1.929,1.333,5.331,5.331,0,0,1-1.473.174,3.072,3.072,0,0,1-2.219-.832A3.119,3.119,0,0,1,45.546,502.768Z" transform="translate(-40.856 -494.159)" fill="#fff"/>
      <path id="Path_302" data-name="Path 302" d="M48.015,500.713a1.661,1.661,0,0,0,.341,1.1,1.134,1.134,0,0,0,.921.412.932.932,0,0,0,.148-.017.836.836,0,0,1,.133-.018,1.785,1.785,0,0,0,1.14-.948,2.708,2.708,0,0,0,.289-.727,3.264,3.264,0,0,0,.1-.641c.006-.163.01-.432.01-.805v-.439a6.359,6.359,0,0,0-1.543.141A1.879,1.879,0,0,0,48.015,500.713Z" transform="translate(-39.914 -492.455)"/>
    </g>
  </g>
</svg>
