<svg xmlns="http://www.w3.org/2000/svg" xmlns:xlink="http://www.w3.org/1999/xlink" width="315" height="212" viewBox="0 0 315 212">
  <defs>
    <clipPath id="clip-path">
      <rect id="Rectangle_59" data-name="Rectangle 59" width="315" height="209" rx="20" fill="#41b6e6"/>
    </clipPath>
    <clipPath id="clip-path-2">
      <rect id="Rectangle_177" data-name="Rectangle 177" width="447.648" height="251.003" fill="none"/>
    </clipPath>
    <linearGradient id="linear-gradient" x1="0.591" y1="0.685" x2="0.252" y2="0.222" gradientUnits="objectBoundingBox">
      <stop offset="0" stop-color="#fff"/>
      <stop offset="1"/>
    </linearGradient>
    <linearGradient id="linear-gradient-2" x1="0.577" y1="0.772" x2="0.285" y2="0.039" gradientUnits="objectBoundingBox">
      <stop offset="0.65" stop-color="#fff"/>
      <stop offset="1"/>
    </linearGradient>
    <linearGradient id="linear-gradient-3" x1="0.997" y1="0.907" x2="0.023" y2="0.196" xlink:href="#linear-gradient-2"/>
    <linearGradient id="linear-gradient-4" x1="2.104" y1="1.817" x2="0.135" y2="0.364" xlink:href="#linear-gradient-2"/>
    <linearGradient id="linear-gradient-5" x1="2.367" y1="2.404" x2="0.035" y2="0.07" xlink:href="#linear-gradient-2"/>
    <linearGradient id="linear-gradient-6" x1="2.824" y1="1.321" x2="-0.155" y2="0.294" xlink:href="#linear-gradient-2"/>
    <linearGradient id="linear-gradient-7" y1="0.5" x2="1" y2="0.5" gradientUnits="objectBoundingBox">
      <stop offset="0" stop-color="#fff"/>
      <stop offset="1" stop-color="#fff"/>
    </linearGradient>
    <linearGradient id="linear-gradient-8" x1="0.679" y1="0.619" x2="-0.113" y2="0.448" xlink:href="#linear-gradient-7"/>
    <clipPath id="clip-path-3">
      <path id="Path_945" data-name="Path 945" d="M0,0,30.256.032l.037,35.582L.037,35.582Z" transform="translate(0 10.606) rotate(-20.58)" fill="none"/>
    </clipPath>
    <linearGradient id="linear-gradient-9" x1="0.791" y1="0.734" x2="0.255" y2="0.287" xlink:href="#linear-gradient"/>
    <linearGradient id="linear-gradient-10" x1="0.782" y1="0.79" x2="0.471" y2="0.448" xlink:href="#linear-gradient"/>
    <linearGradient id="linear-gradient-11" x1="2.64" y1="1.968" x2="-0.084" y2="0.286" gradientUnits="objectBoundingBox">
      <stop offset="0.84" stop-color="#fff"/>
      <stop offset="1"/>
    </linearGradient>
  </defs>
  <g id="Group_157" data-name="Group 157" transform="translate(-0.211 -0.027)">
    <rect id="Rectangle_178" data-name="Rectangle 178" width="315" height="212" rx="20" transform="translate(0.211 0.028)" fill="#41b6e6"/>
    <g id="Mask_Group_7" data-name="Mask Group 7" transform="translate(0.211 3.028)" clip-path="url(#clip-path)">
      <g id="Artboard_2" data-name="Artboard 2" transform="translate(-72.826 -41.186)" style="isolation: isolate">
        <g id="Livello_2" data-name="Livello 2">
          <g id="Group_143" data-name="Group 143" clip-path="url(#clip-path-2)">
            <path id="Path_398" data-name="Path 398" d="M130.637,187.992,271.963,332l155.9-59.575L256.985,100.506Z" transform="translate(29.58 22.366)" opacity="0.15" fill="url(#linear-gradient)" style="mix-blend-mode: multiply;isolation: isolate"/>
            <path id="Path_399" data-name="Path 399" d="M245.612,124,386.938,268l141.908,1.223L357.971,97.312Z" transform="translate(55.614 21.656)" opacity="0.15" fill="url(#linear-gradient-2)" style="mix-blend-mode: multiply;isolation: isolate"/>
            <path id="Path_400" data-name="Path 400" d="M317.015,190.212l141.326,144,101.34-19.136L388.806,143.165Z" transform="translate(71.782 31.86)" opacity="0.15" fill="url(#linear-gradient-3)" style="mix-blend-mode: multiply;isolation: isolate"/>
            <path id="Path_401" data-name="Path 401" d="M388.787,146.932l-5.189-2.164.175-.42-4.186-1.744-.175.42-33.2-13.852a1.4,1.4,0,0,0-1.828.744L317.57,193.83a1.393,1.393,0,0,0,.746,1.822l33.2,13.848-.175.42,4.182,1.744.175-.417,5.189,2.16a3.951,3.951,0,0,0,5.167-2.108l24.856-59.218a3.933,3.933,0,0,0-2.123-5.15Z" transform="translate(71.884 28.722)" fill="#231f20" opacity="0.25" style="mix-blend-mode: multiply;isolation: isolate"/>
            <path id="Path_402" data-name="Path 402" d="M387.65,145.335l-42.586-17.76a1.4,1.4,0,0,0-1.828.744l-26.822,63.911a1.393,1.393,0,0,0,.746,1.822l42.579,17.756a3.951,3.951,0,0,0,5.167-2.108l24.863-59.2a3.933,3.933,0,0,0-2.119-5.161Z" transform="translate(71.622 28.367)" fill="#004c57"/>
            <path id="Path_403" data-name="Path 403" d="M387.65,145.335l-42.586-17.76a1.4,1.4,0,0,0-1.828.744l-26.822,63.911a1.393,1.393,0,0,0,.746,1.822L389.769,150.5a3.933,3.933,0,0,0-2.119-5.161Z" transform="translate(71.622 28.367)" fill="#145a64"/>
            <path id="Path_905" data-name="Path 905" d="M0,0,73,.083l.005,4.534-73-.083Z" transform="matrix(0.386, -0.923, 0.923, 0.386, 421.798, 236.66)" fill="#231f20"/>
            <path id="Path_906" data-name="Path 906" d="M0,0,71.713.081l0,1.726L0,1.726Z" transform="matrix(0.386, -0.923, 0.923, 0.386, 390.38, 222.858)" fill="#231f20" opacity="0.15"/>
            <path id="Path_404" data-name="Path 404" d="M360.647,149.871a.071.071,0,0,0,.034,0l-2.54,3.373s-.19.822-.5.591.4-.666.4-.666l2.537-3.373a.029.029,0,0,0,.022.026l.41-.547c-.06-.048-.168,0-.235.082l-.164.219a.229.229,0,0,0-.052.16,7.227,7.227,0,0,1-3.7,1.748,25.3,25.3,0,0,1-2.141,3.83h0a.374.374,0,0,0-.533.1l-2.861,3.808-.272-.16a.161.161,0,0,0-.224.041l-18.279,23.553a1.027,1.027,0,0,0-.828.42l-.563.766h0l-.627.878-8.386,11.427c-.224.294-.433.595-.634.9l-.254-.19,6.006-8.486a.515.515,0,0,0,.3-.216l1.328-2.075a.5.5,0,0,0-.832-.558L319.829,197.1a.49.49,0,0,0,.1.684h0a.5.5,0,0,0,.7-.115l.254-.372.276.2c-1.843,2.975-2.66,6.02-1.518,6.872,1.321.989,4.775-1.376,7.267-4.693l8.845-11.5.466-.588h0l.578-.744a1.024,1.024,0,0,0,.172-.911l17.533-24.1a.167.167,0,0,0-.022-.231l-.231-.212,2.861-3.808a.371.371,0,0,0-.052-.539h0a25.42,25.42,0,0,1,3.066-3.12,7.291,7.291,0,0,1,.623-4.042.243.243,0,0,0,.138-.1l.164-.219c.071-.093.075-.2,0-.245Z" transform="translate(72.259 33.216)" fill="#231f20" opacity="0.25" style="mix-blend-mode: multiply;isolation: isolate"/>
            <path id="Path_405" data-name="Path 405" d="M319.3,203.268l27.489,28.012a202.969,202.969,0,0,1,25.841-7.314c10.516-2.276,21.144-3.986,31.764-5.7,7.088-1.145,14.142-2.391,21.207-3.6l-65.845-66.25Z" transform="translate(72.299 33.027)" opacity="0.1" fill="url(#linear-gradient-4)" style="mix-blend-mode: multiply;isolation: isolate"/>
            <path id="Path_406" data-name="Path 406" d="M256.108,172.923l57.2,57.638c8.423-3.038,57.254-2.387,64.323-3.6L311.777,160.7Z" transform="translate(57.991 35.763)" opacity="0.1" fill="url(#linear-gradient-5)" style="mix-blend-mode: multiply;isolation: isolate"/>
            <path id="Path_407" data-name="Path 407" d="M93.452,160.612l57.2,57.638c8.423-3.064,11.37-58.753,18.439-59.962l-65.849-66.25Z" transform="translate(21.161 20.482)" opacity="0.1" fill="url(#linear-gradient-6)" style="mix-blend-mode: multiply;isolation: isolate"/>
            <path id="Path_408" data-name="Path 408" d="M327.732,177.923a.5.5,0,0,0-.686.123l-8.237,11.583a.49.49,0,0,0,.1.684h0a.5.5,0,0,0,.7-.115l6.625-9.3a.514.514,0,0,0,.3-.216l1.328-2.075A.5.5,0,0,0,327.732,177.923Z" transform="translate(72.167 39.576)" fill="#f7c2af"/>
            <path id="Path_409" data-name="Path 409" d="M350.831,152.277s-.19.822-.5.591.4-.666.4-.666l2.667-3.548a7.3,7.3,0,0,1-3.846,1.859,34.882,34.882,0,0,1-3.1,5.225l1.119.822,1.1.818a34.938,34.938,0,0,1,4.159-4.436,7.175,7.175,0,0,1,.694-4.217Z" transform="translate(78.448 33.082)" fill="#f7c2af"/>
            <path id="Path_410" data-name="Path 410" d="M352.213,148.451l-.164.219c-.067.089-.075.2,0,.245l.41-.547A.205.205,0,0,0,352.213,148.451Z" transform="translate(79.703 33.014)" fill="#f7c2af"/>
            <path id="Path_411" data-name="Path 411" d="M352.067,148.947c.06.048.164,0,.231-.082l.164-.219c.071-.093.075-.2,0-.245Z" transform="translate(79.719 33.025)" fill="#f7c2af"/>
            <path id="Path_412" data-name="Path 412" d="M349.606,157.512c-.433-.324-1.828-1.153-1.828-1.153a.161.161,0,0,0-.224.041L328.6,180.835a.163.163,0,0,0,.026.231l4.2,3.135a.164.164,0,0,0,.228-.041l18.182-25a.167.167,0,0,0-.022-.231S350.039,157.832,349.606,157.512Z" transform="translate(74.398 34.79)" fill="#231f20"/>
            <path id="Path_413" data-name="Path 413" d="M335.75,178.52l-3.611-2.7a.961.961,0,0,0-1.335.249l-9.587,13.063c-2.5,3.321-3.8,7.288-2.477,8.274s4.775-1.376,7.267-4.693l9.882-12.848A.957.957,0,0,0,335.75,178.52Z" transform="translate(72.054 39.09)" fill="#231f20"/>
            <path id="Path_414" data-name="Path 414" d="M349.54,154.022a7.926,7.926,0,0,0-1.3-.721.374.374,0,0,0-.533.1l-4.95,6.586a.371.371,0,0,0,.056.539l2.358,1.763a.374.374,0,0,0,.537-.1l4.954-6.586a.371.371,0,0,0-.052-.539,7.491,7.491,0,0,0-1.067-1.041Z" transform="translate(77.59 34.1)" fill="#231f20"/>
            <path id="Path_415" data-name="Path 415" d="M319.4,187.558l5.26,3.931.4-.454-5.331-3.979Z" transform="translate(72.322 41.627)" fill="#f7c2af"/>
            <path id="Path_416" data-name="Path 416" d="M327.347,177.752l5.032,3.759.869-1.093-5.088-3.8Z" transform="translate(74.122 39.304)" fill="#f7c2af"/>
            <path id="Path_417" data-name="Path 417" d="M342.592,158.36l3.768,2.811.354-.483-3.753-2.8Z" transform="translate(77.574 35.135)" fill="#f7c2af"/>
            <g id="Group_133" data-name="Group 133" transform="translate(405.923 192.24)" opacity="0.2">
              <path id="Path_418" data-name="Path 418" d="M349.523,157.65a6.355,6.355,0,0,0-.817-.4c-.03-.022-.1.022-.153.1l-17.574,23.085a5.861,5.861,0,0,1,.53.346l.037.03c.157.1.313.193.463.3a8.746,8.746,0,0,1,.8.68l17.276-23.3c.06-.074.082-.152.052-.175A6.79,6.79,0,0,0,349.523,157.65Z" transform="translate(-330.979 -157.246)" fill="#fff"/>
            </g>
            <g id="Group_134" data-name="Group 134" transform="translate(391.598 215.951)" opacity="0.2">
              <path id="Path_419" data-name="Path 419" d="M333.333,176.679c-.179-.134-.586.1-.907.528l-9.356,12.587c-2.414,3.213-4.245,6.63-3.663,7.065s3.357-2.279,5.767-5.492l9.486-12.491c.321-.424.433-.878.254-1.011Z" transform="translate(-319.299 -176.642)" fill="#fff"/>
            </g>
            <g id="Group_135" data-name="Group 135" transform="translate(424.217 188.344)" opacity="0.2">
              <path id="Path_420" data-name="Path 420" d="M349.282,154.183a.957.957,0,0,0-.489-.115c-.052-.041-.2.074-.332.249l-2.566,3.414c.175.108.347.216.515.338s.28.227.414.342l2.559-3.406c.134-.175.2-.35.149-.372A.932.932,0,0,0,349.282,154.183Z" transform="translate(-345.895 -154.06)" fill="#fff"/>
            </g>
            <path id="Path_421" data-name="Path 421" d="M348.727,154.973c.108.119.213.238.317.372,1.138-1.361,3.175-3.693,3.175-3.693a6.921,6.921,0,0,1,.242-1.64Z" transform="translate(78.963 33.384)" fill="#fff" opacity="0.2"/>
            <path id="Path_422" data-name="Path 422" d="M278.029,60.745H117.838c-2.089,0-3.693,1.328-3.693,2.707l167.666-.2C281.811,61.864,280.118,60.745,278.029,60.745Z" transform="translate(25.846 13.518)" fill="#f5f5f6"/>
            <path id="Path_423" data-name="Path 423" d="M279.783,62.074H116.018a1.51,1.51,0,0,0-1.4,2.09l18,43.247a1.518,1.518,0,0,0,1.4.93H261.791a1.518,1.518,0,0,0,1.388-.93l18-43.247a1.51,1.51,0,0,0-1.4-2.09Z" transform="translate(25.927 13.814)" fill="#231f20"/>
            <path id="Path_424" data-name="Path 424" d="M279.9,61.542H116.137a2.165,2.165,0,0,0-2,2.975l18,43.239a2.16,2.16,0,0,0,2,1.331H261.91a2.16,2.16,0,0,0,2-1.331l18-43.239a2.165,2.165,0,0,0-2-2.975Zm.8,2.491-17.992,43.239a.862.862,0,0,1-.8.528H134.122a.862.862,0,0,1-.8-.528L115.332,64.022a.859.859,0,0,1,.8-1.19H279.895a.859.859,0,0,1,.8,1.19Z" transform="translate(25.808 13.696)" fill="#d7d8d9"/>
            <path id="Path_425" data-name="Path 425" d="M136.2,102.188H256.662l15.224-35.862H120.976Z" transform="translate(27.393 14.76)" fill="#fff"/>
            <path id="Path_426" data-name="Path 426" d="M256.5,101.674H134.048a4.224,4.224,0,0,0-4.227,4.217v79.068a4.7,4.7,0,0,0,4.506,4.5h122.45a4.657,4.657,0,0,0,3.947-4.5V105.891A4.224,4.224,0,0,0,256.5,101.674Z" transform="translate(29.396 22.626)" fill="#231f20" opacity="0.25" style="mix-blend-mode: multiply;isolation: isolate"/>
            <path id="Path_427" data-name="Path 427" d="M132.671,100.3h122.45a4.22,4.22,0,0,1,4.227,4.213V183.58a4.22,4.22,0,0,1-4.227,4.2H132.671a4.224,4.224,0,0,1-4.23-4.217V104.513a4.22,4.22,0,0,1,4.23-4.217Z" transform="translate(29.083 22.32)" fill="#f0f1f1"/>
            <path id="Path_428" data-name="Path 428" d="M255.12,100.3H132.67a4.224,4.224,0,0,0-4.227,4.217V183.58a4.224,4.224,0,0,0,4.227,4.217l126.677-83.3a4.224,4.224,0,0,0-4.227-4.206Z" transform="translate(29.084 22.32)" fill="#fff"/>
            <rect id="Rectangle_63" data-name="Rectangle 63" width="103.168" height="40.8" rx="2.068" transform="translate(171.393 131.551)" fill="#d1d3d4"/>
            <rect id="Rectangle_64" data-name="Rectangle 64" width="6.595" height="3.373" rx="0.277" transform="translate(173.34 132.983)" fill="#231f20"/>
            <rect id="Rectangle_65" data-name="Rectangle 65" width="6.595" height="3.373" rx="0.277" transform="translate(258.737 132.983)" fill="#231f20"/>
            <rect id="Rectangle_66" data-name="Rectangle 66" width="6.595" height="3.373" rx="0.277" transform="translate(251.619 132.983)" fill="#231f20"/>
            <rect id="Rectangle_67" data-name="Rectangle 67" width="6.595" height="3.373" rx="0.277" transform="translate(244.502 132.983)" fill="#231f20"/>
            <rect id="Rectangle_68" data-name="Rectangle 68" width="6.595" height="3.373" rx="0.277" transform="translate(237.388 132.983)" fill="#231f20"/>
            <rect id="Rectangle_69" data-name="Rectangle 69" width="6.595" height="3.373" rx="0.277" transform="translate(230.27 132.983)" fill="#231f20"/>
            <rect id="Rectangle_70" data-name="Rectangle 70" width="6.595" height="3.373" rx="0.277" transform="translate(223.152 132.983)" fill="#231f20"/>
            <rect id="Rectangle_71" data-name="Rectangle 71" width="6.595" height="3.373" rx="0.277" transform="translate(216.039 132.983)" fill="#231f20"/>
            <rect id="Rectangle_72" data-name="Rectangle 72" width="6.595" height="3.373" rx="0.277" transform="translate(208.921 132.983)" fill="#231f20"/>
            <rect id="Rectangle_73" data-name="Rectangle 73" width="6.595" height="3.373" rx="0.277" transform="translate(201.803 132.983)" fill="#231f20"/>
            <rect id="Rectangle_74" data-name="Rectangle 74" width="6.595" height="3.373" rx="0.277" transform="translate(194.69 132.983)" fill="#231f20"/>
            <rect id="Rectangle_75" data-name="Rectangle 75" width="6.595" height="3.373" rx="0.277" transform="translate(187.572 132.983)" fill="#231f20"/>
            <rect id="Rectangle_76" data-name="Rectangle 76" width="6.595" height="3.373" rx="0.277" transform="translate(180.454 132.983)" fill="#231f20"/>
            <rect id="Rectangle_77" data-name="Rectangle 77" width="6.595" height="3.373" rx="0.277" transform="translate(265.851 132.983)" fill="#231f20"/>
            <rect id="Rectangle_78" data-name="Rectangle 78" width="6.174" height="5.396" rx="0.277" transform="translate(252.712 144.146)" fill="#231f20"/>
            <path id="Path_429" data-name="Path 429" d="M200.76,117.907h5.495a.339.339,0,0,1,.339.338v4.719a.339.339,0,0,1-.339.338H200.76a.335.335,0,0,1-.336-.335v-4.723a.339.339,0,0,1,.336-.338Z" transform="translate(45.383 26.239)" fill="#231f20"/>
            <rect id="Rectangle_79" data-name="Rectangle 79" width="6.174" height="5.396" rx="0.277" transform="translate(238.895 144.146)" fill="#231f20"/>
            <rect id="Rectangle_80" data-name="Rectangle 80" width="6.174" height="5.396" rx="0.277" transform="translate(231.986 144.146)" fill="#231f20"/>
            <rect id="Rectangle_81" data-name="Rectangle 81" width="6.174" height="5.396" rx="0.277" transform="translate(225.081 144.146)" fill="#231f20"/>
            <rect id="Rectangle_82" data-name="Rectangle 82" width="6.174" height="5.396" rx="0.277" transform="translate(218.172 144.146)" fill="#231f20"/>
            <rect id="Rectangle_83" data-name="Rectangle 83" width="6.174" height="5.396" rx="0.277" transform="translate(211.264 144.146)" fill="#231f20"/>
            <rect id="Rectangle_84" data-name="Rectangle 84" width="6.174" height="5.396" rx="0.277" transform="translate(204.355 144.146)" fill="#231f20"/>
            <rect id="Rectangle_85" data-name="Rectangle 85" width="6.174" height="5.396" rx="0.277" transform="translate(197.446 144.146)" fill="#231f20"/>
            <rect id="Rectangle_86" data-name="Rectangle 86" width="6.174" height="5.396" rx="0.277" transform="translate(190.538 144.146)" fill="#231f20"/>
            <rect id="Rectangle_87" data-name="Rectangle 87" width="6.174" height="5.396" rx="0.277" transform="translate(183.629 144.146)" fill="#231f20"/>
            <rect id="Rectangle_88" data-name="Rectangle 88" width="6.174" height="5.396" rx="0.277" transform="translate(259.621 144.146)" fill="#231f20"/>
            <rect id="Rectangle_89" data-name="Rectangle 89" width="9.557" height="5.396" rx="0.277" transform="translate(173.34 144.146)" fill="#231f20"/>
            <rect id="Rectangle_90" data-name="Rectangle 90" width="6.174" height="5.396" rx="0.277" transform="translate(185.472 150.739)" fill="#231f20"/>
            <rect id="Rectangle_91" data-name="Rectangle 91" width="6.174" height="5.396" rx="0.277" transform="translate(254.357 150.739)" fill="#231f20"/>
            <rect id="Rectangle_92" data-name="Rectangle 92" width="6.174" height="5.396" rx="0.277" transform="translate(247.471 150.739)" fill="#231f20"/>
            <rect id="Rectangle_93" data-name="Rectangle 93" width="6.174" height="5.396" rx="0.277" transform="translate(240.581 150.739)" fill="#231f20"/>
            <rect id="Rectangle_94" data-name="Rectangle 94" width="6.174" height="5.396" rx="0.277" transform="translate(233.691 150.739)" fill="#231f20"/>
            <rect id="Rectangle_95" data-name="Rectangle 95" width="6.174" height="5.396" rx="0.277" transform="translate(226.805 150.739)" fill="#231f20"/>
            <rect id="Rectangle_96" data-name="Rectangle 96" width="6.174" height="5.396" rx="0.277" transform="translate(219.914 150.739)" fill="#231f20"/>
            <rect id="Rectangle_97" data-name="Rectangle 97" width="6.174" height="5.396" rx="0.277" transform="translate(213.024 150.739)" fill="#231f20"/>
            <rect id="Rectangle_98" data-name="Rectangle 98" width="6.174" height="5.396" rx="0.277" transform="translate(206.138 150.739)" fill="#231f20"/>
            <rect id="Rectangle_99" data-name="Rectangle 99" width="6.174" height="5.396" rx="0.277" transform="translate(199.248 150.739)" fill="#231f20"/>
            <rect id="Rectangle_100" data-name="Rectangle 100" width="6.174" height="5.396" rx="0.277" transform="translate(192.358 150.739)" fill="#231f20"/>
            <rect id="Rectangle_101" data-name="Rectangle 101" width="6.174" height="5.396" rx="0.277" transform="translate(261.247 150.739)" fill="#231f20"/>
            <rect id="Rectangle_102" data-name="Rectangle 102" width="11.415" height="5.396" rx="0.277" transform="translate(173.34 150.739)" fill="#231f20"/>
            <rect id="Rectangle_103" data-name="Rectangle 103" width="6.174" height="5.396" rx="0.277" transform="translate(188.706 157.328)" fill="#231f20"/>
            <rect id="Rectangle_104" data-name="Rectangle 104" width="6.174" height="5.396" rx="0.277" transform="translate(250.907 157.328)" fill="#231f20"/>
            <rect id="Rectangle_105" data-name="Rectangle 105" width="6.174" height="5.396" rx="0.277" transform="translate(243.994 157.328)" fill="#231f20"/>
            <rect id="Rectangle_106" data-name="Rectangle 106" width="6.174" height="5.396" rx="0.277" transform="translate(237.086 157.328)" fill="#231f20"/>
            <rect id="Rectangle_107" data-name="Rectangle 107" width="6.174" height="5.396" rx="0.277" transform="translate(230.173 157.328)" fill="#231f20"/>
            <rect id="Rectangle_108" data-name="Rectangle 108" width="6.174" height="5.396" rx="0.277" transform="translate(223.264 157.328)" fill="#231f20"/>
            <rect id="Rectangle_109" data-name="Rectangle 109" width="6.174" height="5.396" rx="0.277" transform="translate(216.352 157.328)" fill="#231f20"/>
            <rect id="Rectangle_110" data-name="Rectangle 110" width="6.174" height="5.396" rx="0.277" transform="translate(209.44 157.328)" fill="#231f20"/>
            <rect id="Rectangle_111" data-name="Rectangle 111" width="6.174" height="5.396" rx="0.277" transform="translate(202.527 157.328)" fill="#231f20"/>
            <rect id="Rectangle_112" data-name="Rectangle 112" width="6.174" height="5.396" rx="0.277" transform="translate(195.618 157.328)" fill="#231f20"/>
            <rect id="Rectangle_113" data-name="Rectangle 113" width="14.631" height="5.396" rx="0.277" transform="translate(173.34 157.328)" fill="#231f20"/>
            <rect id="Rectangle_114" data-name="Rectangle 114" width="14.631" height="5.396" rx="0.277" transform="translate(257.819 157.328)" fill="#231f20"/>
            <rect id="Rectangle_115" data-name="Rectangle 115" width="6.174" height="5.396" rx="0.277" transform="translate(173.34 137.553)" fill="#231f20"/>
            <path id="Path_430" data-name="Path 430" d="M214.555,112.514h9.05a.335.335,0,0,1,.336.335v4.723a.339.339,0,0,1-.339.338h-9.046a.339.339,0,0,1-.339-.338v-4.719a.339.339,0,0,1,.339-.338Z" transform="translate(48.505 25.039)" fill="#231f20"/>
            <rect id="Rectangle_116" data-name="Rectangle 116" width="6.174" height="5.396" rx="0.277" transform="translate(248.971 137.553)" fill="#231f20"/>
            <rect id="Rectangle_117" data-name="Rectangle 117" width="6.174" height="5.396" rx="0.277" transform="translate(242.095 137.553)" fill="#231f20"/>
            <rect id="Rectangle_118" data-name="Rectangle 118" width="6.174" height="5.396" rx="0.277" transform="translate(235.22 137.553)" fill="#231f20"/>
            <rect id="Rectangle_119" data-name="Rectangle 119" width="6.174" height="5.396" rx="0.277" transform="translate(228.345 137.553)" fill="#231f20"/>
            <rect id="Rectangle_120" data-name="Rectangle 120" width="6.174" height="5.396" rx="0.277" transform="translate(221.47 137.553)" fill="#231f20"/>
            <rect id="Rectangle_121" data-name="Rectangle 121" width="6.174" height="5.396" rx="0.277" transform="translate(214.595 137.553)" fill="#231f20"/>
            <rect id="Rectangle_122" data-name="Rectangle 122" width="6.174" height="5.396" rx="0.277" transform="translate(207.716 137.553)" fill="#231f20"/>
            <rect id="Rectangle_123" data-name="Rectangle 123" width="6.174" height="5.396" rx="0.277" transform="translate(200.841 137.553)" fill="#231f20"/>
            <rect id="Rectangle_124" data-name="Rectangle 124" width="6.174" height="5.396" rx="0.277" transform="translate(193.966 137.553)" fill="#231f20"/>
            <rect id="Rectangle_125" data-name="Rectangle 125" width="6.174" height="5.396" rx="0.277" transform="translate(187.091 137.553)" fill="#231f20"/>
            <rect id="Rectangle_126" data-name="Rectangle 126" width="6.174" height="5.396" rx="0.277" transform="translate(180.216 137.553)" fill="#231f20"/>
            <rect id="Rectangle_127" data-name="Rectangle 127" width="6.174" height="5.396" rx="0.277" transform="translate(255.846 137.553)" fill="#231f20"/>
            <path id="Path_431" data-name="Path 431" d="M198.611,134.083H165.545a.406.406,0,0,0-.422.39v5.459a.406.406,0,0,0,.422.372h33.085a.406.406,0,0,0,.422-.372v-5.459a.406.406,0,0,0-.44-.39Z" transform="translate(37.389 29.838)" fill="#231f20"/>
            <path id="Path_432" data-name="Path 432" d="M147.116,134.083h-5.361a.406.406,0,0,0-.418.39v5.459a.4.4,0,0,0,.418.372h5.361a.4.4,0,0,0,.418-.372v-5.459A.406.406,0,0,0,147.116,134.083Z" transform="translate(32.003 29.839)" fill="#231f20"/>
            <path id="Path_433" data-name="Path 433" d="M152.782,134.083h-5.357a.406.406,0,0,0-.422.39v5.459a.406.406,0,0,0,.422.372h5.357a.406.406,0,0,0,.422-.372v-5.459a.406.406,0,0,0-.422-.39Z" transform="translate(33.286 29.839)" fill="#231f20"/>
            <path id="Path_434" data-name="Path 434" d="M158.449,134.083h-5.357a.406.406,0,0,0-.422.39v5.459a.406.406,0,0,0,.422.372h5.357a.406.406,0,0,0,.422-.372v-5.459a.406.406,0,0,0-.422-.39Z" transform="translate(34.57 29.839)" fill="#231f20"/>
            <path id="Path_435" data-name="Path 435" d="M205.932,134.083h-5.357a.406.406,0,0,0-.422.39v5.459a.406.406,0,0,0,.422.372h5.357a.406.406,0,0,0,.422-.372v-5.459a.406.406,0,0,0-.422-.39Z" transform="translate(45.321 29.839)" fill="#231f20"/>
            <path id="Path_436" data-name="Path 436" d="M165.47,134.083h-6.715a.406.406,0,0,0-.422.39v5.459a.406.406,0,0,0,.422.372h6.715a.406.406,0,0,0,.422-.372v-5.459a.406.406,0,0,0-.422-.39Z" transform="translate(35.852 29.839)" fill="#231f20"/>
            <path id="Path_437" data-name="Path 437" d="M200.516,134.083H193.8a.406.406,0,0,0-.422.39v5.459a.406.406,0,0,0,.422.372h6.715a.4.4,0,0,0,.418-.372v-5.459a.406.406,0,0,0-.418-.39Z" transform="translate(43.788 29.839)" fill="#231f20"/>
            <rect id="Rectangle_128" data-name="Rectangle 128" width="6.174" height="3.12" rx="0.277" transform="translate(252.425 167.041)" fill="#231f20"/>
            <rect id="Rectangle_129" data-name="Rectangle 129" width="6.174" height="3.12" rx="0.277" transform="translate(266.276 167.041)" fill="#231f20"/>
            <path id="Path_438" data-name="Path 438" d="M211.805,136.635h5.5a.335.335,0,0,1,.336.335v2.447a.339.339,0,0,1-.339.338h-5.495a.339.339,0,0,1-.339-.338v-2.443a.339.339,0,0,1,.339-.338Z" transform="translate(47.883 30.407)" fill="#231f20"/>
            <path id="Path_439" data-name="Path 439" d="M217.294,134.083H211.8a.32.32,0,0,0-.339.3v2.179a.32.32,0,0,0,.339.3h5.495a.32.32,0,0,0,.339-.3v-2.179a.32.32,0,0,0-.339-.3Z" transform="translate(47.881 29.839)" fill="#231f20"/>
            <rect id="Rectangle_130" data-name="Rectangle 130" width="101.59" height="4.157" transform="translate(172.24 122.616)" fill="#231f20"/>
            <rect id="Rectangle_131" data-name="Rectangle 131" width="38.475" height="27.313" rx="2.068" transform="translate(203.62 177.126)" fill="#d1d3d4"/>
            <path id="Path_440" data-name="Path 440" d="M201.965,144.884l-35.939,24.792a2.529,2.529,0,0,0,2.537,2.529h33.4a2.529,2.529,0,0,0,2.544-2.529V147.416a2.533,2.533,0,0,0-2.544-2.532Z" transform="translate(37.594 32.242)" fill="#c2c2c2"/>
            <rect id="Rectangle_132" data-name="Rectangle 132" width="101.59" height="2.079" transform="translate(172.24 124.694)" fill="#58595b"/>
            <path id="Path_441" data-name="Path 441" d="M222.8,117.785h-5.264a.339.339,0,0,0-.339.338v4.741a.339.339,0,0,0,.339.338h1.276v6.348a.339.339,0,0,0,.339.338H222.8a.343.343,0,0,0,.339-.342l0-11.423A.339.339,0,0,0,222.8,117.785Z" transform="translate(49.18 26.212)" fill="#231f20"/>
            <path id="Path_442" data-name="Path 442" d="M265.822,67.7H123.507l.627,1.487.6,1.42.582,1.368c.19.45.373.889.563,1.324s.373.863.548,1.287l.533,1.249c.175.409.347.818.519,1.216l.507,1.194.5,1.171c.168.372.328.77.492,1.149s.325.762.485,1.142l.481,1.116.477,1.116.481,1.116q.235.558.481,1.116c.164.372.321.744.481,1.138s.328.766.492,1.153.332.773.5,1.168.339.792.507,1.194l.519,1.216.533,1.249c.179.424.373.852.548,1.287s.373.874.563,1.324.373.907.582,1.368l.6,1.42c.2.48.41.971.623,1.469H255.406c.209-.5.418-.989.619-1.487s.4-.952.6-1.417.373-.922.578-1.368l.56-1.328c.183-.435.373-.863.541-1.283s.373-.84.53-1.249.343-.818.515-1.22l.5-1.194c.168-.39.332-.781.5-1.168l.485-1.153.481-1.138c.16-.372.317-.744.477-1.116l.474-1.116c.16-.372.317-.744.477-1.116s.317-.744.474-1.116l.481-1.138c.16-.372.325-.766.489-1.153s.325-.777.492-1.171.332-.788.5-1.19.339-.807.515-1.22l.526-1.249c.179-.42.373-.848.541-1.283l.56-1.328c.19-.446.373-.9.578-1.368s.4-.937.6-1.417l.623-1.487h-3.3Z" transform="translate(27.966 15.062)" fill="#e6e7e8"/>
            <path id="Path_443" data-name="Path 443" d="M250.533,67.865H193.947c-.037.539-.078,1.063-.116,1.58s-.075,1.023-.112,1.521-.075.985-.108,1.461-.071.952-.1,1.417-.071.918-.1,1.368l-.1,1.328c-.034.439-.063.87-.1,1.294s-.063.852-.093,1.268-.06.833-.093,1.246l-.09,1.231-.089,1.216-.09,1.212c-.03.4-.063.807-.093,1.212s-.06.807-.089,1.216-.06.814-.09,1.227-.063.826-.093,1.246-.063.84-.093,1.268-.067.859-.1,1.294-.067.881-.1,1.331-.067.9-.1,1.368-.071.933-.1,1.413-.075.967-.112,1.461-.075,1-.112,1.521-.078,1.045-.116,1.58h48.585l.619-1.461c.205-.48.4-.948.6-1.409s.373-.915.578-1.361.373-.885.556-1.316l.541-1.279c.179-.416.351-.833.526-1.242l.511-1.209c.168-.4.336-.8.5-1.186l.489-1.16.485-1.145.481-1.116c.157-.372.317-.744.474-1.116s.317-.744.474-1.116l.474-1.116c.157-.372.313-.744.474-1.116s.317-.744.477-1.116.325-.744.485-1.145.328-.77.492-1.16l.5-1.186.511-1.209c.175-.409.351-.826.526-1.242l.541-1.279c.183-.431.373-.87.556-1.316s.373-.9.578-1.361l.608-1.473c.2-.476.41-.963.619-1.461h-3.264Z" transform="translate(43.374 15.099)" fill="#f7f7f7"/>
            <path id="Path_444" data-name="Path 444" d="M265.989,67.7H123.507l.321.744.321.744h144.5c.127-.3.224-.532.321-.744s.19-.454.317-.744Z" transform="translate(27.966 15.065)" fill="#ec6638"/>
            <path id="Path_445" data-name="Path 445" d="M225.358,82.229h-25.2l-.187,1.368-.187,1.372H227.57c.119-.372.216-.669.306-.956s.175-.547.265-.833.187-.588.306-.956h-3.089Z" transform="translate(45.238 18.298)" fill="#a4d9e2"/>
            <path id="Path_446" data-name="Path 446" d="M227.26,82.228h-3.943c-.119.372-.216.673-.306.956s-.175.55-.265.833-.187.588-.306.956h6.566c.134-.372.242-.669.347-.952s.2-.55.3-.833.213-.591.343-.956H227.26Z" transform="translate(50.368 18.299)" fill="#0097ae"/>
            <path id="Path_447" data-name="Path 447" d="M226.5,78.828H200.614c-.075.55-.127.959-.183,1.372l-.187,1.372h28.549l.3-.956c.093-.283.175-.547.265-.833s.19-.588.306-.952H226.5Z" transform="translate(45.342 17.542)" fill="#f18c6a"/>
            <path id="Path_448" data-name="Path 448" d="M228.447,78.825H224.4c-.116.372-.213.669-.306.952s-.172.55-.265.833l-.3.956h6.763c.134-.372.242-.673.347-.956s.2-.55.3-.833.213-.588.343-.956h-2.813Z" transform="translate(50.613 17.541)" fill="#ec6638"/>
            <path id="Path_449" data-name="Path 449" d="M230.568,73.559a2.785,2.785,0,0,0-.545-.628,5.223,5.223,0,0,0-.824-.569,7.928,7.928,0,0,0-1.082-.509,13.214,13.214,0,0,0-1.313-.439c-.477-.13-.985-.249-1.526-.353s-1.119-.193-1.716-.264-1.224-.13-1.865-.167-1.317-.056-2.007-.056c-.627,0-1.246,0-1.865.048s-1.209.078-1.791.138-1.153.134-1.7.219-1.082.19-1.593.3-1,.234-1.459.372-.9.275-1.306.431a12.061,12.061,0,0,0-1.119.487,8.06,8.06,0,0,0-.936.535,4.968,4.968,0,0,0-.727.58,3.055,3.055,0,0,0-.492.617,1.975,1.975,0,0,0-.246.643,1.571,1.571,0,0,0,.037.71,2.069,2.069,0,0,0,.336.673,3.489,3.489,0,0,0,.619.625,5.905,5.905,0,0,0,.865.573,10.05,10.05,0,0,0,1.1.509c.4.156.836.3,1.3.435s.959.253,1.492.372,1.071.19,1.641.264,1.168.126,1.783.164,1.253.06,1.906.06c.593,0,1.179-.019,1.761-.048s1.145-.078,1.7-.138,1.119-.138,1.634-.223,1.045-.186,1.541-.3.977-.234,1.436-.372.9-.279,1.306-.431.8-.316,1.156-.487a9.41,9.41,0,0,0,.989-.539,6.2,6.2,0,0,0,.791-.58,3.671,3.671,0,0,0,.575-.628,2.252,2.252,0,0,0,.339-.647,1.6,1.6,0,0,0,.071-.707,1.685,1.685,0,0,0-.269-.673Z" transform="translate(46.743 15.705)" fill="#ec6638"/>
            <path id="Path_450" data-name="Path 450" d="M225.2,73.4H213.364c-.119-.439-.175-.662-.295-1.116-.022-.082-.22-.138-.448-.134h-1.653c-.254,0-.47.082-.474.171s.19.16.451.156h1.238c.112.405.2.744.287,1.064s.164.61.246.926.172.658.276,1.067h8.334a.943.943,0,0,0,.414-.082l.992-.528.858-.454.865-.45,1.007-.528c.1-.052.116-.115.052-.164a.673.673,0,0,0-.317.071Zm-8.625.327h3.648l-.373.346h-3.357C216.528,73.932,216.542,73.869,216.576,73.731Zm-1.1,1.632h-1.608c-.03-.138-.045-.2-.071-.342h1.761C215.528,75.159,215.509,75.226,215.479,75.364Zm.138-.6h-1.865l-.093-.431h2.07C215.681,74.5,215.658,74.59,215.617,74.765Zm.164-.688H213.6c-.034-.138-.049-.2-.078-.342h2.346C215.83,73.869,215.815,73.932,215.781,74.077Zm2.66,1.287H216.2c.03-.138.049-.208.082-.346h2.544Zm-.746-.6h-1.38c.041-.175.063-.26.1-.435h3.134l-.474.435Zm3.5.6h-2.033l.373-.346h2.305Zm1.119-.6h-2.511l.474-.435h2.884Zm1.294-.684H220.59l.373-.346H224.3Z" transform="translate(47.663 16.057)" fill="#fff"/>
            <path id="Path_451" data-name="Path 451" d="M218.9,75.375a2.993,2.993,0,0,0-1.048-.164,3.652,3.652,0,0,0-1.138.167c-.306.1-.515.242-.552.394s.1.294.351.4a2.993,2.993,0,0,0,1.048.164,3.742,3.742,0,0,0,1.119-.164c.306-.1.515-.242.556-.4S219.159,75.483,218.9,75.375Zm-1.257.632c-.351,0-.612-.1-.578-.234s.347-.234.7-.234.616.108.582.234-.343.234-.7.234Z" transform="translate(48.944 16.737)" fill="#fff"/>
            <path id="Path_452" data-name="Path 452" d="M215.153,75.378a2.959,2.959,0,0,0-1.059-.164,3.584,3.584,0,0,0-1.119.164c-.3.1-.507.242-.541.4s.108.294.373.394a2.994,2.994,0,0,0,1.048.164,3.693,3.693,0,0,0,1.119-.164c.3-.1.511-.242.548-.4S215.407,75.482,215.153,75.378Zm-1.242.628c-.351,0-.612-.1-.586-.234s.339-.231.694-.231.619.1.589.231S214.269,76.007,213.911,76.007Z" transform="translate(48.101 16.738)" fill="#fff"/>
            <path id="Path_453" data-name="Path 453" d="M225.081,88.477a2.92,2.92,0,0,0-.593-.68,5.14,5.14,0,0,0-.9-.61,8.55,8.55,0,0,0-1.168-.528,13.359,13.359,0,0,0-1.418-.428c-.511-.126-1.059-.234-1.638-.324s-1.186-.156-1.82-.2-1.3-.071-1.981-.071c-.612,0-1.22.022-1.813.06s-1.179.093-1.746.167-1.119.16-1.649.264a14.925,14.925,0,0,0-1.522.372c-.481.149-.944.275-1.373.435a12.443,12.443,0,0,0-1.2.509,8.55,8.55,0,0,0-1,.573,5.449,5.449,0,0,0-.776.625,3.436,3.436,0,0,0-.53.673,2.115,2.115,0,0,0-.265.71,1.794,1.794,0,0,0,.037.785,2.284,2.284,0,0,0,.373.744,3.787,3.787,0,0,0,.664.68,6.2,6.2,0,0,0,.933.606,8.941,8.941,0,0,0,1.168.528,13.69,13.69,0,0,0,1.38.431q.746.19,1.567.324c.548.086,1.119.156,1.723.2s1.224.071,1.865.071a16.323,16.323,0,0,0,1.712-.06c.563-.059,1.119-.093,1.656-.164s1.067-.164,1.578-.268,1-.223,1.492-.353.929-.279,1.358-.439a13.035,13.035,0,0,0,1.212-.509,10.456,10.456,0,0,0,1.041-.569,6.52,6.52,0,0,0,.843-.628,4.157,4.157,0,0,0,.623-.673,2.623,2.623,0,0,0,.373-.707,1.794,1.794,0,0,0,.075-.788,1.822,1.822,0,0,0-.295-.755Z" transform="translate(46.119 19.056)" fill="#a4d9e2"/>
            <path id="Path_454" data-name="Path 454" d="M217.809,87.977H207.678c-.373,0-.69.112-.72.249-.108.509-.194.889-.276,1.272s-.168.766-.28,1.275c-.026.138.246.245.6.245h9.919c.373,0,.683-.112.724-.249.149-.509.265-.892.373-1.272s.228-.766.373-1.275C218.451,88.085,218.179,87.977,217.809,87.977Z" transform="translate(46.736 19.578)" fill="#ec6638"/>
            <path id="Path_455" data-name="Path 455" d="M217.808,87.977l-1.462.353-1.328.32-1.224.3-1.164.286-1.142.279-1.156.286-1.209.3-1.294.324-1.421.353c-.026.138.246.245.6.245h9.919c.373,0,.683-.112.724-.249.149-.509.265-.892.373-1.272s.228-.766.373-1.275C218.45,88.085,218.177,87.977,217.808,87.977Z" transform="translate(46.737 19.578)" fill="#ec6638"/>
            <path id="Path_456" data-name="Path 456" d="M218.925,88.512h-2.358c-.213,0-.407.082-.436.19-.112.39-.194.684-.276.974s-.168.588-.276.978c-.03.1.112.249.321.249h3.357c.213,0,.407-.082.436-.19.142-.457.213-.688.351-1.145-.242-.346-.373-.521-.612-.863C219.32,88.512,219.029,88.512,218.925,88.512Z" transform="translate(48.813 19.697)" fill="#ec6638"/>
            <path id="Path_457" data-name="Path 457" d="M217.8,89.91l-1.015.268-1.194.294c-.03.1.112.249.321.249h3.357c.213,0,.407-.082.436-.19.142-.457.213-.688.351-1.145l-1.2.294Z" transform="translate(48.817 19.892)" fill="#ec6638"/>
            <path id="Path_458" data-name="Path 458" d="M218.562,88.719h-1.917c-.164,0-.317.067-.339.149-.075.26-.108.372-.183.647h3.324l-.492-.647C218.861,88.719,218.726,88.719,218.562,88.719Z" transform="translate(48.937 19.744)" fill="#fff"/>
            <path id="Path_459" data-name="Path 459" d="M210.808,90.136a2.66,2.66,0,0,0-1.026-.178,3.233,3.233,0,0,0-1.119.182c-.3.108-.5.264-.533.431s.1.324.343.435a2.593,2.593,0,0,0,1.022.182,3.221,3.221,0,0,0,1.1-.182c.295-.112.5-.264.541-.435S211.055,90.247,210.808,90.136Z" transform="translate(47.126 20.019)" fill="#007278"/>
            <path id="Path_460" data-name="Path 460" d="M218.215,90.136a2.506,2.506,0,0,0-1.015-.179,3.337,3.337,0,0,0-1.119.178c-.3.112-.515.264-.56.435s.078.324.317.435a2.48,2.48,0,0,0,1.007.178,3.333,3.333,0,0,0,1.119-.178.88.88,0,0,0,.567-.435C218.577,90.4,218.454,90.248,218.215,90.136Z" transform="translate(48.799 20.019)" fill="#007278"/>
            <path id="Path_461" data-name="Path 461" d="M216.976,90.207c-.418,0-.795.138-.843.309s.25.309.664.309.795-.141.843-.309S217.39,90.207,216.976,90.207Z" transform="translate(48.938 20.075)" fill="#33adb3"/>
            <path id="Path_462" data-name="Path 462" d="M209.575,90.207c-.418,0-.787.141-.824.309s.272.309.686.309.78-.138.821-.309S209.989,90.207,209.575,90.207Z" transform="translate(47.267 20.075)" fill="#33adb3"/>
            <path id="Path_463" data-name="Path 463" d="M216.976,90.207c-.418,0-.795.138-.843.309s.25.309.664.309.795-.141.843-.309S217.39,90.207,216.976,90.207Z" transform="translate(48.938 20.075)" fill="#33adb3"/>
            <path id="Path_464" data-name="Path 464" d="M204.7,88.312h-2.775l1.492.067,1.272.056,1.268.056,1.492.067.048-.245h-2.772Z" transform="translate(45.722 19.653)" fill="#fff"/>
            <path id="Path_465" data-name="Path 465" d="M204.88,88.75h-2.339l1.246.067,1.071.056,1.074.056,1.242.067c.019-.1.03-.145.049-.245H204.88Z" transform="translate(45.862 19.75)" fill="#fff"/>
            <path id="Path_466" data-name="Path 466" d="M204.412,89.188h-1.384l1.369.086,1.2.071,1.369.082a1.11,1.11,0,0,1,.045-.238H204.4Z" transform="translate(45.972 19.848)" fill="#fff"/>
            <path id="Path_467" data-name="Path 467" d="M205.845,68.946H124.03c.213.5.422.982.623,1.458s.4.945.6,1.406.373.907.578,1.354.373.878.556,1.305l.541,1.268.522,1.235c.175.405.343.8.511,1.2s.336.785.5,1.175.328.77.489,1.153.325.744.485,1.138l.478,1.116c.16.372.317.744.477,1.116l.474,1.116.478,1.116c.157.372.317.744.477,1.116l.485,1.138.489,1.153c.168.372.332.777.5,1.175s.336.8.511,1.2l.522,1.231.541,1.268.556,1.309c.187.443.373.892.574,1.354s.4.926.6,1.4.41.963.623,1.458h69.62c.037-.539.078-1.063.116-1.58s.078-1.023.116-1.517.071-.985.108-1.461.071-.948.1-1.409.067-.915.1-1.361.067-.889.1-1.324.067-.863.1-1.287.063-.844.093-1.261.063-.833.093-1.242l.09-1.223c.03-.409.06-.811.09-1.216s.063-.807.093-1.212l.09-1.216.09-1.223c.03-.413.063-.826.093-1.242s.06-.837.093-1.261.063-.855.093-1.29.067-.874.1-1.32.067-.9.1-1.365.067-.93.1-1.406.071-.967.108-1.461.075-1,.112-1.517.078-1.045.116-1.584h-3.294Z" transform="translate(28.084 15.338)" fill="#a4d9e2"/>
            <path id="Path_468" data-name="Path 468" d="M184.59,80.937c0-.372-.037-.71-.056-1.049s-.034-.68-.056-1.045-.037-.766-.063-1.22c0-.186-.187-.346-.492-.457a3.742,3.742,0,0,0-1.246-.178h-41.3a3.6,3.6,0,0,0-1.235.178c-.287.112-.433.271-.373.461l.407,1.216c.119.372.235.707.347,1.045s.228.68.347,1.049.257.762.407,1.216l.933.03c.149.465.291.9.429,1.313l.373,1.182.373,1.1.347,1.052.343,1.052.373,1.093.373,1.182c.138.416.28.852.429,1.316.063.186.373.372.787.476a5.107,5.107,0,0,0,1.388.2h34.9a4.553,4.553,0,0,0,1.335-.2c.373-.119.634-.29.627-.476-.034-.532-.063-1.026-.09-1.487s-.052-.9-.078-1.328-.048-.829-.075-1.227-.048-.814-.078-1.186-.048-.807-.071-1.231-.052-.863-.078-1.328-.06-.959-.09-1.487l.921-.026C184.631,81.7,184.609,81.3,184.59,80.937Z" transform="translate(31.646 17.132)" fill="#0097ae"/>
            <path id="Path_469" data-name="Path 469" d="M181.684,81.228H141.769l.205.628h41.407l-.037-.628Z" transform="translate(32.101 18.076)" opacity="0.2" style="mix-blend-mode: multiply;isolation: isolate"/>
            <path id="Path_470" data-name="Path 470" d="M164.809,89.408c-.075-.439-.146-.863-.216-1.275s-.134-.814-.2-1.212-.131-.785-.2-1.168-.127-.77-.19-1.149-.127-.766-.194-1.149-.127-.773-.194-1.171-.134-.8-.205-1.212-.138-.837-.213-1.275-.149-.889-.228-1.361l-.246-1.465h-8.259c.112.509.216,1,.321,1.469s.2.922.3,1.361.19.863.28,1.275.179.814.265,1.212.172.785.257,1.168.168.766.25,1.149.168.762.254,1.149.168.773.254,1.171.175.8.269,1.212.183.837.276,1.275.2.889.3,1.357.213.959.321,1.469h7.461c-.086-.506-.168-.993-.246-1.465S164.88,89.847,164.809,89.408Z" transform="translate(34.976 17.129)" fill="#fff"/>
            <path id="Path_471" data-name="Path 471" d="M176.292,73.5a3,3,0,0,0-.254-.628,2.674,2.674,0,0,0-.4-.539,2.888,2.888,0,0,0-.56-.439,3.773,3.773,0,0,0-.746-.327,5.06,5.06,0,0,0-.91-.2,7.714,7.714,0,0,0-1.1-.063,11.8,11.8,0,0,0-1.291.086c-.463.056-.962.138-1.492.249s-1.1.253-1.7.428-1.235.372-1.906.614-1.377.509-2.115.814-1.515.647-2.32,1.03-1.649.8-2.522,1.253c.1.372.168.651.242.93s.142.558.239.926h12.161s.269,0,.675-.026a11.916,11.916,0,0,0,1.511-.2,5.371,5.371,0,0,0,1.582-.547,1.641,1.641,0,0,0,.888-1.071,7.084,7.084,0,0,0,.119-.811,5.216,5.216,0,0,0,0-.762A3.75,3.75,0,0,0,176.292,73.5Z" transform="translate(35.997 15.868)" fill="#fff"/>
            <path id="Path_472" data-name="Path 472" d="M174.049,71.756a4.242,4.242,0,0,0-1.171-.45H172a6.592,6.592,0,0,0-.724.063c-.28.033-.6.082-.959.149s-.765.152-1.212.26-.936.242-1.492.4-1.119.372-1.746.576-1.3.48-2.018.773-1.492.625-2.3,1-1.671.8-2.574,1.261l.347-.041.948-.126,1.418-.2,1.761-.264c.63-.1,1.3-.2,1.977-.32s1.373-.238,2.055-.372,1.362-.264,2.007-.405,1.261-.286,1.824-.435,1.071-.3,1.492-.454a6.09,6.09,0,0,0,1.048-.469c.257-.156.414-.316.448-.472S174.284,71.912,174.049,71.756Z" transform="translate(35.999 15.868)" fill="#ec6638"/>
            <path id="Path_473" data-name="Path 473" d="M159.2,75.778c-.989-.428-1.932-.826-2.839-1.186s-1.764-.688-2.581-.985-1.593-.562-2.328-.8-1.425-.439-2.074-.614-1.257-.324-1.824-.446-1.093-.216-1.578-.286-.933-.115-1.339-.138a9.28,9.28,0,0,0-1.119,0,5.351,5.351,0,0,0-.892.126,3.366,3.366,0,0,0-.686.242,1.887,1.887,0,0,0-.489.35,1.562,1.562,0,0,0-.306.446,1.769,1.769,0,0,0-.134.532,2.367,2.367,0,0,0,.022.6,3.71,3.71,0,0,0,.164.669,6,6,0,0,0,.295.721c.116.249.254.506.407.766a2.608,2.608,0,0,0,.981.9,5.83,5.83,0,0,0,1.388.547,10.965,10.965,0,0,0,1.429.279c.448.056.839.086,1.119.1a3.583,3.583,0,0,0,.451,0h12.18c-.049-.372-.082-.651-.119-.93S159.245,76.15,159.2,75.778Z" transform="translate(31.926 15.869)" fill="#fff"/>
            <path id="Path_474" data-name="Path 474" d="M153.587,73.666q-1.175-.424-2.2-.744c-.679-.219-1.309-.409-1.9-.576s-1.119-.3-1.608-.424-.933-.216-1.332-.294-.746-.141-1.078-.186-.593-.082-.836-.1-.444-.037-.616-.041-.306,0-.414,0h-.306a3.086,3.086,0,0,0-.955.42c-.183.145-.239.29-.183.435a1.028,1.028,0,0,0,.474.435,6.081,6.081,0,0,0,1.018.439c.414.141.9.286,1.44.424s1.119.279,1.75.413,1.28.264,1.951.372,1.358.242,2.041.372,1.365.223,2.022.324l1.891.279,1.66.231,1.313.171.869.112.313.037c-.992-.428-1.932-.814-2.82-1.168S154.359,73.948,153.587,73.666Z" transform="translate(32.187 15.866)" fill="#ec6638"/>
            <path id="Path_475" data-name="Path 475" d="M161.422,75.074c-.03-.182-.261-.346-.612-.461a4.213,4.213,0,0,0-1.317-.19h-3.216a3.558,3.558,0,0,0-1.242.19c-.3.119-.47.279-.433.461l.287,1.328c.037.178.272.342.623.461a4.276,4.276,0,0,0,1.3.19h3.163a3.625,3.625,0,0,0,1.231-.19c.3-.119.474-.283.444-.461C161.56,75.87,161.515,75.6,161.422,75.074Z" transform="translate(35.006 16.562)" fill="#ec6638"/>
            <path id="Path_476" data-name="Path 476" d="M185.261,87.745a5.08,5.08,0,0,0-.97-.6,8.933,8.933,0,0,0-1.276-.5,14.213,14.213,0,0,0-1.533-.372c-.548-.1-1.119-.186-1.738-.242s-1.242-.086-1.9-.086-1.28.03-1.865.086-1.175.138-1.712.242a13.179,13.179,0,0,0-1.492.372,8.375,8.375,0,0,0-1.22.5,4.418,4.418,0,0,0-.9.6,2.128,2.128,0,0,0-.537.68,1.346,1.346,0,0,0-.134.744,1.644,1.644,0,0,0,.295.744,3.061,3.061,0,0,0,.675.68,6.109,6.109,0,0,0,1,.6,9.5,9.5,0,0,0,1.276.5,14.211,14.211,0,0,0,1.492.372c.533.1,1.1.186,1.679.242s1.194.086,1.813.086,1.227-.03,1.806-.086a15.513,15.513,0,0,0,1.649-.245,12.215,12.215,0,0,0,1.459-.372,8.478,8.478,0,0,0,1.22-.5,4.882,4.882,0,0,0,.936-.6,2.646,2.646,0,0,0,.6-.68,1.454,1.454,0,0,0,.209-.744,1.425,1.425,0,0,0-.213-.744,2.569,2.569,0,0,0-.619-.673Z" transform="translate(38.488 19.126)" fill="#ec6638"/>
            <path id="Path_477" data-name="Path 477" d="M180.408,88.159l-1.283-.074-.854-.662-.862-.662-.78.677-.78.662-1.276.078-1.119.063-1.272.074.959.372.828.312.947.372c-.1.29-.179.509-.257.744s-.153.439-.254.744l1.119-.238.966-.212,1.119-.238,1.141.238.992.208,1.119.242-.336-.744-.336-.744L181.1,89l.795-.316.918-.372-1.283-.074Z" transform="translate(38.988 19.308)" fill="#fff"/>
            <g id="Group_136" data-name="Group 136" transform="translate(140.43 75.888)">
              <path id="Path_478" data-name="Path 478" d="M279.783,62.074H116.018a1.51,1.51,0,0,0-1.4,2.09l18,43.247a1.518,1.518,0,0,0,1.4.93L281.182,64.164a1.51,1.51,0,0,0-1.4-2.09Z" transform="translate(-114.503 -62.074)" opacity="0.25" fill="url(#linear-gradient-7)"/>
            </g>
            <path id="Path_479" data-name="Path 479" d="M356.953,103.978,274.694,70.619a3.869,3.869,0,0,0-5.04,2.116l-22.755,55.7a3.852,3.852,0,0,0,2.134,5.024L331.3,166.84a3.876,3.876,0,0,0,5.04-2.12l22.755-55.7a3.852,3.852,0,0,0-2.138-5.039Z" transform="translate(55.842 15.652)" fill="#231f20" opacity="0.25" style="mix-blend-mode: multiply;isolation: isolate"/>
            <path id="Path_480" data-name="Path 480" d="M355.813,102.384,273.554,69.01a3.869,3.869,0,0,0-5.04,2.116l-22.755,55.7a3.852,3.852,0,0,0,2.123,5.024l82.259,33.378a3.876,3.876,0,0,0,5.04-2.12l22.755-55.7A3.852,3.852,0,0,0,355.813,102.384Z" transform="translate(55.583 15.294)" fill="#212121"/>
            <path id="Path_907" data-name="Path 907" d="M0,0,52.865.059l.09,81.044L.09,81.044Z" transform="translate(309.866 141.645) rotate(-67.85)" fill="#e6e7e8"/>
            <path id="Path_908" data-name="Path 908" d="M0,0,52.53.058,52.567,33.4.037,33.346Z" transform="translate(354.151 159.608) rotate(-67.85)" fill="#fff"/>
            <path id="Path_909" data-name="Path 909" d="M0,0,2.459,0l.09,81.141-2.459,0Z" transform="translate(328.921 94.98) rotate(-67.85)" fill="#ec6638"/>
            <path id="Path_910" data-name="Path 910" d="M0,0,4.464,0l.019,17.559-4.464,0Z" transform="translate(366.916 143.753) rotate(-67.85)" fill="#a4d9e2"/>
            <path id="Path_911" data-name="Path 911" d="M0,0,4.464,0l0,4.15L0,4.15Z" transform="matrix(0.377, -0.926, 0.926, 0.377, 383.169, 150.335)" fill="#0097ae"/>
            <path id="Path_912" data-name="Path 912" d="M0,0,4.461,0,4.48,17.563l-4.461,0Z" transform="translate(369.471 137.483) rotate(-67.85)" fill="#f18c6a"/>
            <path id="Path_913" data-name="Path 913" d="M0,0,4.461,0l0,4.15L0,4.15Z" transform="matrix(0.377, -0.926, 0.926, 0.377, 385.705, 144.048)" fill="#ec6638"/>
            <path id="Path_481" data-name="Path 481" d="M317.7,100.068a7.1,7.1,0,1,0,3.883,9.244,7.142,7.142,0,0,0-3.883-9.244Z" transform="translate(69.709 22.15)" fill="#ec6638"/>
            <path id="Path_482" data-name="Path 482" d="M318.858,106.089l-6.342-2.577.373-1.785a.264.264,0,0,0-.172-.3l-.892-.316a.268.268,0,0,0-.179.5l.672.238-1.089,4.927v.093a.056.056,0,0,0,0,.026v.022a.029.029,0,0,1,0,.022v.037a.033.033,0,0,1,0,.019v.022h0a.186.186,0,0,0,.03.026h0l.041.022,4.338,1.759a.273.273,0,0,0,.265-.037l2.913-2.257a.26.26,0,0,0-.06-.454Zm-4.786-1.368,1.962.8-.373.454-1.806-.744Zm1.324,1.588-.463.573-1.492-.606.269-.651Zm-2.984-2.253,1.261.509-.213.521-1.179-.48Zm.257,2.975-.873-.353.13-.554.955.39Zm-.645-1.313.164-.7,1.119.454-.269.651Zm2.238,1.963-1.224-.495.209-.521,1.38.561Zm1.492.61-1.119-.446.373-.454,1.25.506Zm.892-.688-1.358-.55.463-.573,1.541.625Zm1.015-.785a.179.179,0,0,0-.052-.033l-1.585-.643.373-.454,1.794.725Z" transform="translate(70.472 22.498)" fill="#fff"/>
            <path id="Path_483" data-name="Path 483" d="M314.068,107.292a.914.914,0,1,0,.5,1.19.92.92,0,0,0-.5-1.19Zm0,.989a.378.378,0,1,1-.209-.491.379.379,0,0,1,.209.491Z" transform="translate(70.827 23.861)" fill="#fff"/>
            <path id="Path_484" data-name="Path 484" d="M312.02,106.471a.914.914,0,1,0,.5,1.186A.91.91,0,0,0,312.02,106.471Zm0,.989a.26.26,0,1,1,.007-.011Z" transform="translate(70.364 23.678)" fill="#fff"/>
            <path id="Path_485" data-name="Path 485" d="M308.391,122.723a7.1,7.1,0,1,0,3.883,9.241A7.145,7.145,0,0,0,308.391,122.723Z" transform="translate(67.599 27.191)" fill="#a4d9e2"/>
            <path id="Path_486" data-name="Path 486" d="M308.433,127.325l-6.1-2.473a.411.411,0,0,0-.552.208l-1.6,3.823a.424.424,0,0,0,.25.539l6.1,2.473a.418.418,0,0,0,.556-.208l1.6-3.826A.42.42,0,0,0,308.433,127.325Z" transform="translate(67.964 27.776)" fill="#ec6638"/>
            <path id="Path_487" data-name="Path 487" d="M308.433,126.868l-8.255,1.558a.424.424,0,0,0,.25.539l6.1,2.473a.418.418,0,0,0,.556-.208l1.6-3.826A.42.42,0,0,0,308.433,126.868Z" transform="translate(67.964 28.233)" fill="#ec6638"/>
            <path id="Path_488" data-name="Path 488" d="M308.782,128.466l-1.425-.58a.284.284,0,0,0-.347.19l-1.212,2.941c-.063.156-.041.416.09.469l2.067.84a.287.287,0,0,0,.351-.19l.709-1.729V128.89C309.028,128.551,308.856,128.484,308.782,128.466Z" transform="translate(69.235 28.457)" fill="#ec6638"/>
            <path id="Path_489" data-name="Path 489" d="M305.887,131.015l2.067.84a.287.287,0,0,0,.351-.19l.709-1.729-3.216.61C305.734,130.7,305.756,130.982,305.887,131.015Z" transform="translate(69.235 28.916)" fill="#ec6638"/>
            <path id="Path_490" data-name="Path 490" d="M308.356,128.719l-1.164-.469a.224.224,0,0,0-.272.149l-.4.974,2.026.822V129.05C308.535,128.793,308.457,128.756,308.356,128.719Z" transform="translate(69.406 28.539)" fill="#fff"/>
            <path id="Path_491" data-name="Path 491" d="M302.446,128.448a1,1,0,1,0,.545,1.3.992.992,0,0,0-.545-1.3Z" transform="translate(68.169 28.568)" fill="#007278"/>
            <path id="Path_492" data-name="Path 492" d="M306.986,130.294a1,1,0,1,0,.548,1.3,1.006,1.006,0,0,0-.548-1.3Z" transform="translate(69.198 28.979)" fill="#007278"/>
            <path id="Path_493" data-name="Path 493" d="M306.708,130.668a.5.5,0,1,0,.272.651.5.5,0,0,0-.272-.651Z" transform="translate(69.29 29.07)" fill="#33adb3"/>
            <path id="Path_494" data-name="Path 494" d="M302.166,128.818a.5.5,0,1,0,.276.651.5.5,0,0,0-.276-.651Z" transform="translate(68.263 28.659)" fill="#33adb3"/>
            <path id="Path_495" data-name="Path 495" d="M306.708,130.668a.5.5,0,1,0,.272.651.5.5,0,0,0-.272-.651Z" transform="translate(69.29 29.07)" fill="#33adb3"/>
            <path id="Path_496" data-name="Path 496" d="M301.613,125.731l.149-.368-3.354-1.357Z" transform="translate(67.569 27.596)" fill="#fff"/>
            <path id="Path_497" data-name="Path 497" d="M301.247,126.357l.153-.372-2.843-1.149Z" transform="translate(67.603 27.781)" fill="#fff"/>
            <path id="Path_498" data-name="Path 498" d="M300.906,126.975l.145-.361-2.421-.982Z" transform="translate(67.62 27.958)" fill="#fff"/>
            <path id="Path_914" data-name="Path 914" d="M0,0,50.409.056l.053,47.791L.053,47.791Z" transform="translate(309.865 141.647) rotate(-67.85)" fill="#a4d9e2"/>
            <path id="Path_499" data-name="Path 499" d="M295.328,102.131l-22.8-9.252a1.034,1.034,0,0,0-1.4.554l-2.794,6.82.507.257L263.131,114.5a1.238,1.238,0,0,0,.776,1.487l21.282,8.638a1.3,1.3,0,0,0,1.638-.521l5.715-14,.541.171,2.787-6.82a.97.97,0,0,0-.541-1.331Z" transform="translate(59.567 20.648)" fill="#0097ae"/>
            <path id="Path_915" data-name="Path 915" d="M0,0H1.023l.028,25.6H.028Z" transform="translate(328.034 122.107) rotate(-67.89)" opacity="0.2" style="mix-blend-mode: multiply;isolation: isolate"/>
            <path id="Path_916" data-name="Path 916" d="M0,0,24.84.028l.005,4.922L.005,4.922Z" transform="translate(331.794 140.179) rotate(-67.85)" fill="#fff"/>
            <path id="Path_500" data-name="Path 500" d="M282.312,94.622l-1.067,2.826,6.715,2.7a2.978,2.978,0,0,0,3.771-1.707C295.118,92.023,295.125,86.969,282.312,94.622Z" transform="translate(63.683 20.199)" fill="#fff"/>
            <path id="Path_501" data-name="Path 501" d="M282.121,94.616s13.056.829,10.523-3.577C292.644,91.039,291.178,89.28,282.121,94.616Z" transform="translate(63.881 20.198)" fill="#0097ae"/>
            <path id="Path_502" data-name="Path 502" d="M272.763,91.211a2.96,2.96,0,0,0,1.492,3.845l6.681,2.737,1.22-2.767C278.359,80.631,274.822,84.253,272.763,91.211Z" transform="translate(61.719 18.941)" fill="#fff"/>
            <path id="Path_503" data-name="Path 503" d="M276.537,85.124c-4.894,1.391,5.029,9.884,5.029,9.884C278.82,84.882,276.537,85.124,276.537,85.124Z" transform="translate(62.31 18.943)" fill="#0097ae"/>
            <path id="Path_504" data-name="Path 504" d="M283.027,93.178l-1.742-.707a1.061,1.061,0,0,0-1.384.58l-.817,2a1.059,1.059,0,0,0,.582,1.38l1.742.707a1.064,1.064,0,0,0,1.384-.58l.817-2A1.059,1.059,0,0,0,283.027,93.178Z" transform="translate(63.176 20.561)" fill="#0097ae"/>
            <path id="Path_505" data-name="Path 505" d="M285.859,114.246a5.253,5.253,0,1,0,2.895,6.846,5.273,5.273,0,0,0-2.895-6.846Z" transform="translate(63.086 25.338)" fill="#ec6638"/>
            <path id="Path_506" data-name="Path 506" d="M284.836,115.428l-1.806,1.6-2.346-.576.966,2.205-1.276,2.045,2.4-.234,1.559,1.841.519-2.354,2.234-.9-2.082-1.223Z" transform="translate(63.486 25.687)" fill="#fff"/>
            <path id="Path_507" data-name="Path 507" d="M326.083,119.907a1.012,1.012,0,0,0-1.317.554l-1.238,3.027a1.01,1.01,0,1,0,1.865.744l1.235-3.027a1.007,1.007,0,0,0-.545-1.3Z" transform="translate(73.23 26.667)" fill="#666"/>
            <g id="Group_137" data-name="Group 137" transform="translate(301.055 84.018)">
              <path id="Path_508" data-name="Path 508" d="M355.813,102.384,273.554,69.01a3.869,3.869,0,0,0-5.04,2.116l-22.755,55.7a3.852,3.852,0,0,0,2.123,5.024l110.047-24.446a3.852,3.852,0,0,0-2.115-5.024Z" transform="translate(-245.473 -68.724)" opacity="0.2" fill="url(#linear-gradient-8)"/>
            </g>
            <path id="Path_509" data-name="Path 509" d="M166.567,154.792l-4.014,9.27a5.155,5.155,0,0,1-1.007,1.324c.146-.785.284-1.592.418-2.413a2.677,2.677,0,0,0,.116-.394s0-.034,0-.045l5.8-29.8a2.648,2.648,0,0,0-5.193-1.041l-5.025,23.877a.788.788,0,0,1-.854.4.712.712,0,0,1-.627-.509l4.984-26.822a2.652,2.652,0,0,0-5.2-1.045l-5.708,26.119h0s-.1.814-.649.785a.623.623,0,0,1-.668-.48l4.626-25.07a2.652,2.652,0,0,0-5.2-1.041l-5.625,25.561c-.108.257-.429.826-1.041.688l3.667-22.936a2.473,2.473,0,0,0-4.85-.974L135.4,154.781h-.045s-1.2,5.95-1.72,8.493c-1.865,9.278-.026,19.087.507,21.568l-.962-.156-2.119,9.077L110.428,269.13l-1.731,6.362,1.779.372.134.03h0l27.493,5.522h0l1.492.3L153.477,198.3l1.574-9.189-.869-.175h0c1.574-1.554,6.532-6.5,8.013-8.631l.183-.271.026-.041.187-.29.034-.056c.063-.1.131-.2.194-.316l.034-.052.209-.353h0l.216-.372.03-.056c.071-.126.145-.253.216-.372l.041-.074c.075-.13.145-.264.22-.4a.6.6,0,0,1,.037-.067l.231-.439h0l.235-.45.034-.063.235-.45.041-.082.235-.457a.785.785,0,0,1,.041-.078c.078-.16.16-.32.242-.48h0c.078-.156.157-.316.239-.472,0-.03.026-.056.037-.082l.235-.469.048-.1c.075-.156.153-.309.228-.465l.048-.1c.078-.16.153-.32.231-.476l.019-.045c.075-.149.145-.3.22-.45l.045-.1.213-.443.063-.134.2-.413.067-.145.172-.372.078-.167c.052-.112.1-.219.153-.327.026-.048.048-.1.071-.145.052-.119.108-.234.164-.35l.09-.2.112-.242c.048-.1.1-.2.142-.3l.034-.074c.608-1.313,1.1-2.387,1.358-2.975h0l.22-.487,4.667-14.647S170.264,148.292,166.567,154.792Z" transform="translate(24.613 27.942)" fill="#231f20" opacity="0.2"/>
            <path id="Path_510" data-name="Path 510" d="M155.831,127.759a2.652,2.652,0,0,0-3.1,2.053l-6.252,29.708a2.889,2.889,0,0,0,5.655,1.183v-.045l5.778-29.8a2.641,2.641,0,0,0-2.085-3.094Z" transform="translate(33.154 28.421)" fill="#eeb595"/>
            <path id="Path_511" data-name="Path 511" d="M150.379,124.412a2.652,2.652,0,0,0-3.074,2.034l-6.483,29.663a3.126,3.126,0,0,0,6.107,1.328.174.174,0,0,1,.019-.1l5.555-29.849a2.644,2.644,0,0,0-2.123-3.079Z" transform="translate(31.874 27.677)" fill="#eeb595"/>
            <path id="Path_512" data-name="Path 512" d="M144.19,124.674a2.66,2.66,0,0,0-3.07,2.034L134.6,156.359a3.17,3.17,0,1,0,6.192,1.354.183.183,0,0,1,.022-.1l5.506-29.86a2.641,2.641,0,0,0-2.126-3.075Z" transform="translate(30.456 27.735)" fill="#eeb595"/>
            <path id="Path_513" data-name="Path 513" d="M137.559,126.7a2.469,2.469,0,0,0-2.891,1.911l-6.2,29.722a2.644,2.644,0,0,0,2.055,3.124c1.436.3,3.536-.573,3.835-2h.354l4.79-29.864a2.458,2.458,0,0,0-1.947-2.893Z" transform="translate(29.078 28.185)" fill="#eeb595"/>
            <path id="Path_514" data-name="Path 514" d="M151.2,149.83c-.228-.059-.69-.1-.69-.989l-5.857-1.272s-.1.814-.649.785c-.925-.048-.645-.948-.645-.948l-6.166-.2s-.313,1.026-1.119.8c-.664-.186-.6-1.149-.6-1.149l-5.681,1.837s-1.2,5.95-1.72,8.493c-2.167,10.721.642,22.159.642,22.159l19.42,3.9s6.081-10.524,8.651-29.034l-4.581-5.031S151.876,150,151.2,149.83Z" transform="translate(28.813 32.681)" fill="#eeb595"/>
            <path id="Path_515" data-name="Path 515" d="M160.7,149.14l-4.006,9.27s-2.358,4.935-8.953,2l-19.323,19.415,19.42,3.9s6.715-6.567,8.5-9.107c2.376-3.41,7.423-14.785,7.423-14.785l4.674-14.659S164.4,142.64,160.7,149.14Z" transform="translate(29.078 32.199)" fill="#eeb595"/>
            <path id="Path_516" data-name="Path 516" d="M156.667,164.382c-7.9,6.589-17.369,10.36-27.232,12.844l18.193,3.655s6.715-6.567,8.5-9.107c2.082-2.975,6.211-12.089,7.2-14.3a45.724,45.724,0,0,1-6.663,6.905Z" transform="translate(29.308 35.045)" opacity="0.05"/>
            <path id="Path_517" data-name="Path 517" d="M109.117,263.817l27.493,5.522c3.383-6.124,15.608-92.008,15.608-92.008l-19.42-3.9C128.892,186.129,109.117,263.817,109.117,263.817Z" transform="translate(24.708 38.595)" fill="#eeb595"/>
            <path id="Path_518" data-name="Path 518" d="M125.791,181.859l22.427,4.507,1.574-9.185-21.883-4.4Z" transform="translate(28.483 38.451)" fill="#aadce4"/>
            <path id="Path_519" data-name="Path 519" d="M107.556,261.922l30.91,6.21,13.881-83.418-22.427-4.507Z" transform="translate(24.354 40.103)" fill="#dbf0f4"/>
            <path id="Path_520" data-name="Path 520" d="M153.173,176.292a8.445,8.445,0,0,1-1.224-.186c-1.074-.238-2.149-.457-3.227-.666-2.022,6.872-3.988,13.759-6.469,20.486A156.545,156.545,0,0,1,132.8,216.24c-3.357,6.232-6.912,12.383-10.751,18.34l-.5.77c-2.857,5.358-5.894,10.624-8.953,15.86-1.067,1.822-2.171,3.629-3.29,5.425l-1.735,6.348,1.914.372h0l27.493,5.522h0l1.492.3,13.881-83.418,1.574-9.185-.869-.178Z" transform="translate(24.356 39.042)" fill="#231f20" opacity="0.08"/>
            <ellipse id="Ellipse_37" data-name="Ellipse 37" cx="1.541" cy="1.536" rx="1.541" ry="1.536" transform="translate(157.236 214.747)" fill="#f6fafd"/>
            <path id="Path_521" data-name="Path 521" d="M258.759,191.924l-1.914-9.118h0l-1.757.3c1.007-2.332,2.552-7.478,2.3-16.786a62.847,62.847,0,0,0-.746-7.649c-.037-.245-.075-.491-.116-.744-.075-.487-.157-.963-.239-1.428-.041-.231-.082-.461-.123-.684-.168-.9-.336-1.755-.5-2.532-.571-2.718-1.059-4.537-1.059-4.537h-.06l-2.238-6.206a2.227,2.227,0,0,0-.082-.309.674.674,0,0,0-.03-.078,2.15,2.15,0,0,0-.1-.231l-.03-.06a2.455,2.455,0,0,0-.164-.268l-.03-.037a2.277,2.277,0,0,0-.168-.208l-.048-.052a2.75,2.75,0,0,0-.5-.4l-.041-.026c-.086-.048-.172-.1-.261-.138h-.034a2.881,2.881,0,0,0-1.608-.216,2.679,2.679,0,0,0-2.354,2.953l-.1,2.778-1.615-5.578a3.061,3.061,0,0,0-5.969,1.1l.131,3.908-1.832-6.463a3.2,3.2,0,0,0-6.207,1.142l-.108,2.306-4.92-18.4a2.712,2.712,0,0,0-5.312,1.078l5.834,31.8c.134.982.28,1.937.436,2.874a93.421,93.421,0,0,1-5.734-9.605c-4-7.538-7.976-4.719-7.976-4.719l6.252,19.273s2.958,6.05,5.543,10.018c1.391,2.138,7.274,7.868,10.419,10.869q.037.283.1.692l-.936.167,1.365,9.2,11.986,83.72,1.492-.271h0l2.052-.372c2.238.06,6.935-.9,11.837-2.1l13.724-2.439h0l1.921-.342-.343-1.383.373-.115h0l-4.98-18.444Z" transform="translate(48.342 27.192)" fill="#231f20" opacity="0.2"/>
            <path id="Path_522" data-name="Path 522" d="M255.994,165.185a89.6,89.6,0,0,0-2.772-17.563h-.06l-2.238-6.206a2.772,2.772,0,0,0-5.446.915l-.1,2.778-1.615-5.578a3.061,3.061,0,0,0-5.969,1.1l.131,3.908-1.832-6.463a3.2,3.2,0,0,0-6.207,1.142l-.108,2.305-4.92-18.4a2.712,2.712,0,0,0-5.312,1.078l5.86,31.812c.134.982.28,1.937.436,2.874a93.429,93.429,0,0,1-5.734-9.605c-4-7.537-7.976-4.719-7.976-4.719l6.245,19.258s2.958,6.05,5.543,10.018c1.391,2.138,7.274,7.868,10.419,10.869,1.183,8.054,13.362,90.759,14.8,92.8,1.492,2.146,28.814-6.028,28.814-6.028l-24.33-89.331C254.629,179.911,256.263,174.742,255.994,165.185Z" transform="translate(48.034 26.938)" fill="#eeb595"/>
            <path id="Path_523" data-name="Path 523" d="M251.415,161.831a89.6,89.6,0,0,0-2.772-17.563h-.06l-2.238-6.206a2.558,2.558,0,0,0-1.806-1.945c.112.275.213.547.317.822a27.344,27.344,0,0,1,2.645,12.981,112.4,112.4,0,0,1-1.321,13.826,80.381,80.381,0,0,1-3.059,13.458c-.06.186-.123.372-.187.558-.272,1.3-.589,2.6-.981,3.852a30.119,30.119,0,0,1-4.749,9.534,68.074,68.074,0,0,1-4.85,7.69c3.988,26.733,11.128,73.78,12.21,75.312,1.492,2.146,28.814-6.028,28.814-6.028L249.046,178.8C250.049,176.557,251.683,171.388,251.415,161.831Z" transform="translate(52.613 30.291)" opacity="0.05"/>
            <path id="Path_524" data-name="Path 524" d="M230.653,174.724s10.288,86.137,13.53,92.332l27.6-4.9s-18.022-78.108-21.636-90.893Z" transform="translate(52.227 38.112)" fill="#eeb595"/>
            <path id="Path_525" data-name="Path 525" d="M229.558,174.536l1.365,9.218,22.52-4-1.914-9.118Z" transform="translate(51.979 37.972)" fill="#aadce4"/>
            <path id="Path_526" data-name="Path 526" d="M230.671,182.094l12,83.712,31.041-5.518-20.521-82.2Z" transform="translate(52.231 39.632)" fill="#dbf0f4"/>
            <path id="Path_527" data-name="Path 527" d="M250.37,179.748l-1.914-9.11h0s-5.327.915-5.323.948c4.264,6.991,8.088,35.326,8.345,41.681.291,7.266.63,14.532.839,21.8a302.215,302.215,0,0,1-.451,30.273L268.98,262.3h0l1.921-.342Z" transform="translate(55.053 37.974)" fill="#231f20" opacity="0.08"/>
            <ellipse id="Ellipse_38" data-name="Ellipse 38" cx="1.541" cy="1.536" rx="1.541" ry="1.536" transform="translate(299.223 212.095)" fill="#f6fafd"/>
            <path id="Path_528" data-name="Path 528" d="M302.283,167.285l-35.237-14.131a1.61,1.61,0,0,0-2.1.889l-8.36,20.686a1.6,1.6,0,0,0,.892,2.09l35.241,14.149a1.61,1.61,0,0,0,2.093-.889l8.36-20.69a1.6,1.6,0,0,0-.892-2.1Z" transform="translate(58.074 34.057)" fill="#231f20" opacity="0.25" style="mix-blend-mode: multiply;isolation: isolate"/>
            <path id="Path_529" data-name="Path 529" d="M301.653,165.95l-35.237-14.131a1.606,1.606,0,0,0-2.1.889l-8.36,20.657a1.6,1.6,0,0,0,.892,2.09l35.237,14.13a1.609,1.609,0,0,0,2.1-.889l8.36-20.686a1.6,1.6,0,0,0-.892-2.06Z" transform="translate(57.931 33.759)" fill="#ec6638"/>
            <path id="Path_917" data-name="Path 917" d="M0,0,5.778.006,5.823,41.2.045,41.192Z" transform="matrix(0.374, -0.928, 0.928, 0.374, 319.684, 192.829)" fill="#414042"/>
            <path id="Path_918" data-name="Path 918" d="M0,0,5.305.006l.042,37.806L.042,37.806Z" transform="matrix(0.374, -0.928, 0.928, 0.374, 318.807, 199.514)" fill="#fbdee2"/>
            <g id="Group_138" data-name="Group 138" transform="translate(324.055 183.079)" opacity="0.2" style="mix-blend-mode: multiply;isolation: isolate">
              <path id="Path_530" data-name="Path 530" d="M310.029,164l-35.237-14.131a1.571,1.571,0,0,0-.6-.119,1.612,1.612,0,0,0-1.492,1.008l-8.356,20.671a1.6,1.6,0,0,0,.892,2.09l35.241,14.13a1.613,1.613,0,0,0,2.093-.889l8.36-20.69A1.6,1.6,0,0,0,310.029,164Z" transform="translate(-264.225 -149.753)"/>
            </g>
            <path id="Path_531" data-name="Path 531" d="M309.376,162.661l-35.237-14.131a1.606,1.606,0,0,0-2.1.889l-8.36,20.686a1.6,1.6,0,0,0,.892,2.09l35.237,14.131a1.617,1.617,0,0,0,2.1-.889l8.36-20.69A1.6,1.6,0,0,0,309.376,162.661Z" transform="translate(59.68 33.028)" fill="#99d6de"/>
            <path id="Path_919" data-name="Path 919" d="M0,0,3.371,0l.02,18.032-3.371,0Z" transform="matrix(0.374, -0.928, 0.928, 0.374, 347.922, 193.291)" fill="#cceaef"/>
            <path id="Path_532" data-name="Path 532" d="M277.17,155.979l-3.757-1.506a1.072,1.072,0,0,0-1.4.591l-1.153,2.852a1.07,1.07,0,0,0,.593,1.391l3.757,1.51a1.072,1.072,0,0,0,1.4-.591l1.156-2.852a1.073,1.073,0,0,0-.6-1.394Z" transform="translate(61.315 34.359)" fill="#f7c2af"/>
            <path id="Path_533" data-name="Path 533" d="M277.214,155.919l-3.757-1.506a1.154,1.154,0,0,0-1.492.636l-1.16,2.856a1.148,1.148,0,0,0,.638,1.487l3.757,1.51a1.158,1.158,0,0,0,1.492-.636l1.153-2.852A1.155,1.155,0,0,0,277.214,155.919Zm.492,1.439-1.153,2.852a1,1,0,0,1-1.294.547l-3.757-1.51a.988.988,0,0,1-.548-1.287l1.153-2.852a.993.993,0,0,1,1.291-.547l3.756,1.487a1,1,0,0,1,.552,1.309Z" transform="translate(61.301 34.345)" fill="#0097ae"/>
            <path id="Path_534" data-name="Path 534" d="M274.681,155.573a1.211,1.211,0,1,0,.756,1.043,1.219,1.219,0,0,0-.756-1.043Zm.474,1.487a.979.979,0,0,1-.511.532l-.093.045.037.093a1.005,1.005,0,1,1-1.358-.535l.093-.041-.037-.093a1,1,0,1,1,1.865,0Z" transform="translate(61.689 34.601)" fill="#0097ae"/>
            <path id="Path_920" data-name="Path 920" d="M0,0H.744V.321H0Z" transform="translate(334.485 194.338) rotate(-68.12)" fill="#0097ae"/>
            <path id="Path_921" data-name="Path 921" d="M0,0H.744V.321H0Z" transform="matrix(0.374, -0.928, 0.928, 0.374, 336.197, 190.237)" fill="#0097ae"/>
            <path id="Path_922" data-name="Path 922" d="M0,0H.212l0,2.513H0Z" transform="matrix(0.374, -0.928, 0.928, 0.374, 336.785, 190.767)" fill="#0097ae"/>
            <path id="Path_923" data-name="Path 923" d="M0,0H.212l0,2.513H0Z" transform="matrix(0.374, -0.928, 0.928, 0.374, 333.355, 189.377)" fill="#0097ae"/>
            <path id="Path_924" data-name="Path 924" d="M0,0H.216l0,1.987H0Z" transform="translate(336.835 191.994) rotate(-68.07)" fill="#0097ae"/>
            <path id="Path_535" data-name="Path 535" d="M271.46,155.8l1.865.747.078-.2-1.861-.747Z" transform="translate(61.467 34.627)" fill="#0097ae"/>
            <path id="Path_925" data-name="Path 925" d="M0,0H.216l0,1.987H0Z" transform="translate(336.391 193.025) rotate(-68.07)" fill="#0097ae"/>
            <path id="Path_536" data-name="Path 536" d="M271.116,156.654l1.861.747.078-.2-1.861-.747Z" transform="translate(61.39 34.818)" fill="#0097ae"/>
            <path id="Path_926" data-name="Path 926" d="M0,0H.216l0,2.513H0Z" transform="matrix(0.374, -0.928, 0.928, 0.374, 335.516, 193.909)" fill="#0097ae"/>
            <path id="Path_927" data-name="Path 927" d="M0,0H.216l0,2.509H0Z" transform="translate(332.084 192.523) rotate(-68.05)" fill="#0097ae"/>
            <path id="Path_928" data-name="Path 928" d="M0,0,1.845,0l.017,15.284-1.845,0Z" transform="matrix(0.374, -0.928, 0.928, 0.374, 327.984, 202.619)" fill="#0097ae"/>
            <path id="Path_929" data-name="Path 929" d="M0,0,1.845,0l.007,6.757-1.845,0Z" transform="matrix(0.374, -0.928, 0.928, 0.374, 329.784, 198.177)" fill="#0097ae"/>
            <path id="Path_930" data-name="Path 930" d="M0,0,1.845,0l.007,6.757-1.845,0Z" transform="matrix(0.374, -0.928, 0.928, 0.374, 337.91, 201.44)" fill="#0097ae"/>
            <path id="Path_931" data-name="Path 931" d="M0,0,1.845,0l.007,6.757-1.845,0Z" transform="matrix(0.374, -0.928, 0.928, 0.374, 346.021, 204.68)" fill="#0097ae"/>
            <path id="Path_932" data-name="Path 932" d="M0,0,1.845,0l.007,6.757-1.845,0Z" transform="matrix(0.374, -0.928, 0.928, 0.374, 354.157, 207.965)" fill="#0097ae"/>
            <path id="Path_933" data-name="Path 933" d="M0,0,3.787,0,3.8,8.39l-3.787,0Z" transform="matrix(0.374, -0.928, 0.928, 0.374, 350.108, 213.595)" fill="#cceaef"/>
            <g id="Group_139" data-name="Group 139" transform="translate(-46.108 143.244)" opacity="0.25" style="mix-blend-mode: multiply;isolation: isolate">
              <path id="Path_537" data-name="Path 537" d="M135.134,233.823l-17.593-49.516.481-.164-3.029-8.8-.284-.826-2.746-7.973-.653.223L93.7,117.19c-.019-.048-.041,0-.09.03l-3.671,1.257c-.019-.048-.041,0-.09.03l-1.794.614c-.048,0-.1,0-.086.03l-2.443.837c0-.048-.041,0-.09.03l-1.791.614c-.052,0-.108,0-.09.03l-2.443.837c0-.048-.037,0-.09.03l-.6.2-1.194.409c-.049,0-.1-.019-.09.03l-2.44.837c-.019-.048-.041,0-.09.03l-.746.253-1.056.372c-.049,0-.1-.019-.09.03l-2.421.837c-.019-.048-.041,0-.09.03l-1.794.614c-.049,0-.1-.019-.086.03l-2.455.814c0-.048-.041,0-.09.03L66,126.657c-.048,0-.108-.019-.09.03l-2.443.837c0-.048-.037,0-.086.03L62.066,128l-.481.167c-.048,0-.1-.019-.09.03l-2.44.837c-.019-.048-.041,0-.09.03l-.224.074-1.571.539c-.048,0-.1-.019-.086.03l-2.443.837c0-.048-.041,0-.09.03l-1.794.614c-.048,0-.1-.019-.086.03l-2.443.837c0-.052-.041,0-.09.03l-1.444.495-.347.119c-.048,0-.1-.019-.09.03l-2.443.848c0-.052-.037,0-.086.03l-1.779.614c-.048,0-.1-.019-.09.03l-2.44.837c-.019-.052-.041,0-.09.03l-1.723.569-.086.03c-.049,0-.1-.019-.086.03l-2.443.837c0-.052-.041,0-.09.03l-1.686.576-.1.037c-.052,0-.108-.019-.09.03l-2.443.837c0-.052-.041,0-.09.03l-1.791.614c-.048,0-.1-.019-.09.03l-2.44.837c-.019-.052-.041,0-.09.03l-1.794.614c-.048,0-.1-.019-.09.03l-2.44.833c0-.048-.041,0-.09.033l-1.794.614c-.048,0-.1-.019-.086.03l-2.458.848c-.019-.048-.041,0-.09.033l-.821.279-.97.335c-.052,0-.108-.019-.09.03l-2.443.833c0-.048-.037,0-.09.033l-1.343.457-.448.156c-.048,0-.1-.019-.09.03l-2.425.833c0-.048-.041,0-.09.033l-1.119.372-.664.231c-.048,0-.1-.019-.09.03l-2.44.833c0-.048-.041,0-.09.033l-.638.216-1.156.4c-.048,0-.1-.019-.086.03l-2.443.833c0-.048-.041,0-.09.033l-1.791.614c-.048,0-.108-.019-.09.03l-2.455.852c0-.048-.037,0-.086.033l-1.794.614c-.048,0-.1-.019-.09.03l-2.44.811c0-.048-.041,0-.09.033l-1.806.628c-.048,0-.1,0-.086.03l-2.443.833c0-.048-.041,0-.09.033l-1.794.614c-.048,0-.1,0-.086.03l-2.443.833c0-.048-.041,0-.09.033l-1.791.614c-.048,0-.1,0-.09.03l-2.443.833c0-.048-.037,0-.086.033l-1.783.628c-.048,0-.1,0-.09.03l-2.44.833c0-.048-.041,0-.09.033l-1.794.591c-.048,0-.1,0-.086.03l-2.443.833c0-.048-.041,0-.09.033l-1.791.614c-.052,0-.108-.019-.09.03l-2.443.833c0-.048-.037,0-.09.033l-1.791.614c-.048,0-.1-.019-.09.03l-2.026.692,17.134,49.747.791,2.3L2.712,279.129l2.507-.859c0,.048.041,0,.09-.03l1.794-.614c.048,0,.1,0,.086-.033h0l2.443-.825h0c0,.048.041,0,.09-.03l1.776-.614c.048,0,.108.019.09-.033l2.443-.833c0,.048.037,0,.086-.03l1.429-.472.373-.126c.048,0,.1,0,.09-.033l2.44-.833c.019.048.041,0,.09-.03l.541-.186,1.253-.428c.048,0,.1.019.086-.034l2.443-.833c0,.048.041,0,.09-.03l1.794-.614c.048,0,.1,0,.086-.03l2.443-.837c0,.048.041,0,.09-.03l.88-.3.91-.309c.048-.019.108,0,.09-.03l2.443-.837h0c0,.048.037,0,.086-.03l1.794-.614c.048,0,.1,0,.09-.03l2.44-.837c0,.048.041,0,.09-.03l1.283-.439.511-.175c.048-.019.1,0,.086-.03h0l2.443-.848h0c0,.048.041,0,.09-.03l1.794-.614c.048,0,.1,0,.086-.03l2.443-.837c0,.048.041,0,.09-.03l1.791-.614c.049-.019.1,0,.09-.03l2.443-.837c0,.048.037,0,.086-.03l1.794-.614c.049,0,.1.019.09-.03l2.44-.837c0,.048.041,0,.09-.03l.66-.227,1.119-.372c.048-.019.1,0,.086-.03l2.443-.837h0c0,.048.041,0,.09-.03l1.791-.614c.052,0,.108.019.09-.03h0l2.443-.837h0c0,.048.037,0,.09-.03l1.824-.617c.049-.019.1,0,.09-.03h0l2.44-.837h0c.019.048.041,0,.09-.03l1.794-.614c.049,0,.1.019.09-.03l2.44-.837c.019.048.041,0,.09-.03L73.295,255c.048-.019.1,0,.086-.03l2.443-.837c0,.048.041,0,.09-.03l1.2-.413.589-.2c.049,0,.108.019.09-.03l2.443-.837c0,.048.037,0,.086-.03l1.418-.483.373-.13c.049-.019.1,0,.09-.03l2.44-.837c.019.048.041,0,.09-.03l.209-.071,1.585-.543c.049,0,.1.019.086-.03h0l2.443-.837c0,.048.041,0,.09-.03l1.794-.614c.048-.019.1,0,.086-.03h0l2.443-.837h0c0,.048.041,0,.09-.03l1.791-.614c.049,0,.1.019.09-.03h0l2.443-.837c0,.048.037,0,.086-.03l1.794-.614c.049-.019.1,0,.09-.03h0l2.44-.837h0c.019.048.041,0,.09-.03l1.794-.614c.049,0,.1.019.086-.03l2.443-.837h0c.019.048.041,0,.09-.03l1.791-.614c.052-.019.108,0,.09-.03l2.425-.863c0,.048.037,0,.09-.03l1.791-.614c.049,0,.1.019.09-.03l2.44-.837c.019.048.041,0,.09-.03l1.794-.614c.048,0,.1,0,.09-.03h0l2.44-.837c0,.048.041,0,.09-.03l1.794-.614c.049,0,.1.019.086-.03h0l2.443-.837h0c0,.048.041,0,.09-.03l1.791-.614c.052,0,.108,0,.09-.03h0l2.443-.837h0c0,.048.037,0,.09-.03l1.791-.614c.049,0,.1.019.09-.03h0Z" transform="translate(37.595 -117.17)" fill="#231f20"/>
            </g>
            <path id="Path_538" data-name="Path 538" d="M110.612,94.782a3.394,3.394,0,0,0-4.338-2.041l-26.34,9.891a3.377,3.377,0,0,0-1.91,4.388l20.058,53.068a3.4,3.4,0,0,0,4.338,2.045l26.34-9.891a3.384,3.384,0,0,0,1.906-4.384Z" transform="translate(17.613 20.594)" fill="#231f20" opacity="0.25" style="mix-blend-mode: multiply;isolation: isolate"/>
            <path id="Path_539" data-name="Path 539" d="M108.787,93.869a3.394,3.394,0,0,0-4.338-2.041l-26.34,9.891a3.377,3.377,0,0,0-1.91,4.388l20.058,53.068a3.4,3.4,0,0,0,4.338,2.045l26.34-9.891a3.384,3.384,0,0,0,1.906-4.384Z" transform="translate(17.2 20.391)" fill="#231f20"/>
            <path id="Path_934" data-name="Path 934" d="M0,0,30.256.032l.05,47.914L.05,47.914Z" transform="translate(97.161 129.851) rotate(-20.58)" fill="#ec6638"/>
            <path id="Path_540" data-name="Path 540" d="M98.452,135.139a.354.354,0,1,0,.455.2.351.351,0,0,0-.455-.2Z" transform="translate(22.241 30.069)" fill="#f9fbfa"/>
            <path id="Path_541" data-name="Path 541" d="M100.4,134.414a.373.373,0,1,0,.438-.02A.371.371,0,0,0,100.4,134.414Z" transform="translate(22.702 29.894)" fill="#f9fbfa"/>
            <path id="Path_542" data-name="Path 542" d="M102.367,133.666a.354.354,0,1,0,.25.662.349.349,0,0,0,.205-.454A.373.373,0,0,0,102.367,133.666Z" transform="translate(23.128 29.742)" fill="#f9fbfa"/>
            <path id="Path_543" data-name="Path 543" d="M104.422,132.754a.533.533,0,1,0,.554.063.531.531,0,0,0-.554-.062Z" transform="translate(23.575 29.532)" fill="#f9fbfa"/>
            <path id="Path_544" data-name="Path 544" d="M106.709,131.821a.62.62,0,1,0,.479.018.617.617,0,0,0-.479-.018Z" transform="translate(24.072 29.326)" fill="#f9fbfa"/>
            <g id="Mask_Group_8" data-name="Mask Group 8" transform="translate(97.162 119.241)" clip-path="url(#clip-path-3)">
              <path id="Path_545" data-name="Path 545" d="M117.022,107.415l-14.254-6.455a1.121,1.121,0,0,0-1.492.562l-10.99,24.126a1.114,1.114,0,0,0,.56,1.487l14.254,6.452a1.121,1.121,0,0,0,1.492-.558l10.99-24.13a1.114,1.114,0,0,0-.56-1.484Z" transform="translate(-76.741 -96.797)" fill="#231f20" opacity="0.2" style="mix-blend-mode: multiply;isolation: isolate"/>
              <path id="Path_546" data-name="Path 546" d="M116.561,106.176,102.3,99.725a1.121,1.121,0,0,0-1.492.558l-10.99,24.13a1.114,1.114,0,0,0,.56,1.487l14.272,6.452a1.121,1.121,0,0,0,1.492-.562l10.99-24.126a1.114,1.114,0,0,0-.574-1.487Z" transform="translate(-76.847 -97.071)" fill="#f9fbfa"/>
              <path id="Path_935" data-name="Path 935" d="M0,0,28.76.034l0,4.053L0,4.053Z" transform="matrix(0.413, -0.911, 0.911, 0.413, 14.234, 29.134)" fill="#414042"/>
              <path id="Path_936" data-name="Path 936" d="M0,0,26.4.032l0,3.721L0,3.721Z" transform="matrix(0.413, -0.911, 0.911, 0.413, 19.199, 30.094)" fill="#0097ae"/>
              <g id="Group_140" data-name="Group 140" transform="translate(14.172 3.635)" opacity="0.8" style="mix-blend-mode: multiply;isolation: isolate">
                <path id="Path_547" data-name="Path 547" d="M103.134,100.557,90.779,121.467l11.628,5.4a1.121,1.121,0,0,0,1.492-.562l9.9-21.739S103.391,99.992,103.134,100.557Z" transform="translate(-90.779 -100.509)" fill="#231f20" opacity="0.2"/>
              </g>
              <path id="Path_548" data-name="Path 548" d="M114.5,100.681l-14.258-6.455a1.121,1.121,0,0,0-1.492.558l-10.99,24.13a1.114,1.114,0,0,0,.56,1.487l14.254,6.452a1.121,1.121,0,0,0,1.492-.558l10.99-24.13a1.114,1.114,0,0,0-.556-1.484Z" transform="translate(-77.314 -98.295)" fill="#0097ae"/>
              <path id="Path_937" data-name="Path 937" d="M0,0,12.59.015l0,2.364L0,2.364Z" transform="matrix(0.413, -0.911, 0.911, 0.413, 16.949, 10.173)" fill="#f9fbfa"/>
              <path id="Path_938" data-name="Path 938" d="M.612,0l3.1,0a.614.614,0,0,1,.612.614l0,2.432a.611.611,0,0,1-.611.612l-3.1,0A.614.614,0,0,1,0,3.045L0,.613A.611.611,0,0,1,.612,0Z" transform="translate(15.275 20.881) rotate(-65.57)" fill="#f9fbfa"/>
              <path id="Path_549" data-name="Path 549" d="M96.107,112.513l-1.966-.889a.807.807,0,0,0-1.067.4L91.9,114.6a.8.8,0,0,0,.4,1.064l1.966.892a.807.807,0,0,0,1.067-.4l1.171-2.573a.8.8,0,0,0-.4-1.063Zm-.049.1h.034l-.619,1.354a.856.856,0,0,0-.433-.454l-.056-.019.522-1.149Zm-.746,1.982a.706.706,0,0,1-.929.346.685.685,0,0,1-.373-.372l-.026-.063-.067.022a.715.715,0,0,1-.519-.026.7.7,0,0,1,.582-1.272.711.711,0,0,1,.373.372l.026.067.067-.022a.685.685,0,0,1,.515.022.7.7,0,0,1,.366.926Zm.041-2.294-.5,1.171a.9.9,0,0,0-.373,0,.77.77,0,0,0-.228-.275l.533-1.171Zm-1.25-.576.552.253-.533,1.156-.052-.026a.853.853,0,0,0-.627-.03l.616-1.354Zm-.921.346a.687.687,0,0,1,.746-.394l-.686,1.506a.852.852,0,0,0-.228.234l-.373-.164Zm-.985,3.384a.686.686,0,0,1-.187-.811l.541-1.186.373.164a.815.815,0,0,0-.03.327Zm.157.1h-.03l.616-1.354a.864.864,0,0,0,.436.454l.056.019-.522,1.149Zm.69.312.533-1.171a.831.831,0,0,0,.373,0,.859.859,0,0,0,.228.275l-.533,1.171Zm1.276.576-.552-.249.522-1.149.052.03a.846.846,0,0,0,.63.026l-.616,1.354a.142.142,0,0,1-.045-.011Zm.9-.338a.7.7,0,0,1-.746.394L95.163,115a.852.852,0,0,0,.224-.238l.373.164Zm1.171-2.573-.541,1.182-.373-.164a.82.82,0,0,0,.034-.327l.686-1.506a.69.69,0,0,1,.205.811Z" transform="translate(-76.369 -94.417)" fill="#414042"/>
              <path id="Path_939" data-name="Path 939" d="M0,0,10.671.013l0,1.294L0,1.294Z" transform="translate(23.865 24.79) rotate(-65.57)" fill="#f9fbfa"/>
              <path id="Path_940" data-name="Path 940" d="M0,0,4.718.006l0,1.294L0,1.294Z" transform="matrix(0.413, -0.911, 0.911, 0.413, 20.8, 23.4)" fill="#f9fbfa"/>
              <path id="Path_941" data-name="Path 941" d="M0,0,4.718.006l0,1.294L0,1.294Z" transform="matrix(0.413, -0.911, 0.911, 0.413, 23.331, 17.842)" fill="#f9fbfa"/>
              <path id="Path_942" data-name="Path 942" d="M0,0,4.718.006l0,1.294L0,1.294Z" transform="matrix(0.413, -0.911, 0.911, 0.413, 25.862, 12.276)" fill="#f9fbfa"/>
              <path id="Path_943" data-name="Path 943" d="M0,0,4.718.006l0,1.294L0,1.294Z" transform="matrix(0.413, -0.911, 0.911, 0.413, 28.397, 6.718)" fill="#f9fbfa"/>
              <path id="Path_944" data-name="Path 944" d="M0,0,5.852.007l0,2.655L0,2.655Z" transform="translate(30.994 9.132) rotate(-65.59)" fill="#f9fbfa"/>
            </g>
            <path id="Path_946" data-name="Path 946" d="M0,0,21.21.022l0,1.592L0,1.592Z" transform="translate(114.312 162.545) rotate(-20.58)" fill="#f9fbfa"/>
            <path id="Path_947" data-name="Path 947" d="M0,0,13.816.014l0,1.592L0,1.592Z" transform="translate(114.31 162.547) rotate(-20.58)" fill="#0097ae"/>
            <path id="Path_550" data-name="Path 550" d="M104.448,91.828l-26.34,9.891a3.377,3.377,0,0,0-1.91,4.388l20.058,53.068a3.4,3.4,0,0,0,4.338,2.045L108.8,93.87a3.394,3.394,0,0,0-4.353-2.042Z" transform="translate(17.2 20.39)" fill="#fff" opacity="0.15"/>
            <path id="Path_948" data-name="Path 948" d="M.991,0,3.949,0a.993.993,0,0,1,.992.99V1.8a.988.988,0,0,1-.99.988l-2.958,0A.993.993,0,0,1,0,1.8V.989A.988.988,0,0,1,.991,0Z" transform="translate(127.036 172.278) rotate(-21.39)" fill="#666"/>
            <path id="Path_551" data-name="Path 551" d="M24.336,115.958,77.26,169.364l30.783-34.891L56.821,82.554Z" transform="translate(5.511 18.371)" opacity="0.05" fill="url(#linear-gradient-9)" style="mix-blend-mode: multiply;isolation: isolate"/>
            <path id="Path_552" data-name="Path 552" d="M58.169,84.471A22.93,22.93,0,0,0,26.088,86.52a22.214,22.214,0,0,0,2.055,31.652,22.926,22.926,0,0,0,32.063-2.049,22.214,22.214,0,0,0-2.037-31.652Z" transform="translate(4.624 17.555)" fill="#231f20" opacity="0.25" style="mix-blend-mode: multiply;isolation: isolate"/>
            <path id="Path_553" data-name="Path 553" d="M56.153,82.865A22.806,22.806,0,0,0,24.288,84.9,22.073,22.073,0,0,0,26.31,116.35a22.806,22.806,0,0,0,31.865-2.038,22.081,22.081,0,0,0-2.022-31.448Z" transform="translate(4.223 17.209)" fill="#e6e7e8"/>
            <path id="Path_554" data-name="Path 554" d="M57.029,82.281A23.864,23.864,0,0,0,23.7,84.412a23.119,23.119,0,0,0,2.111,32.894,23.864,23.864,0,0,0,33.331-2.131,23.123,23.123,0,0,0-2.111-32.894Zm.556,31.541a21.767,21.767,0,0,1-30.4,1.945,21.09,21.09,0,0,1-1.932-30.005,21.775,21.775,0,0,1,30.4-1.941,21.086,21.086,0,0,1,1.929,30Z" transform="translate(4.034 17.023)" fill="#f1f2f2"/>
            <path id="Path_555" data-name="Path 555" d="M53.662,85.133a21.081,21.081,0,0,1-.694,27.283,21.568,21.568,0,0,1-13.474,7.065q-.664,1.116-1.358,2.179a23.706,23.706,0,0,0,16.391-7.876,23.116,23.116,0,0,0-.149-30.972C54.158,83.575,53.92,84.356,53.662,85.133Z" transform="translate(8.635 18.429)" fill="#e6e7e8"/>
            <path id="Path_556" data-name="Path 556" d="M28.181,108.139,61.96,142.755l21.36-24.208L52.134,86.207Z" transform="translate(6.381 19.184)" opacity="0.1" fill="url(#linear-gradient-10)" style="mix-blend-mode: multiply;isolation: isolate"/>
            <path id="Path_557" data-name="Path 557" d="M50.2,86.621a15.161,15.161,0,0,0-21.2,1.182,14.68,14.68,0,0,0,1.522,20.9,15.157,15.157,0,0,0,21.2-1.183A14.683,14.683,0,0,0,50.2,86.621Z" transform="translate(5.734 18.44)" fill="#482b0e"/>
            <path id="Path_558" data-name="Path 558" d="M43.827,97.748a34.928,34.928,0,0,1-7.491,6.552,25.666,25.666,0,0,1-7.088,3.1l.373.353a15.161,15.161,0,0,0,21.2-1.183,14.631,14.631,0,0,0-.063-19.452,45.326,45.326,0,0,1-6.935,10.631Z" transform="translate(6.623 19.387)" fill="#3c2415"/>
            <path id="Path_559" data-name="Path 559" d="M51.281,85.888A16.551,16.551,0,0,0,39.31,81.843a16.06,16.06,0,0,0-11.042,5.34,15.672,15.672,0,0,0-3.962,11.509,16.139,16.139,0,0,0,5.6,11.215,16.559,16.559,0,0,0,11.978,4.046A16.06,16.06,0,0,0,52.919,108.6,15.672,15.672,0,0,0,56.88,97.07,16.139,16.139,0,0,0,51.281,85.888Zm-.287,21.017a13.483,13.483,0,0,1-9.281,4.485A13.983,13.983,0,0,1,31.6,107.973a13.6,13.6,0,0,1-4.723-9.445,13.13,13.13,0,0,1,3.316-9.638A13.494,13.494,0,0,1,39.478,84.4a13.983,13.983,0,0,1,10.113,3.417,13.6,13.6,0,0,1,4.719,9.445,13.1,13.1,0,0,1-3.316,9.639Z" transform="translate(5.496 18.205)" fill="#fff"/>
            <line id="Line_7" data-name="Line 7" x1="0.53" y1="1.153" transform="translate(60.876 99.326)" fill="#8b5e3c"/>
            <path id="Path_560" data-name="Path 560" d="M52.193,80.005a2.183,2.183,0,0,0-3.048.253l-4.1,4.8a2.108,2.108,0,0,0,.254,3,2.172,2.172,0,0,0,3.044-.253l4.1-4.793a2.111,2.111,0,0,0-.25-3.008Z" transform="translate(10.083 17.692)" fill="#fff"/>
            <path id="Path_561" data-name="Path 561" d="M20.923,81.415a3.217,3.217,0,0,0,.295,4.578L32.289,93.8a3.881,3.881,0,0,0,1.794-1.116,3.159,3.159,0,0,0,.72-1.722L25.563,81.1A3.32,3.32,0,0,0,20.923,81.415Z" transform="translate(4.552 17.871)" fill="#a7a9ac"/>
            <path id="Path_562" data-name="Path 562" d="M21.471,84.268a2.834,2.834,0,0,1,2.175-3.957,3.292,3.292,0,0,0-2.723,1.09,3.217,3.217,0,0,0,.295,4.578l11.072,7.809a3.822,3.822,0,0,0,1.026-.457S22.109,85.606,21.471,84.268Z" transform="translate(4.552 17.87)" fill="#939598"/>
            <path id="Path_563" data-name="Path 563" d="M30.727,98.693a1.168,1.168,0,1,0,1.25,1.086A1.169,1.169,0,0,0,30.727,98.693Z" transform="translate(6.711 21.963)" fill="#806142"/>
            <path id="Path_564" data-name="Path 564" d="M33.561,97.684a.917.917,0,1,0,.668.223A.916.916,0,0,0,33.561,97.684Z" transform="translate(7.406 21.738)" fill="#806142"/>
            <path id="Path_565" data-name="Path 565" d="M32,95.886a.807.807,0,1,0,.869.744A.808.808,0,0,0,32,95.886Z" transform="translate(7.076 21.338)" fill="#806142"/>
            <path id="Path_566" data-name="Path 566" d="M58.549,184.09l57.2,57.638c8.423-3.038,74.88,4.585,81.949,3.373L68.338,115.535Z" transform="translate(13.257 25.711)" opacity="0.15" fill="url(#linear-gradient-11)" style="mix-blend-mode: multiply;isolation: isolate"/>
            <path id="Path_567" data-name="Path 567" d="M90.873,115.623-40.333,160.517-.044,277.54l132.429-45.314L90.963,115.586C90.944,115.545,90.922,115.6,90.873,115.623Z" transform="translate(-9.133 25.719)" fill="#cc9773"/>
            <path id="Path_568" data-name="Path 568" d="M-29.514,148.741c0-.048-.041,0-.09.033l-1.794.614c-.048,0-.1,0-.086.03L9.3,266.285c0,.048.037,0,.086-.03l1.794-.614c.048,0,.1,0,.09-.034Z" transform="translate(-7.13 33.096)" fill="#d09e7d"/>
            <path id="Path_569" data-name="Path 569" d="M-25.919,147.525c0-.048-.037,0-.086.033l-1.794.614c-.048,0-.1,0-.09.03l40.781,116.83c.019.048.041,0,.09-.03l1.794-.614c.048,0,.1.019.086-.033Z" transform="translate(-6.315 32.825)" fill="#d09e7d"/>
            <path id="Path_570" data-name="Path 570" d="M-22.321,146.281c0-.048-.041,0-.09.033l-1.791.614c-.048,0-.1,0-.09.03L16.49,263.82c.019.048.041,0,.09-.03l1.794-.614c.048,0,.1,0,.086-.03Z" transform="translate(-5.501 32.549)" fill="#d09e7d"/>
            <path id="Path_571" data-name="Path 571" d="M-18.722,145.046c0-.048-.041,0-.09.033l-1.794.614c-.048,0-.1,0-.086.03L20.089,262.578c0,.048.041,0,.09-.03l1.791-.614c.048-.019.108,0,.09-.03Z" transform="translate(-4.686 32.274)" fill="#d09e7d"/>
            <path id="Path_572" data-name="Path 572" d="M-15.122,143.811c0-.048-.041,0-.09.033l-1.806.614c-.048,0-.1,0-.086.03L23.689,261.343c0,.048.037,0,.086-.03l1.794-.614c.048,0,.1,0,.09-.03Z" transform="translate(-3.873 31.999)" fill="#d09e7d"/>
            <path id="Path_573" data-name="Path 573" d="M-11.529,142.576c0-.048-.037,0-.086.033l-1.794.614c-.048,0-.1-.019-.09.03L27.282,260.108c0,.048.041,0,.09-.03l1.8-.614c.048-.019.1,0,.086-.03Z" transform="translate(-3.057 31.724)" fill="#d09e7d"/>
            <path id="Path_574" data-name="Path 574" d="M-7.93,141.341c0-.048-.041,0-.09.033l-1.791.614c-.048,0-.108-.019-.09.03L30.881,258.873c0,.048.041,0,.09-.03l1.794-.617c.049,0,.1,0,.086-.03Z" transform="translate(-2.242 31.449)" fill="#d09e7d"/>
            <path id="Path_575" data-name="Path 575" d="M-4.332,140.106c-.019-.048-.041,0-.09.033l-1.794.614c-.048,0-.1-.019-.086.03L34.479,257.638c0,.048.041,0,.09-.03L36.359,257c.049-.019.1,0,.09-.03Z" transform="translate(-1.428 31.175)" fill="#d09e7d"/>
            <path id="Path_576" data-name="Path 576" d="M-.733,138.871c-.019-.048-.041,0-.09.033l-1.794.614c-.048,0-.1-.019-.09.03L38.078,256.4c0,.048.037,0,.086-.03l1.794-.614c.048,0,.1.019.09-.03Z" transform="translate(-0.613 30.9)" fill="#d09e7d"/>
            <path id="Path_577" data-name="Path 577" d="M2.861,137.636c0-.048-.037,0-.09.033l-1.791.614c-.048,0-.1-.019-.09.03L41.672,255.169c0,.048.041,0,.09-.03l1.794-.614c.048-.019.1,0,.086-.03Z" transform="translate(0.201 30.625)" fill="#d09e7d"/>
            <path id="Path_578" data-name="Path 578" d="M6.445,136.4c-.019-.048-.041,0-.09.033l-1.776.614c-.052,0-.108-.019-.09.03L45.271,253.934c0,.048.041,0,.09-.03l1.791-.614c.052,0,.108.019.09-.03Z" transform="translate(1.016 30.35)" fill="#d09e7d"/>
            <path id="Path_579" data-name="Path 579" d="M10.058,135.17c-.019-.052-.041,0-.09.03l-1.794.614c-.048,0-.1-.019-.086.03L48.869,252.7c0,.048.037,0,.09-.03l1.791-.614c.049-.019.1,0,.09-.03Z" transform="translate(1.831 30.076)" fill="#d09e7d"/>
            <path id="Path_580" data-name="Path 580" d="M13.657,133.935c-.019-.052-.041,0-.09.03l-1.794.614c-.048,0-.1-.019-.09.03L52.464,251.463c.019.048.041,0,.09-.03l1.794-.614c.048,0,.1.019.09-.03Z" transform="translate(2.645 29.801)" fill="#d09e7d"/>
            <path id="Path_581" data-name="Path 581" d="M17.251,132.7c0-.052-.041,0-.09.03l-1.791.617c-.048,0-.1-.019-.09.03L56.063,250.228c.019.048.041,0,.09-.03l1.794-.614c.048-.019.1,0,.086-.03Z" transform="translate(3.46 29.526)" fill="#d09e7d"/>
            <path id="Path_582" data-name="Path 582" d="M20.85,131.465c0-.052-.041,0-.09.03l-1.791.614c-.052,0-.108-.019-.09.03L59.661,248.994c0,.048.041,0,.09-.03l1.791-.614c.048,0,.108.019.09-.03Z" transform="translate(4.274 29.251)" fill="#d09e7d"/>
            <path id="Path_583" data-name="Path 583" d="M24.448,130.23c-.019-.052-.041,0-.09.03l-1.794.614c-.048,0-.1-.019-.086.03L63.259,247.759c0,.048.037,0,.086-.03l1.794-.614c.048-.019.1,0,.09-.03Z" transform="translate(5.089 28.976)" fill="#d09e7d"/>
            <path id="Path_584" data-name="Path 584" d="M28.041,129c0-.052-.037,0-.086.03l-1.779.614c-.048,0-.1-.019-.09.03L66.837,246.524c.019.048.041,0,.09-.03l1.794-.614c.048,0,.1.019.086-.03Z" transform="translate(5.906 28.702)" fill="#d09e7d"/>
            <path id="Path_585" data-name="Path 585" d="M31.642,127.754c0-.052-.041,0-.09.03l-1.791.614c-.048,0-.1-.019-.09.03L70.453,245.29c0,.048.041,0,.09-.03l1.794-.614c.048-.019.1,0,.086-.03Z" transform="translate(6.718 28.425)" fill="#d09e7d"/>
            <path id="Path_586" data-name="Path 586" d="M35.24,126.537c0-.048-.041,0-.09.03l-1.794.614c-.048,0-.1-.019-.086.03L74.051,244.043c0,.048.041,0,.09-.03l1.791-.614c.048,0,.1.019.09-.03Z" transform="translate(7.533 28.155)" fill="#d09e7d"/>
            <path id="Path_587" data-name="Path 587" d="M38.838,125.29c0-.048-.041,0-.09.03l-1.794.614c-.048,0-.1-.019-.086.03L77.649,242.834c0,.048.037,0,.086-.03l1.794-.614c.048-.019.1,0,.09-.03Z" transform="translate(8.347 27.877)" fill="#d09e7d"/>
            <path id="Path_588" data-name="Path 588" d="M42.433,124.055c0-.048-.037,0-.086.03l-1.794.614c-.048,0-.1-.019-.09.03L81.244,241.584c.019.048.041,0,.09-.03l1.794-.614c.049,0,.1.019.086-.03Z" transform="translate(9.162 27.603)" fill="#d09e7d"/>
            <path id="Path_589" data-name="Path 589" d="M46.032,122.82c0-.048-.041,0-.09.03l-1.791.614c-.048,0-.108-.019-.09.03L84.843,240.349c0,.048.041,0,.09-.03l1.791-.614c.052-.019.108,0,.09-.03Z" transform="translate(9.976 27.328)" fill="#d09e7d"/>
            <path id="Path_590" data-name="Path 590" d="M49.639,121.585c-.019-.048-.041,0-.09.03l-1.794.614c-.048,0-.1-.019-.086.03L88.435,239.114c0,.048.037,0,.09-.03l1.791-.614c.048,0,.1.019.09-.03Z" transform="translate(10.793 27.053)" fill="#d09e7d"/>
            <path id="Path_591" data-name="Path 591" d="M53.229,120.35c-.019-.048-.041,0-.09.03l-1.794.614c-.048,0-.1-.019-.09.03L92.036,237.879c.019.048.041,0,.09-.03l1.794-.614c.048,0,.1,0,.09-.03Z" transform="translate(11.605 26.778)" fill="#d09e7d"/>
            <path id="Path_592" data-name="Path 592" d="M56.824,119.115c0-.048-.037,0-.09.03l-1.791.614c-.048,0-.1-.019-.09.03L95.635,236.644c0,.048.041,0,.09-.03L97.518,236c.048,0,.1.019.086-.03Z" transform="translate(12.42 26.503)" fill="#d09e7d"/>
            <path id="Path_593" data-name="Path 593" d="M60.422,117.88c0-.048-.041,0-.09.03l-1.791.614c-.052,0-.108,0-.09.03L99.233,235.409c0,.048.041,0,.09-.03l1.791-.614c.052,0,.108,0,.09-.03Z" transform="translate(13.235 26.228)" fill="#d09e7d"/>
            <path id="Path_594" data-name="Path 594" d="M64.02,116.646c-.019-.048-.041,0-.09.03l-1.794.614c-.048,0-.1,0-.086.03l40.781,116.856c0,.048.037,0,.09-.03l1.791-.614c.049,0,.1.019.09-.03Z" transform="translate(14.049 25.954)" fill="#d09e7d"/>
            <path id="Path_949" data-name="Path 949" d="M0,0,140.31.135l.018,18.652L.018,18.652Z" transform="matrix(0.948, -0.319, 0.319, 0.948, -33.469, 236.717)" opacity="0.1"/>
            <path id="Path_950" data-name="Path 950" d="M0,0,139.966.137l0,1.745L0,1.745Z" transform="translate(-29.572 243.953) rotate(-18.95)" opacity="0.1"/>
            <g id="Group_142" data-name="Group 142" transform="translate(20.186 168.99)" opacity="0.2" style="mix-blend-mode: multiply;isolation: isolate">
              <path id="Path_595" data-name="Path 595" d="M51.189,150.661a.475.475,0,0,0-.481-.093.5.5,0,0,0-.2.13l-2.611,2.9a.475.475,0,0,0-.123.338.464.464,0,0,0,.157.324l3.037,2.729-1.414.48-.235-.744a.47.47,0,0,0-.865-.074L46.3,160.786a.452.452,0,0,0-.03.372.465.465,0,0,0,.235.275l4.1,2.056a.512.512,0,0,0,.519-.052.457.457,0,0,0,.145-.491l-.209-.68,4.476-1.346c.179-.059.216-.3.246-.469a.252.252,0,0,1,0-.052l.787-4.518a.6.6,0,0,0-.168-.5Zm-2.272,3.213,1.992-2.209,4.353,3.912-3.286,1.049Zm5.995,6.017-4.577,1.659c-.287.1-.4.26-.328.48l.052.175-2.7-1.376,1.406-2.729.034.108a.432.432,0,0,0,.231.268.329.329,0,0,0,.272,0h.071l6.122-1.908Z" transform="translate(-9.715 -135.489)"/>
              <path id="Path_596" data-name="Path 596" d="M47.047,158.859a.47.47,0,0,0-.6-.29l-3.865,1.32.265-1.469.768.156a.478.478,0,0,0,.485-.2.464.464,0,0,0,0-.521l-2.593-3.882a.475.475,0,0,0-.657-.13l-3.79,2.6a.472.472,0,0,0-.2.3.426.426,0,0,0,0,.171.462.462,0,0,0,.373.372l.873.178-.821,4.581h0a.464.464,0,0,0,.16.443l3.5,2.86a.438.438,0,0,0,.433.078l6.666-2.291a.472.472,0,0,0,.291-.6Zm-6.181,5.206-2.581-2.1.91-4.749h0a.517.517,0,0,0-.422-.55l-.261-.052,2.473-1.692,1.7,2.544-.123-.026a.456.456,0,0,0-.351.071.394.394,0,0,0-.149.283Zm.888.249.668-3.373,3.895-1.339.974,2.8Z" transform="translate(-11.84 -134.771)"/>
              <path id="Path_597" data-name="Path 597" d="M50.223,148.018a.373.373,0,0,0-.142-.093.46.46,0,0,0-.5.112l-.612.647-3.488-3.1h0a.46.46,0,0,0-.455-.086l-4.279,1.487a.443.443,0,0,0-.295.331l-1.533,6.857a.472.472,0,0,0,.373.562l3.82.848a.468.468,0,0,0,.257,0,.34.34,0,0,0,.1-.048.469.469,0,0,0,.209-.294l.858-4.016,1.119.989-.537.573a.468.468,0,0,0,.373.788l4.678-.167a.411.411,0,0,0,.134-.026.421.421,0,0,0,.194-.126.456.456,0,0,0,.123-.338l-.235-4.566a.46.46,0,0,0-.16-.331Zm-7.394,6.522-2.906-.643,1.272-5.7,2.533,2.335Zm3.73-1.937.086-.089a.464.464,0,0,0,.123-.338.372.372,0,0,0-.164-.271l-4.749-4.332,3.152-1.071L48.6,149.77h0a.464.464,0,0,0,.455.059.549.549,0,0,0,.228-.141l.183-.193.149,2.975Z" transform="translate(-11.375 -136.617)"/>
              <path id="Path_598" data-name="Path 598" d="M61.471,147.919l-2.22-1.521-2.223-1.521-.813,2.562L55.4,150l2.182-.747,3.033,8.813,1.757-.6-3.037-8.813Z" transform="translate(-7.642 -136.749)"/>
              <path id="Path_599" data-name="Path 599" d="M68.92,145.361,66.7,143.844l-2.22-1.521-.813,2.558-.817,2.558,2.1-.718,3.037,8.813,1.753-.6L66.7,146.123Z" transform="translate(-5.955 -137.317)"/>
              <path id="Path_600" data-name="Path 600" d="M63.348,141.263l-2.22-1.517-2.216-1.517-.817,2.558-.821,2.551,2.179-.744,5.3,15.387,1.757-.6L61.206,142Z" transform="translate(-7.217 -138.229)"/>
              <path id="Path_601" data-name="Path 601" d="M20.2,161.187a.9.9,0,0,0-1.171.405.88.88,0,0,0,.373,1.179l3.984,1.941c-.056.152-.1.309-.149.465l-4.051-1.971a1.363,1.363,0,0,1,.16-2.518,1.2,1.2,0,0,1,.22-.056l-.992-2.941a1.086,1.086,0,0,0-2.055.7l2.328,6.764.343,1.049,5.6,2.547,1.045,3.034,3.425-1.171-2.048-5.95Z" transform="translate(-16.459 -134.06)"/>
              <path id="Path_602" data-name="Path 602" d="M35.05,159.76,32.722,153a1.119,1.119,0,0,0-2.108.721l1.007,2.926a.889.889,0,0,1,.168-.078,1.3,1.3,0,0,1,1.018.074,1.355,1.355,0,0,1,.69.785,1.331,1.331,0,0,1-.071,1.041l-1.981,4.038c-.131-.1-.269-.19-.407-.275l1.951-3.975a.88.88,0,0,0-.4-1.179.852.852,0,0,0-1.156.4l-3.357,7.036,2.052,5.95,3.425-1.171-1.045-3.034,2.884-5.459Z" transform="translate(-13.828 -135.087)"/>
              <path id="Path_603" data-name="Path 603" d="M19.661,156.19l5.79,1.019,3.906-4.31-5.778-1.156Z" transform="translate(-15.734 -135.221)"/>
              <path id="Path_604" data-name="Path 604" d="M24.647,157.293l1.94,5.57,3.868-4.388-1.9-5.556Z" transform="translate(-14.605 -134.959)"/>
              <path id="Path_605" data-name="Path 605" d="M19.646,155.736l1.88,5.492,5.786,1.156-1.9-5.593Z" transform="translate(-15.737 -134.332)"/>
            </g>
          </g>
        </g>
      </g>
    </g>
  </g>
</svg>
