<svg xmlns="http://www.w3.org/2000/svg" width="100.891" height="100.891" viewBox="0 0 100.891 100.891">
  <g id="distribution-center" transform="translate(-1 -1)">
    <path id="Path_342" data-name="Path 342" d="M65.818,64.191V39.782a1.634,1.634,0,0,0-.519-1.193L42.517,17.434a1.628,1.628,0,0,0-2.215,0L17.521,38.589A1.63,1.63,0,0,0,17,39.782V64.191a1.628,1.628,0,0,0,1.627,1.627H64.191A1.628,1.628,0,0,0,65.818,64.191Zm-3.255-1.627H20.255V40.491L41.409,20.849,62.564,40.491Z" transform="translate(10.036 10.036)" fill="#41b6e6"/>
    <path id="Path_343" data-name="Path 343" d="M37,38.627v6.509a1.628,1.628,0,0,0,1.627,1.627h6.509a1.628,1.628,0,0,0,1.627-1.627V38.627A1.628,1.628,0,0,0,45.136,37H38.627A1.628,1.628,0,0,0,37,38.627Zm3.255,1.627h3.255v3.255H40.255Z" transform="translate(22.582 22.582)" fill="#004b87"/>
    <path id="Path_344" data-name="Path 344" d="M37.136,37H30.627A1.628,1.628,0,0,0,29,38.627v6.509a1.628,1.628,0,0,0,1.627,1.627h6.509a1.628,1.628,0,0,0,1.627-1.627V38.627A1.628,1.628,0,0,0,37.136,37Zm-1.627,6.509H32.255V40.255h3.255Z" transform="translate(17.564 22.582)" fill="#004b87"/>
    <path id="Path_345" data-name="Path 345" d="M29.136,37H22.627A1.628,1.628,0,0,0,21,38.627v6.509a1.628,1.628,0,0,0,1.627,1.627h6.509a1.628,1.628,0,0,0,1.627-1.627V38.627A1.628,1.628,0,0,0,29.136,37Zm-1.627,6.509H24.255V40.255h3.255Z" transform="translate(12.546 22.582)" fill="#004b87"/>
    <path id="Path_346" data-name="Path 346" d="M34.627,38.764h6.509a1.628,1.628,0,0,0,1.627-1.627V30.627A1.628,1.628,0,0,0,41.136,29H34.627A1.628,1.628,0,0,0,33,30.627v6.509A1.628,1.628,0,0,0,34.627,38.764Zm1.627-6.509h3.255v3.255H36.255Z" transform="translate(20.073 17.564)" fill="#004b87"/>
    <path id="Path_347" data-name="Path 347" d="M32.882,13.787v9.995h3.255V13.787a6.509,6.509,0,1,0-3.255,0Zm1.627-9.533a3.255,3.255,0,1,1-3.255,3.255A3.258,3.258,0,0,1,34.509,4.255Z" transform="translate(16.936)" fill="#004b87"/>
    <path id="Path_348" data-name="Path 348" d="M32.882,49v9.995a6.509,6.509,0,1,0,3.255,0V49Zm4.882,16.273a3.255,3.255,0,1,1-3.255-3.255A3.258,3.258,0,0,1,37.764,65.273Z" transform="translate(16.936 30.109)" fill="#004b87"/>
    <path id="Path_349" data-name="Path 349" d="M7.509,41.018a6.5,6.5,0,0,0,6.278-4.882h9.995V32.882H13.787a6.5,6.5,0,1,0-6.278,8.136Zm0-9.764a3.255,3.255,0,1,1-3.255,3.255A3.258,3.258,0,0,1,7.509,31.255Z" transform="translate(0 16.936)" fill="#004b87"/>
    <path id="Path_350" data-name="Path 350" d="M65.273,28a6.5,6.5,0,0,0-6.278,4.882H49v3.255h9.995A6.5,6.5,0,1,0,65.273,28Zm0,9.764a3.255,3.255,0,1,1,3.255-3.255A3.258,3.258,0,0,1,65.273,37.764Z" transform="translate(30.109 16.936)" fill="#004b87"/>
    <path id="Path_351" data-name="Path 351" d="M10.509,16.994a6.447,6.447,0,0,0,3.289-.919L32.139,34.416l2.3-2.3L16.1,13.774a6.44,6.44,0,0,0-.988-7.891,6.661,6.661,0,0,0-9.2,0,6.509,6.509,0,0,0,4.6,11.111Zm-2.3-8.81a3.254,3.254,0,1,1,4.6,4.6,3.33,3.33,0,0,1-4.6,0,3.253,3.253,0,0,1,0-4.6Z" transform="translate(1.882 1.906)" fill="#004b87"/>
    <path id="Path_352" data-name="Path 352" d="M56.278,65.482a6.508,6.508,0,1,0,9.2-9.2A6.678,6.678,0,0,0,57.6,55.3l-7.082-7.082-2.3,2.3,7.067,7.067a6.446,6.446,0,0,0,.989,7.892Zm6.9-6.9a3.253,3.253,0,0,1,0,4.6,3.33,3.33,0,0,1-4.6,0,3.254,3.254,0,1,1,4.6-4.6Z" transform="translate(29.621 29.621)" fill="#004b87"/>
    <path id="Path_353" data-name="Path 353" d="M60.623,5.883a6.44,6.44,0,0,0-.988,7.891L41.293,32.117l2.3,2.3L61.937,16.075A6.5,6.5,0,0,0,69.827,5.883a6.661,6.661,0,0,0-9.2,0Zm7.856,4.6a3.232,3.232,0,0,1-.954,2.3,3.33,3.33,0,0,1-4.6,0,3.254,3.254,0,1,1,5.556-2.3Z" transform="translate(25.275 1.906)" fill="#004b87"/>
    <path id="Path_354" data-name="Path 354" d="M20.865,48.222,13.783,55.3a6.676,6.676,0,0,0-7.878.975,6.508,6.508,0,1,0,11.113,4.6A6.447,6.447,0,0,0,16.1,57.59l7.067-7.067ZM12.81,63.18a3.33,3.33,0,0,1-4.6,0,3.255,3.255,0,1,1,4.6,0Z" transform="translate(1.882 29.621)" fill="#004b87"/>
  </g>
</svg>
