<svg xmlns="http://www.w3.org/2000/svg" width="94.82" height="77.782" viewBox="0 0 94.82 77.782">
  <g id="parcel" transform="translate(0 -0.5)">
    <path id="Path_361" data-name="Path 361" d="M89.264,3.463H25.557A5.562,5.562,0,0,0,20,9.019v8.863L3.161,1.043A1.852,1.852,0,0,0,.543,3.661L22.357,25.475,10.831,37l-7.67-7.67a1.852,1.852,0,1,0-2.619,2.62L15.937,47.345l0,1.667A19.127,19.127,0,0,0,20,60.773V72.726a5.562,5.562,0,0,0,5.556,5.556H89.264a5.562,5.562,0,0,0,5.556-5.556V30.5a1.852,1.852,0,1,0-3.7,0V72.726a1.854,1.854,0,0,1-1.852,1.852H50.6c.077-.069.153-.14.228-.214a5.31,5.31,0,0,0,1.1-1.6A5.349,5.349,0,0,0,59.1,65.6a5.349,5.349,0,0,0,1.6-8.663L54.32,50.554a5.892,5.892,0,0,0,5.188-2.393l.061-.083a6.014,6.014,0,0,0-1.25-8.356c-1.659-1.233-3.906-2.91-6.679-4.985a22.786,22.786,0,0,0-13.563-4.511h-.025l-5.7.006-8.646-8.646V9.019a1.854,1.854,0,0,1,1.852-1.852H44.891V26.053a1.852,1.852,0,0,0,3.161,1.31l4.024-4.024L56.1,27.362a1.851,1.851,0,0,0,2.619,0l4.024-4.024,4.024,4.024a1.852,1.852,0,0,0,3.162-1.309V7.167H89.264a1.854,1.854,0,0,1,1.852,1.852v6.665a1.852,1.852,0,0,0,3.7,0V9.019A5.562,5.562,0,0,0,89.264,3.463ZM23.705,72.726V64.672l6.051,6.051h0l3.854,3.854H25.557A1.854,1.854,0,0,1,23.705,72.726Zm14.351-38.8h.02A19.057,19.057,0,0,1,49.421,37.7c2.776,2.077,5.027,3.757,6.689,4.992a2.3,2.3,0,0,1,.47,3.2l-.061.083a2.185,2.185,0,0,1-2.944.545l-7.107-4.581a2.147,2.147,0,0,0-2.68,3.323L58.079,59.552A1.643,1.643,0,0,1,55.9,62l-7.173-7.173a1.844,1.844,0,0,0-.155-.137l-.733-.733a1.852,1.852,0,1,0-2.62,2.619L53.136,64.5c.082.082.167.16.253.236l2.09,2.09a1.643,1.643,0,1,1-2.324,2.324l-2.091-2.091c-.075-.085-.153-.17-.235-.252l-7.036-7.036a1.974,1.974,0,0,0-.156-.137L42.9,58.9a1.852,1.852,0,1,0-2.619,2.619l8.052,8.052a1.643,1.643,0,0,1-2.452,2.18l-2.338-2.338c-.076-.087-.154-.171-.236-.253L38.859,64.7a1.974,1.974,0,0,0-.156-.137l-.733-.733a1.852,1.852,0,1,0-2.619,2.62l5.469,5.469A1.643,1.643,0,0,1,38.369,74.1l-9.7-9.7v0l-4.554-4.553a15.382,15.382,0,0,1-4.474-10.823l0-2.692L32.034,33.936ZM17.28,43.45,13.45,39.62,24.975,28.094l3.831,3.831ZM66.226,21.582,64.054,19.41a1.853,1.853,0,0,0-2.619,0l-4.024,4.024L53.386,19.41a1.851,1.851,0,0,0-2.619,0L48.6,21.582V7.167H66.226Zm0,0" fill="#004b87"/>
    <path id="Path_362" data-name="Path 362" d="M387.7,299.656H375.852a1.852,1.852,0,1,0,0,3.7H387.7a1.852,1.852,0,1,0,0-3.7Zm0,0" transform="translate(-304.737 -243.754)" fill="#41b6e6"/>
    <path id="Path_363" data-name="Path 363" d="M404.545,340.9H396.52a1.852,1.852,0,1,0,0,3.7h8.025a1.852,1.852,0,0,0,0-3.7Zm0,0" transform="translate(-321.577 -277.361)" fill="#41b6e6"/>
    <path id="Path_364" data-name="Path 364" d="M356.52,340.9a1.852,1.852,0,1,0,1.309.543A1.862,1.862,0,0,0,356.52,340.9Zm0,0" transform="translate(-288.985 -277.358)" fill="#41b6e6"/>
    <path id="Path_365" data-name="Path 365" d="M493.852,112.488a1.853,1.853,0,1,0,1.309.543A1.867,1.867,0,0,0,493.852,112.488Zm0,0" transform="translate(-400.884 -91.248)" fill="#41b6e6"/>
  </g>
</svg>
