<svg xmlns="http://www.w3.org/2000/svg" width="89.482" height="86" viewBox="0 0 89.482 86">
  <g id="Group_132" data-name="Group 132" transform="translate(0.5 -14.035)">
    <g id="Group_128" data-name="Group 128" transform="translate(62.303 73.539)">
      <g id="Group_127" data-name="Group 127">
        <path id="Path_392" data-name="Path 392" d="M376.506,360.848a1.3,1.3,0,0,0-1.415.281L360.9,375.322a1.3,1.3,0,0,0,.918,2.217h14.193a1.3,1.3,0,0,0,1.3-1.3V362.048A1.3,1.3,0,0,0,376.506,360.848Zm-11.555,14.094,9.759-9.759v9.759Z" transform="translate(-360.517 -360.749)" fill="#41b6e6"/>
      </g>
    </g>
    <g id="Group_130" data-name="Group 130" transform="translate(0 15.101)">
      <g id="Group_129" data-name="Group 129">
        <path id="Path_393" data-name="Path 393" d="M57.235,36.742H11.513V23.894a1.3,1.3,0,0,0-1.3-1.3A10.226,10.226,0,0,0,0,32.81V87.97a1.3,1.3,0,0,0,.031.279,9.837,9.837,0,0,0,9.807,9.09H49.523l-7.474,7.474a1.3,1.3,0,0,0,.918,2.217H87.183a1.3,1.3,0,0,0,1.3-1.3V61.516a1.3,1.3,0,0,0-2.217-.919l-3.89,3.89V38.041a1.3,1.3,0,0,0-1.3-1.3H71.1m0,0-2.6,2.6H79.777V67.084L61.2,85.661a1.3,1.3,0,0,0,0,1.837c.032.032.065.061.1.089a1.3,1.3,0,0,0,1.738-.089h0L85.885,64.651V76.109h-2.4a1.3,1.3,0,1,0,0,2.6h2.4V82.62h-2.4a1.3,1.3,0,1,0,0,2.6h2.4V89.13h-2.4a1.3,1.3,0,1,0,0,2.6h2.4v3.914h-2.4a1.3,1.3,0,1,0,0,2.6h2.4v6.194H46.1L59.22,91.315a1.3,1.3,0,0,0-1.837-1.837L52.12,94.742H9.838A7.2,7.2,0,0,1,2.6,87.735q.011-.37.057-.733v0q.022-.172.052-.343l.007-.039q.027-.152.061-.3c.006-.028.013-.056.019-.084q.03-.128.064-.254c.012-.046.025-.091.039-.136.019-.066.039-.132.06-.2s.043-.13.066-.194c.016-.045.031-.09.048-.135.032-.085.065-.169.1-.253l.03-.072c.044-.1.091-.206.139-.307l.006-.013a7.645,7.645,0,0,1,5.314-4.156l.02,0c.107-.022.216-.041.325-.058l.055-.009c.1-.015.2-.027.3-.038l.084-.01c.1-.01.193-.016.291-.022l.092-.007q.191-.01.384-.01a1.3,1.3,0,0,0,1.3-1.3V69.638a1.3,1.3,0,0,0-2.6,0v8.2A10.144,10.144,0,0,0,3.082,80.66c-.169.165-.329.336-.485.51V32.81A7.63,7.63,0,0,1,8.915,25.3v39.14h0a1.3,1.3,0,1,0,2.6,0h0v-25.1H51.89" transform="translate(0 -22.595)" fill="#004b87" stroke="#004b87" stroke-width="1"/>
      </g>
    </g>
    <rect id="Rectangle_57" data-name="Rectangle 57" width="14.899" height="4.319" transform="translate(53.735 28.075)" fill="#fcfcfc"/>
    <g id="Group_131" data-name="Group 131" transform="translate(43.949 16.535)">
      <path id="Path_394" data-name="Path 394" d="M300.053,33.307l8.183-8.146,5.921,5.968-.739,2.754,2.438-1.966,2.663-1.451.051-.031,2.6-2.612,0,0,3.49-3.49a3.961,3.961,0,0,0,0-5.6l-4.036-4.036a3.961,3.961,0,0,0-5.6,0l-3.492,3.492-4.219,4.219-9.039,9.039,1.775,1.861h0m16.3-4.374-5.963-5.963,2.383-2.383,5.963,5.963Zm5.766-5.851-2.573,2.574-5.963-5.963,2.574-2.574a1.364,1.364,0,0,1,1.927,0l4.036,4.036A1.364,1.364,0,0,1,322.12,23.081Z" transform="translate(-292.681 -15.535)" fill="#41b6e6" stroke="#41b6e6" stroke-width="1"/>
      <path id="Path_395" data-name="Path 395" d="M172.484,112.019l-.34.34,0,0-26.186,26.187-5.963-5.963,5.162-5.162a1.3,1.3,0,1,0-1.837-1.837l-6.08,6.08a1.306,1.306,0,0,0-.091.1c-.01.012-.018.024-.027.037s-.036.049-.053.074-.018.03-.027.045-.028.049-.041.074-.016.033-.023.05-.022.051-.032.077c0,.009-.008.018-.011.027l-2.53,7.168-1.725,4.887a1.313,1.313,0,0,0-.052.2h-4.319a1.3,1.3,0,1,0,0,2.6h35.965a1.3,1.3,0,1,0,0-2.6h-25.8l7.92-2.8.019-.008c.031-.011.061-.024.091-.038l.035-.016c.031-.016.062-.033.092-.051l.029-.017c.031-.02.062-.042.092-.065l.022-.017a1.305,1.305,0,0,0,.105-.094L173.6,114.578l3.3-3.253-4.278.831Zm-32.623,29.139-2.479-2.479,1.313-3.72,4.885,4.885Z" transform="translate(-151.008 -96.425)" fill="#41b6e6" stroke="#41b6e6" stroke-width="1"/>
      <path id="Path_396" data-name="Path 396" d="M251.258,117.047l-9.459,9.422a1.3,1.3,0,0,0,1.837,1.837l6.733-6.733,2.664-2.664Z" transform="translate(-245.647 -101.159)" fill="#41b6e6" stroke="#41b6e6" stroke-width="1"/>
    </g>
  </g>
</svg>
