<svg xmlns="http://www.w3.org/2000/svg" width="103.908" height="69.279" viewBox="0 0 103.908 69.279">
  <g id="b2b" transform="translate(0 0.002)">
    <path id="Path_366" data-name="Path 366" d="M1.732,69.3H36.368A1.732,1.732,0,0,0,38.1,67.571V53.717H34.636V65.839H27.709V57.18a1.732,1.732,0,0,0-1.732-1.732H12.123a1.732,1.732,0,0,0-1.732,1.732v8.659H3.464V10.422H34.636V26.008H38.1V8.69a1.732,1.732,0,0,0-1.732-1.732H34.636v-5.2A1.732,1.732,0,0,0,32.9.031H5.2A1.732,1.732,0,0,0,3.464,1.763v5.2H1.732A1.732,1.732,0,0,0,0,8.69V67.571A1.732,1.732,0,0,0,1.732,69.3Zm22.513-3.464H20.782V58.912h3.464ZM13.854,58.912h3.464v6.927H13.854ZM6.927,3.495H31.172V6.958H6.927Zm0,0" transform="translate(0 -0.026)" fill="#004b87"/>
    <path id="Path_367" data-name="Path 367" d="M40.659,192.031H33.732A1.732,1.732,0,0,0,32,193.763v6.927a1.732,1.732,0,0,0,1.732,1.732h6.927a1.732,1.732,0,0,0,1.732-1.732v-6.927A1.732,1.732,0,0,0,40.659,192.031Zm-1.732,6.927H35.464v-3.464h3.464Zm0,0" transform="translate(-25.073 -150.463)" fill="#41b6e6"/>
    <path id="Path_368" data-name="Path 368" d="M96,200.69a1.732,1.732,0,0,0,1.732,1.732h6.927a1.732,1.732,0,0,0,1.732-1.732v-5.2h-3.464v3.464H99.464v-3.464h3.464v-3.464h-5.2A1.732,1.732,0,0,0,96,193.763Zm0,0" transform="translate(-75.218 -150.463)" fill="#41b6e6"/>
    <path id="Path_369" data-name="Path 369" d="M42.391,129.763a1.732,1.732,0,0,0-1.732-1.732H33.732A1.732,1.732,0,0,0,32,129.763v6.927a1.732,1.732,0,0,0,1.732,1.732h6.927a1.732,1.732,0,0,0,1.732-1.732Zm-3.464,5.2H35.464v-3.464h3.464Zm0,0" transform="translate(-25.073 -100.317)" fill="#41b6e6"/>
    <path id="Path_370" data-name="Path 370" d="M96,136.69a1.732,1.732,0,0,0,1.732,1.732h5.2v-3.464H99.464v-3.464h3.464v3.464h3.464v-5.2a1.732,1.732,0,0,0-1.732-1.732H97.732A1.732,1.732,0,0,0,96,129.763Zm0,0" transform="translate(-75.218 -100.317)" fill="#41b6e6"/>
    <path id="Path_371" data-name="Path 371" d="M42.391,65.763a1.732,1.732,0,0,0-1.732-1.732H33.732A1.732,1.732,0,0,0,32,65.763V72.69a1.732,1.732,0,0,0,1.732,1.732h6.927a1.732,1.732,0,0,0,1.732-1.732Zm-3.464,5.2H35.464V67.495h3.464Zm0,0" transform="translate(-25.073 -50.171)" fill="#41b6e6"/>
    <path id="Path_372" data-name="Path 372" d="M97.732,74.422h6.927a1.732,1.732,0,0,0,1.732-1.732V65.763a1.732,1.732,0,0,0-1.732-1.732H97.732A1.732,1.732,0,0,0,96,65.763V72.69A1.732,1.732,0,0,0,97.732,74.422Zm1.732-6.927h3.464v3.464H99.464Zm0,0" transform="translate(-75.218 -50.171)" fill="#41b6e6"/>
    <path id="Path_373" data-name="Path 373" d="M308.368,13.86h-.045A8.62,8.62,0,0,0,297.977.747a8.778,8.778,0,0,0-6.915,0A8.621,8.621,0,0,0,280.7,13.86h-.045A8.669,8.669,0,0,0,272,22.519h3.464a5.2,5.2,0,0,1,5.2-5.2h13.854a5.2,5.2,0,0,1,5.2,5.2V39.837h-3.464V24.251h-3.464V65.814h-3.464V46.764h-3.464v19.05h-3.464V51.959h-3.464V67.545a1.732,1.732,0,0,0,1.732,1.732h27.709a1.732,1.732,0,0,0,1.732-1.732V43.3h5.2a1.732,1.732,0,0,0,1.732-1.732V22.519A8.669,8.669,0,0,0,308.368,13.86Zm-1.732-5.2a5.2,5.2,0,0,1-5.2,5.2h-.01a8.613,8.613,0,0,0,0-10.391h.01A5.2,5.2,0,0,1,306.636,8.664Zm-9.525-4.49a5.2,5.2,0,0,1-2.636,9.686,8.486,8.486,0,0,0,0-10.375A5.2,5.2,0,0,1,297.111,4.174Zm-14.72,4.49a5.2,5.2,0,1,1,5.2,5.2A5.2,5.2,0,0,1,282.391,8.664Zm19,8.659h.045a5.2,5.2,0,0,1,5.2,5.2V39.837h-3.464V22.519A8.574,8.574,0,0,0,301.4,17.323ZM296.245,43.3h3.464V65.814h-3.464Zm10.391,22.513h-3.464V43.3h3.464Zm6.927-25.977H310.1V22.519a8.573,8.573,0,0,0-1.777-5.2h.045a5.2,5.2,0,0,1,5.2,5.2Zm0,0" transform="translate(-213.119 0)" fill="#004b87"/>
    <path id="Path_374" data-name="Path 374" d="M304,112.031h3.464v3.464H304Zm0,0" transform="translate(-238.192 -87.781)"/>
    <path id="Path_375" data-name="Path 375" d="M136.51,135.111l12.123,12.123a1.732,1.732,0,0,0,2.956-1.224v-5.2h13.854v5.2a1.732,1.732,0,0,0,2.956,1.224l12.123-12.123a1.733,1.733,0,0,0,0-2.449L168.4,120.539a1.732,1.732,0,0,0-2.956,1.224v5.2H151.588v-5.2a1.732,1.732,0,0,0-2.956-1.224L136.51,132.662A1.733,1.733,0,0,0,136.51,135.111Zm11.615-9.166v2.747a1.732,1.732,0,0,0,1.732,1.732h17.318a1.732,1.732,0,0,0,1.732-1.732v-2.747l7.942,7.942-7.942,7.942v-2.747a1.732,1.732,0,0,0-1.732-1.732H149.857a1.732,1.732,0,0,0-1.732,1.732v2.747l-7.942-7.942Zm0,0" transform="translate(-106.562 -94.05)" fill="#41b6e6"/>
  </g>
</svg>
