<svg xmlns="http://www.w3.org/2000/svg" width="87.062" height="84.447" viewBox="0 0 87.062 84.447">
  <g id="responsive" transform="translate(0 -7.689)">
    <path id="Path_382" data-name="Path 382" d="M54.5,82.261h25.15a1.7,1.7,0,0,0,1.7-1.7V59.386a1.7,1.7,0,0,0-1.7-1.7H54.5a1.7,1.7,0,0,0-1.7,1.7V80.56A1.7,1.7,0,0,0,54.5,82.261Zm1.7-21.174H77.946V78.86H56.2Z" transform="translate(-43.818 -41.495)" fill="#41b6e6"/>
    <path id="Path_383" data-name="Path 383" d="M276.774,61.087h23.7a1.7,1.7,0,0,0,0-3.4h-23.7a1.7,1.7,0,0,0,0,3.4Z" transform="translate(-228.3 -41.495)" fill="#41b6e6"/>
    <path id="Path_384" data-name="Path 384" d="M300.475,144.1a1.7,1.7,0,0,0,0-3.4h-23.7a1.7,1.7,0,0,0,0,3.4Z" transform="translate(-228.3 -110.394)" fill="#41b6e6"/>
    <path id="Path_385" data-name="Path 385" d="M285.986,99.193H254.818a1.7,1.7,0,0,0,0,3.4h31.167a1.7,1.7,0,1,0,0-3.4Z" transform="translate(-210.077 -75.944)" fill="#41b6e6"/>
    <path id="Path_386" data-name="Path 386" d="M253.118,183.907a1.7,1.7,0,0,0,1.7,1.7h31.167a1.7,1.7,0,1,0,0-3.4H254.818A1.7,1.7,0,0,0,253.118,183.907Z" transform="translate(-210.077 -144.843)" fill="#41b6e6"/>
    <path id="Path_387" data-name="Path 387" d="M54.5,235.231H73.76a1.7,1.7,0,1,0,0-3.4H54.5a1.7,1.7,0,1,0,0,3.4Z" transform="translate(-43.818 -186.028)" fill="#41b6e6"/>
    <path id="Path_388" data-name="Path 388" d="M52.8,275.036a1.7,1.7,0,0,0,1.7,1.7H83.732a1.7,1.7,0,1,0,0-3.4H54.5a1.7,1.7,0,0,0-1.7,1.7Z" transform="translate(-43.818 -220.476)" fill="#41b6e6"/>
    <path id="Path_389" data-name="Path 389" d="M85.361,7.689H51.183a1.7,1.7,0,0,0,0,3.4H83.661V60.252H77.609V53.173a5.107,5.107,0,0,0-5.1-5.1H52.918a5.107,5.107,0,0,0-5.1,5.1v7.079H3.4V11.09H35.879a1.7,1.7,0,0,0,0-3.4H1.7A1.7,1.7,0,0,0,0,9.389V72.41a1.7,1.7,0,0,0,1.7,1.7H30.858v6.322H21.721a1.7,1.7,0,0,0-1.7,1.7v8.3a1.7,1.7,0,0,0,1.7,1.7H72.507a5.107,5.107,0,0,0,5.1-5.1V74.111h7.752a1.7,1.7,0,0,0,1.7-1.7V9.389a1.7,1.7,0,0,0-1.7-1.7ZM3.4,63.653H47.816V70.71H3.4ZM34.258,74.111H47.816v6.322H34.258ZM23.422,83.834H47.816v3.2a5.079,5.079,0,0,0,.292,1.7H23.422Zm50.786,3.2a1.7,1.7,0,0,1-1.7,1.7h-19.6a1.7,1.7,0,0,1-1.691-1.7V53.173a1.7,1.7,0,0,1,1.7-1.7h3.107a1.7,1.7,0,0,0,1.7,1.7H67.7a1.7,1.7,0,0,0,1.7-1.7h3.107a1.7,1.7,0,0,1,1.7,1.7Zm3.4-16.325V63.653h6.052V70.71Z" fill="#004b87"/>
    <circle id="Ellipse_33" data-name="Ellipse 33" cx="1.5" cy="1.5" r="1.5" transform="translate(42 7.689)" fill="#41b6e6"/>
    <path id="Path_390" data-name="Path 390" d="M334.028,304.619H320.382a1.7,1.7,0,0,0-1.7,1.7v13.646a1.7,1.7,0,0,0,1.7,1.7h13.646a1.7,1.7,0,0,0,1.7-1.7V306.319A1.7,1.7,0,0,0,334.028,304.619Zm-1.7,13.646H322.083V308.02h10.245Z" transform="translate(-264.493 -246.439)" fill="#41b6e6"/>
    <path id="Path_391" data-name="Path 391" d="M334.028,424.869H320.382a1.7,1.7,0,1,0,0,3.4h13.646a1.7,1.7,0,1,0,0-3.4Z" transform="translate(-264.493 -346.242)" fill="#41b6e6"/>
  </g>
</svg>
