<svg xmlns="http://www.w3.org/2000/svg" width="95.511" height="95.5" viewBox="0 0 95.511 95.5">
  <g id="online-shopping" transform="translate(0 -0.028)">
    <path id="Path_376" data-name="Path 376" d="M95.5,19.427c0-.348.427,1.037-5.365-16.337A4.471,4.471,0,0,0,85.892.028H9.615A4.471,4.471,0,0,0,5.368,3.089C-.7,21.293.161,18.706.078,18.964c-.1.313-.074.219-.074,3.447a10.408,10.408,0,0,0,2.984,7.3V74.638a5.976,5.976,0,0,0,5.969,5.969H31.07l-.995,5.969H27.982a4.108,4.108,0,0,0-4.1,4.1v3.357a1.492,1.492,0,0,0,1.492,1.492H70.137a1.492,1.492,0,0,0,1.492-1.492V90.679a4.108,4.108,0,0,0-4.1-4.1H65.432l-.995-5.969H86.551a5.976,5.976,0,0,0,5.969-5.969V29.711a10.409,10.409,0,0,0,2.984-7.3V19.427Zm-8.2-15.394,4.634,13.9H77.37L74.883,3.012H85.892a1.49,1.49,0,0,1,1.415,1.02Zm2.228,27.814V65.685H5.972V31.846a10.362,10.362,0,0,0,2.984.9v28.46A1.492,1.492,0,0,0,10.449,62.7h74.61a1.492,1.492,0,0,0,1.492-1.492V32.748A10.362,10.362,0,0,0,89.535,31.846ZM2.988,20.919H17.91v1.492a7.461,7.461,0,0,1-14.922,0ZM37.179,3.012,35.935,17.934H21.164L23.65,3.012Zm18.155,0,1.244,14.922H38.93L40.174,3.012Zm16.523,0,2.487,14.922H59.572L58.329,3.012Zm-24.1,26.859A8.963,8.963,0,0,1,38.8,20.919H56.707A8.963,8.963,0,0,1,47.754,29.872ZM20.894,20.919H35.816v1.492a7.461,7.461,0,1,1-14.922,0Zm62.672,38.8H11.941V32.748A10.466,10.466,0,0,0,19.4,27.785a10.443,10.443,0,0,0,18.22-.563,11.93,11.93,0,0,0,20.263,0,10.443,10.443,0,0,0,18.22.563,10.466,10.466,0,0,0,7.461,4.963V59.716ZM67.152,29.872a7.469,7.469,0,0,1-7.461-7.461V20.919H74.613v1.492A7.47,7.47,0,0,1,67.152,29.872ZM8.2,4.033a1.49,1.49,0,0,1,1.416-1.02H20.625L18.138,17.934H3.566ZM68.645,90.679v1.865H26.863V90.679a1.12,1.12,0,0,1,1.119-1.119H67.525A1.121,1.121,0,0,1,68.645,90.679Zm-6.238-4.1H33.1l.995-5.969H61.412ZM89.535,74.638a2.988,2.988,0,0,1-2.984,2.984H8.957a2.988,2.988,0,0,1-2.984-2.984V68.669H89.535ZM92.52,22.411a7.461,7.461,0,0,1-14.922,0V20.919H92.52Z" transform="translate(0)" fill="#004b87"/>
    <path id="Path_377" data-name="Path 377" d="M241.511,200.028a1.492,1.492,0,1,0,0,2.984h31.336a1.492,1.492,0,1,0,0-2.984Z" transform="translate(-195.249 -162.695)" fill="#41b6e6"/>
    <path id="Path_378" data-name="Path 378" d="M272.847,240.028H241.511a1.492,1.492,0,0,0,0,2.984h31.336a1.492,1.492,0,1,0,0-2.984Z" transform="translate(-195.25 -195.234)" fill="#41b6e6"/>
    <path id="Path_379" data-name="Path 379" d="M262.4,280.028H241.511a1.492,1.492,0,0,0,0,2.984H262.4a1.492,1.492,0,0,0,0-2.984Z" transform="translate(-195.25 -227.773)" fill="#41b6e6"/>
    <path id="Path_380" data-name="Path 380" d="M115.419,206h-3.312l-1.21-4.838a1.492,1.492,0,1,0-2.9.724L109.032,206H103.9l1.029-4.115a1.492,1.492,0,1,0-2.9-.724L100.825,206H97.513a1.492,1.492,0,1,0,0,2.984h.228l1.284,7.706a1.492,1.492,0,0,0,1.472,1.247h11.938a1.492,1.492,0,0,0,1.472-1.247l1.284-7.706h.228a1.492,1.492,0,1,0,0-2.984Zm-4.249,8.953h-9.409l-.995-5.969h11.4Z" transform="translate(-78.111 -162.694)" fill="#41b6e6"/>
    <path id="Path_381" data-name="Path 381" d="M248.1,386.073a1.492,1.492,0,1,0,2.207-1.811A1.493,1.493,0,0,0,248.1,386.073Z" transform="translate(-201.73 -312.357)" fill="#41b6e6"/>
  </g>
</svg>
